VotoSerifGX-ExtendedText.ufo
<glyph name="quotedbl" format="2">
  <advance width="468"/>
  <unicode hex="0022"/>
  <outline>
    <contour>
      <point x="100" y="456" type="line"/>
      <point x="153" y="456" type="line"/>
      <point x="181" y="714" type="line"/>
      <point x="69" y="714" type="line"/>
    </contour>
    <contour>
      <point x="318" y="456" type="line"/>
      <point x="370" y="456" type="line"/>
      <point x="399" y="714" type="line"/>
      <point x="287" y="714" type="line"/>
    </contour>
  </outline>
</glyph>
<glyph name="numbersign" format="2">
  <advance width="685"/>
  <unicode hex="0023"/>
  <outline>
    <contour>
      <point x="141" y="0" type="line"/>
      <point x="190" y="0" type="line"/>
      <point x="229" y="211" type="line"/>
      <point x="399" y="211" type="line"/>
      <point x="360" y="0" type="line"/>
      <point x="408" y="0" type="line"/>
      <point x="447" y="211" type="line"/>
      <point x="602" y="211" type="line"/>
      <point x="602" y="256" type="line"/>
      <point x="456" y="256" type="line"/>
      <point x="495" y="463" type="line"/>
      <point x="634" y="463" type="line"/>
      <point x="634" y="509" type="line"/>
      <point x="504" y="509" type="line"/>
      <point x="542" y="714" type="line"/>
      <point x="494" y="714" type="line"/>
      <point x="455" y="509" type="line"/>
      <point x="286" y="509" type="line"/>
      <point x="324" y="714" type="line"/>
      <point x="275" y="714" type="line"/>
      <point x="238" y="509" type="line"/>
      <point x="84" y="509" type="line"/>
      <point x="84" y="463" type="line"/>
      <point x="229" y="463" type="line"/>
      <point x="190" y="256" type="line"/>
      <point x="52" y="256" type="line"/>
      <point x="52" y="211" type="line"/>
      <point x="181" y="211" type="line"/>
    </contour>
    <contour>
      <point x="238" y="256" type="line"/>
      <point x="277" y="463" type="line"/>
      <point x="447" y="463" type="line"/>
      <point x="408" y="256" type="line"/>
    </contour>
  </outline>
</glyph>
<glyph name="percent" format="2">
  <advance width="1084"/>
  <unicode hex="0025"/>
  <outline>
    <contour>
      <point x="284" y="0" type="line"/>
      <point x="345" y="0" type="line"/>
      <point x="796" y="714" type="line"/>
      <point x="735" y="714" type="line"/>
    </contour>
    <contour>
      <point x="253" y="280" type="curve" smooth="yes"/>
      <point x="391" y="280"/>
      <point x="446" y="377"/>
      <point x="446" y="503" type="curve" smooth="yes"/>
      <point x="446" y="632"/>
      <point x="382" y="724"/>
      <point x="254" y="724" type="curve" smooth="yes"/>
      <point x="114" y="724"/>
      <point x="58" y="631"/>
      <point x="58" y="503" type="curve" smooth="yes"/>
      <point x="58" y="373"/>
      <point x="112" y="280"/>
    </contour>
    <contour>
      <point x="250" y="320" type="curve" smooth="yes"/>
      <point x="172" y="320"/>
      <point x="134" y="386"/>
      <point x="134" y="503" type="curve" smooth="yes"/>
      <point x="134" y="598"/>
      <point x="166" y="684"/>
      <point x="252" y="684" type="curve" smooth="yes"/>
      <point x="328" y="684"/>
      <point x="369" y="622"/>
      <point x="369" y="503" type="curve" smooth="yes"/>
      <point x="369" y="402"/>
      <point x="337" y="320"/>
    </contour>
    <contour>
      <point x="832" y="-10" type="curve" smooth="yes"/>
      <point x="972" y="-10"/>
      <point x="1026" y="87"/>
      <point x="1026" y="213" type="curve" smooth="yes"/>
      <point x="1026" y="342"/>
      <point x="963" y="434"/>
      <point x="833" y="434" type="curve" smooth="yes"/>
      <point x="694" y="434"/>
      <point x="637" y="341"/>
      <point x="637" y="213" type="curve" smooth="yes"/>
      <point x="637" y="83"/>
      <point x="692" y="-10"/>
    </contour>
    <contour>
      <point x="830" y="30" type="curve" smooth="yes"/>
      <point x="752" y="30"/>
      <point x="714" y="96"/>
      <point x="714" y="213" type="curve" smooth="yes"/>
      <point x="714" y="308"/>
      <point x="746" y="394"/>
      <point x="832" y="394" type="curve" smooth="yes"/>
      <point x="909" y="394"/>
      <point x="949" y="332"/>
      <point x="949" y="213" type="curve" smooth="yes"/>
      <point x="949" y="112"/>
      <point x="917" y="30"/>
    </contour>
  </outline>
</glyph>
<glyph name="parenleft" format="2">
  <advance width="406"/>
  <unicode hex="0028"/>
  <outline>
    <contour>
      <point x="367" y="-129" type="curve"/>
      <point x="367" y="-83" type="line"/>
      <point x="174" y="12"/>
      <point x="180" y="194"/>
      <point x="180" y="317" type="curve" smooth="yes"/>
      <point x="180" y="439"/>
      <point x="171" y="629"/>
      <point x="367" y="713" type="curve"/>
      <point x="367" y="760" type="line"/>
      <point x="143" y="682"/>
      <point x="69" y="567"/>
      <point x="69" y="317" type="curve" smooth="yes"/>
      <point x="69" y="69"/>
      <point x="143" y="-48"/>
    </contour>
  </outline>
</glyph>
<glyph name="period" format="2">
  <advance width="290"/>
  <unicode hex="002E"/>
  <outline>
    <contour>
      <point x="144" y="-6" type="curve" smooth="yes"/>
      <point x="179" y="-6"/>
      <point x="207" y="8"/>
      <point x="207" y="56" type="curve" smooth="yes"/>
      <point x="207" y="104"/>
      <point x="179" y="116"/>
      <point x="144" y="116" type="curve" smooth="yes"/>
      <point x="111" y="116"/>
      <point x="83" y="104"/>
      <point x="83" y="56" type="curve" smooth="yes"/>
      <point x="83" y="8"/>
      <point x="111" y="-6"/>
    </contour>
  </outline>
</glyph>
<glyph name="one" format="2">
  <advance width="685"/>
  <unicode hex="0031"/>
  <outline>
    <contour>
      <point x="140" y="0" type="line"/>
      <point x="591" y="0" type="line"/>
      <point x="591" y="41" type="line"/>
      <point x="472" y="41" type="line" smooth="yes"/>
      <point x="423" y="41"/>
      <point x="420" y="62"/>
      <point x="420" y="116" type="curve" smooth="yes"/>
      <point x="420" y="718" type="line"/>
      <point x="339" y="718" type="line"/>
      <point x="295" y="684" type="line" smooth="yes"/>
      <point x="228" y="621"/>
      <point x="165" y="578"/>
      <point x="83" y="574" type="curve"/>
      <point x="83" y="543"/>
      <point x="99" y="520"/>
      <point x="136" y="520" type="curve" smooth="yes"/>
      <point x="185" y="520"/>
      <point x="240" y="553"/>
      <point x="318" y="650" type="curve"/>
      <point x="318" y="116" type="line" smooth="yes"/>
      <point x="318" y="56"/>
      <point x="313" y="41"/>
      <point x="266" y="41" type="curve" smooth="yes"/>
      <point x="140" y="41" type="line"/>
    </contour>
  </outline>
</glyph>
<glyph name="four" format="2">
  <advance width="685"/>
  <unicode hex="0034"/>
  <outline>
    <contour>
      <point x="279" y="0" type="line"/>
      <point x="623" y="0" type="line"/>
      <point x="623" y="38" type="line"/>
      <point x="578" y="38" type="line" smooth="yes"/>
      <point x="529" y="38"/>
      <point x="510" y="50"/>
      <point x="510" y="124" type="curve" smooth="yes"/>
      <point x="510" y="194" type="line"/>
      <point x="657" y="194" type="line"/>
      <point x="657" y="241" type="line"/>
      <point x="510" y="241" type="line"/>
      <point x="510" y="714" type="line"/>
      <point x="416" y="714" type="line"/>
      <point x="23" y="238" type="line"/>
      <point x="23" y="194" type="line"/>
      <point x="409" y="194" type="line"/>
      <point x="409" y="124" type="line" smooth="yes"/>
      <point x="409" y="50"/>
      <point x="389" y="38"/>
      <point x="340" y="38" type="curve" smooth="yes"/>
      <point x="279" y="38" type="line"/>
    </contour>
    <contour>
      <point x="85" y="241" type="line"/>
      <point x="292" y="496" type="line" smooth="yes"/>
      <point x="320" y="525"/>
      <point x="400" y="633"/>
      <point x="414" y="656" type="curve"/>
      <point x="412" y="595"/>
      <point x="410" y="492"/>
      <point x="410" y="434" type="curve" smooth="yes"/>
      <point x="410" y="241" type="line"/>
    </contour>
  </outline>
</glyph>
<glyph name="semicolon" format="2">
  <advance width="305"/>
  <unicode hex="003B"/>
  <outline>
    <contour>
      <point x="57" y="-154" type="line"/>
      <point x="176" y="-125"/>
      <point x="221" y="-62"/>
      <point x="221" y="18" type="curve" smooth="yes"/>
      <point x="221" y="80"/>
      <point x="193" y="116"/>
      <point x="142" y="116" type="curve" smooth="yes"/>
      <point x="109" y="116"/>
      <point x="89" y="97"/>
      <point x="89" y="62" type="curve" smooth="yes"/>
      <point x="89" y="9"/>
      <point x="153" y="3"/>
      <point x="153" y="-30" type="curve" smooth="yes"/>
      <point x="153" y="-62"/>
      <point x="124" y="-99"/>
      <point x="57" y="-118" type="curve"/>
    </contour>
    <contour>
      <point x="149" y="406" type="curve" smooth="yes"/>
      <point x="183" y="406"/>
      <point x="212" y="421"/>
      <point x="212" y="469" type="curve" smooth="yes"/>
      <point x="212" y="516"/>
      <point x="183" y="529"/>
      <point x="149" y="529" type="curve" smooth="yes"/>
      <point x="116" y="529"/>
      <point x="88" y="516"/>
      <point x="88" y="469" type="curve" smooth="yes"/>
      <point x="88" y="421"/>
      <point x="116" y="406"/>
    </contour>
  </outline>
</glyph>
<glyph name="G" format="2">
  <advance width="850"/>
  <unicode hex="0047"/>
  <anchor x="479" y="0" name="bottom"/>
  <anchor x="491" y="714" name="top"/>
  <anchor x="830" y="714" name="topright"/>
  <outline>
    <contour>
      <point x="480" y="-10" type="curve" smooth="yes"/>
      <point x="583" y="-10"/>
      <point x="663" y="5"/>
      <point x="741" y="37" type="curve"/>
      <point x="741" y="201" type="line" smooth="yes"/>
      <point x="741" y="271"/>
      <point x="748" y="291"/>
      <point x="801" y="291" type="curve" smooth="yes"/>
      <point x="825" y="291" type="line"/>
      <point x="825" y="330" type="line"/>
      <point x="530" y="330" type="line"/>
      <point x="530" y="291" type="line"/>
      <point x="572" y="291" type="line" smooth="yes"/>
      <point x="623" y="291"/>
      <point x="631" y="271"/>
      <point x="631" y="202" type="curve" smooth="yes"/>
      <point x="631" y="54" type="line"/>
      <point x="596" y="44"/>
      <point x="543" y="38"/>
      <point x="498" y="38" type="curve" smooth="yes"/>
      <point x="277" y="38"/>
      <point x="184" y="167"/>
      <point x="184" y="358" type="curve" smooth="yes"/>
      <point x="184" y="554"/>
      <point x="295" y="678"/>
      <point x="480" y="678" type="curve" smooth="yes"/>
      <point x="617" y="678"/>
      <point x="663" y="643"/>
      <point x="663" y="540" type="curve"/>
      <point x="720" y="540"/>
      <point x="747" y="568"/>
      <point x="747" y="604" type="curve" smooth="yes"/>
      <point x="747" y="672"/>
      <point x="676" y="724"/>
      <point x="486" y="724" type="curve" smooth="yes"/>
      <point x="225" y="724"/>
      <point x="70" y="570"/>
      <point x="70" y="358" type="curve" smooth="yes"/>
      <point x="70" y="147"/>
      <point x="205" y="-10"/>
    </contour>
  </outline>
</glyph>
<glyph name="O" format="2">
  <advance width="887"/>
  <unicode hex="004F"/>
  <anchor x="444" y="0" name="bottom"/>
  <anchor x="444" y="357" name="center"/>
  <anchor x="444" y="714" name="top"/>
  <anchor x="867" y="714" name="topright"/>
  <outline>
    <contour>
      <point x="445" y="-10" type="curve" smooth="yes"/>
      <point x="709" y="-10"/>
      <point x="818" y="142"/>
      <point x="818" y="358" type="curve" smooth="yes"/>
      <point x="818" y="574"/>
      <point x="706" y="725"/>
      <point x="446" y="725" type="curve" smooth="yes"/>
      <point x="198" y="725"/>
      <point x="68" y="585"/>
      <point x="68" y="359" type="curve" smooth="yes"/>
      <point x="68" y="123"/>
      <point x="194" y="-10"/>
    </contour>
    <contour>
      <point x="445" y="36" type="curve" smooth="yes"/>
      <point x="265" y="36"/>
      <point x="182" y="150"/>
      <point x="182" y="358" type="curve" smooth="yes"/>
      <point x="182" y="560"/>
      <point x="269" y="679"/>
      <point x="446" y="679" type="curve" smooth="yes"/>
      <point x="634" y="679"/>
      <point x="704" y="560"/>
      <point x="704" y="358" type="curve" smooth="yes"/>
      <point x="704" y="156"/>
      <point x="635" y="36"/>
    </contour>
  </outline>
</glyph>
<glyph name="V" format="2">
  <advance width="811"/>
  <unicode hex="0056"/>
  <anchor x="407" y="0" name="bottom"/>
  <anchor x="407" y="714" name="top"/>
  <anchor x="791" y="714" name="topright"/>
  <outline>
    <contour>
      <point x="372" y="0" type="line"/>
      <point x="437" y="0" type="line"/>
      <point x="698" y="620" type="line" smooth="yes"/>
      <point x="718" y="668"/>
      <point x="724" y="676"/>
      <point x="766" y="676" type="curve" smooth="yes"/>
      <point x="811" y="676" type="line"/>
      <point x="811" y="714" type="line"/>
      <point x="537" y="714" type="line"/>
      <point x="537" y="676" type="line"/>
      <point x="598" y="676" type="line" smooth="yes"/>
      <point x="638" y="676"/>
      <point x="644" y="666"/>
      <point x="644" y="652" type="curve" smooth="yes"/>
      <point x="644" y="633"/>
      <point x="623" y="589"/>
      <point x="615" y="566" type="curve" smooth="yes"/>
      <point x="487" y="262" type="line" smooth="yes"/>
      <point x="459" y="200"/>
      <point x="441" y="148"/>
      <point x="428" y="107" type="curve"/>
      <point x="414" y="149"/>
      <point x="393" y="211"/>
      <point x="368" y="264" type="curve" smooth="yes"/>
      <point x="236" y="571" type="line" smooth="yes"/>
      <point x="228" y="590"/>
      <point x="209" y="631"/>
      <point x="209" y="651" type="curve" smooth="yes"/>
      <point x="209" y="668"/>
      <point x="217" y="676"/>
      <point x="255" y="676" type="curve" smooth="yes"/>
      <point x="325" y="676" type="line"/>
      <point x="325" y="714" type="line"/>
      <point x="0" y="714" type="line"/>
      <point x="0" y="676" type="line"/>
      <point x="32" y="676" type="line" smooth="yes"/>
      <point x="71" y="676"/>
      <point x="82" y="670"/>
      <point x="99" y="630" type="curve" smooth="yes"/>
    </contour>
  </outline>
</glyph>
<glyph name="a" format="2">
  <advance width="672"/>
  <unicode hex="0061"/>
  <anchor x="336" y="0" name="bottom"/>
  <anchor x="336" y="536" name="top"/>
  <anchor x="652" y="536" name="topright"/>
  <outline>
    <contour>
      <point x="237" y="-10" type="curve" smooth="yes"/>
      <point x="346" y="-10"/>
      <point x="404" y="52"/>
      <point x="438" y="90" type="curve"/>
      <point x="444" y="90" type="line"/>
      <point x="460" y="0" type="line"/>
      <point x="623" y="0" type="line"/>
      <point x="623" y="38" type="line"/>
      <point x="614" y="38" type="line" smooth="yes"/>
      <point x="551" y="38"/>
      <point x="546" y="57"/>
      <point x="546" y="125" type="curve" smooth="yes"/>
      <point x="546" y="398" type="line" smooth="yes"/>
      <point x="546" y="484"/>
      <point x="484" y="546"/>
      <point x="319" y="546" type="curve" smooth="yes"/>
      <point x="168" y="546"/>
      <point x="113" y="490"/>
      <point x="113" y="444" type="curve" smooth="yes"/>
      <point x="113" y="400"/>
      <point x="139" y="386"/>
      <point x="197" y="386" type="curve"/>
      <point x="197" y="454"/>
      <point x="215" y="501"/>
      <point x="312" y="501" type="curve" smooth="yes"/>
      <point x="426" y="501"/>
      <point x="439" y="441"/>
      <point x="439" y="373" type="curve" smooth="yes"/>
      <point x="439" y="314" type="line"/>
      <point x="340" y="311" type="line" smooth="yes"/>
      <point x="149" y="305"/>
      <point x="61" y="258"/>
      <point x="61" y="150" type="curve" smooth="yes"/>
      <point x="61" y="40"/>
      <point x="142" y="-10"/>
    </contour>
    <contour>
      <point x="278" y="40" type="curve" smooth="yes"/>
      <point x="199" y="40"/>
      <point x="170" y="92"/>
      <point x="170" y="148" type="curve" smooth="yes"/>
      <point x="170" y="221"/>
      <point x="209" y="266"/>
      <point x="359" y="270" type="curve" smooth="yes"/>
      <point x="440" y="273" type="line"/>
      <point x="440" y="166" type="line" smooth="yes"/>
      <point x="440" y="118"/>
      <point x="368" y="40"/>
    </contour>
  </outline>
</glyph>
<glyph name="b" format="2">
  <advance width="735"/>
  <unicode hex="0062"/>
  <anchor x="367" y="0" name="bottom"/>
  <anchor x="367" y="760" name="top"/>
  <anchor x="687" y="760" name="topright"/>
  <outline>
    <contour>
      <point x="426" y="-10" type="curve" smooth="yes"/>
      <point x="577" y="-10"/>
      <point x="668" y="96"/>
      <point x="668" y="269" type="curve" smooth="yes"/>
      <point x="668" y="458"/>
      <point x="594" y="546"/>
      <point x="438" y="546" type="curve" smooth="yes"/>
      <point x="335" y="546"/>
      <point x="270" y="507"/>
      <point x="238" y="435" type="curve"/>
      <point x="231" y="435" type="line"/>
      <point x="237" y="476"/>
      <point x="240" y="538"/>
      <point x="240" y="577" type="curve" smooth="yes"/>
      <point x="240" y="760" type="line"/>
      <point x="23" y="760" type="line"/>
      <point x="23" y="722" type="line"/>
      <point x="57" y="722" type="line" smooth="yes"/>
      <point x="114" y="722"/>
      <point x="133" y="715"/>
      <point x="133" y="649" type="curve" smooth="yes"/>
      <point x="133" y="114" type="line" smooth="yes"/>
      <point x="133" y="42"/>
      <point x="114" y="38"/>
      <point x="45" y="38" type="curve" smooth="yes"/>
      <point x="23" y="38" type="line"/>
      <point x="23" y="0" type="line"/>
      <point x="209" y="0" type="line"/>
      <point x="228" y="95" type="line"/>
      <point x="233" y="95" type="line"/>
      <point x="266" y="25"/>
      <point x="341" y="-10"/>
    </contour>
    <contour>
      <point x="402" y="41" type="curve" smooth="yes"/>
      <point x="269" y="41"/>
      <point x="239" y="137"/>
      <point x="239" y="270" type="curve" smooth="yes"/>
      <point x="239" y="402"/>
      <point x="283" y="496"/>
      <point x="400" y="496" type="curve" smooth="yes"/>
      <point x="517" y="496"/>
      <point x="560" y="426"/>
      <point x="560" y="271" type="curve" smooth="yes"/>
      <point x="560" y="138"/>
      <point x="506" y="41"/>
    </contour>
  </outline>
</glyph>
<glyph name="g" format="2">
  <advance width="646"/>
  <unicode hex="0067"/>
  <anchor x="323" y="-236" name="bottom"/>
  <anchor x="319" y="536" name="top"/>
  <anchor x="638" y="536" name="topright"/>
  <outline>
    <contour>
      <point x="284" y="-236" type="curve" smooth="yes"/>
      <point x="494" y="-236"/>
      <point x="593" y="-163"/>
      <point x="593" y="-51" type="curve" smooth="yes"/>
      <point x="593" y="55"/>
      <point x="520" y="93"/>
      <point x="392" y="93" type="curve" smooth="yes"/>
      <point x="288" y="93" type="line" smooth="yes"/>
      <point x="236" y="93"/>
      <point x="186" y="99"/>
      <point x="186" y="135" type="curve" smooth="yes"/>
      <point x="186" y="166"/>
      <point x="207" y="191"/>
      <point x="232" y="202" type="curve"/>
      <point x="242" y="196"/>
      <point x="291" y="192"/>
      <point x="308" y="192" type="curve" smooth="yes"/>
      <point x="459" y="192"/>
      <point x="532" y="267"/>
      <point x="532" y="368" type="curve" smooth="yes"/>
      <point x="532" y="417"/>
      <point x="506" y="465"/>
      <point x="476" y="491" type="curve"/>
      <point x="498" y="502"/>
      <point x="515" y="519"/>
      <point x="551" y="519" type="curve" smooth="yes"/>
      <point x="567" y="519"/>
      <point x="586" y="507"/>
      <point x="586" y="468" type="curve"/>
      <point x="622" y="468"/>
      <point x="635" y="490"/>
      <point x="635" y="519" type="curve" smooth="yes"/>
      <point x="635" y="548"/>
      <point x="614" y="571"/>
      <point x="568" y="571" type="curve" smooth="yes"/>
      <point x="514" y="571"/>
      <point x="474" y="538"/>
      <point x="448" y="512" type="curve"/>
      <point x="410" y="535"/>
      <point x="368" y="546"/>
      <point x="308" y="546" type="curve" smooth="yes"/>
      <point x="153" y="546"/>
      <point x="77" y="465"/>
      <point x="77" y="379" type="curve" smooth="yes"/>
      <point x="77" y="309"/>
      <point x="112" y="246"/>
      <point x="192" y="214" type="curve"/>
      <point x="154" y="198"/>
      <point x="107" y="162"/>
      <point x="107" y="118" type="curve" smooth="yes"/>
      <point x="107" y="74"/>
      <point x="143" y="51"/>
      <point x="189" y="40" type="curve"/>
      <point x="102" y="38"/>
      <point x="33" y="-17"/>
      <point x="33" y="-86" type="curve" smooth="yes"/>
      <point x="33" y="-183"/>
      <point x="123" y="-236"/>
    </contour>
    <contour>
      <point x="290" y="-191" type="curve" smooth="yes"/>
      <point x="173" y="-191"/>
      <point x="117" y="-148"/>
      <point x="117" y="-90" type="curve" smooth="yes"/>
      <point x="117" y="-3"/>
      <point x="187" y="8"/>
      <point x="261" y="8" type="curve" smooth="yes"/>
      <point x="396" y="8" type="line" smooth="yes"/>
      <point x="460" y="8"/>
      <point x="508" y="-6"/>
      <point x="508" y="-74" type="curve" smooth="yes"/>
      <point x="508" y="-157"/>
      <point x="428" y="-191"/>
    </contour>
    <contour>
      <point x="305" y="236" type="curve" smooth="yes"/>
      <point x="225" y="236"/>
      <point x="171" y="280"/>
      <point x="171" y="364" type="curve" smooth="yes"/>
      <point x="171" y="450"/>
      <point x="221" y="502"/>
      <point x="306" y="502" type="curve" smooth="yes"/>
      <point x="396" y="502"/>
      <point x="437" y="447"/>
      <point x="437" y="365" type="curve" smooth="yes"/>
      <point x="437" y="273"/>
      <point x="391" y="236"/>
    </contour>
  </outline>
</glyph>
<glyph name="m" format="2">
  <advance width="1133"/>
  <unicode hex="006D"/>
  <anchor x="567" y="0" name="bottom"/>
  <anchor x="567" y="536" name="top"/>
  <anchor x="1056" y="536" name="topright"/>
  <outline>
    <contour>
      <point x="36" y="0" type="line"/>
      <point x="356" y="0" type="line"/>
      <point x="356" y="38" type="line"/>
      <point x="332" y="38" type="line" smooth="yes"/>
      <point x="263" y="38"/>
      <point x="251" y="44"/>
      <point x="251" y="106" type="curve" smooth="yes"/>
      <point x="251" y="319" type="line" smooth="yes"/>
      <point x="251" y="409"/>
      <point x="299" y="488"/>
      <point x="393" y="488" type="curve" smooth="yes"/>
      <point x="490" y="488"/>
      <point x="522" y="429"/>
      <point x="522" y="343" type="curve" smooth="yes"/>
      <point x="522" y="0" type="line"/>
      <point x="728" y="0" type="line"/>
      <point x="728" y="38" type="line"/>
      <point x="710" y="38" type="line" smooth="yes"/>
      <point x="636" y="38"/>
      <point x="628" y="43"/>
      <point x="628" y="109" type="curve" smooth="yes"/>
      <point x="628" y="333" type="line" smooth="yes"/>
      <point x="628" y="420"/>
      <point x="676" y="489"/>
      <point x="775" y="489" type="curve" smooth="yes"/>
      <point x="864" y="489"/>
      <point x="900" y="436"/>
      <point x="900" y="343" type="curve" smooth="yes"/>
      <point x="900" y="0" type="line"/>
      <point x="1100" y="0" type="line"/>
      <point x="1100" y="38" type="line"/>
      <point x="1088" y="38" type="line" smooth="yes"/>
      <point x="1013" y="38"/>
      <point x="1007" y="44"/>
      <point x="1007" y="113" type="curve" smooth="yes"/>
      <point x="1007" y="360" type="line" smooth="yes"/>
      <point x="1007" y="482"/>
      <point x="946" y="546"/>
      <point x="812" y="546" type="curve" smooth="yes"/>
      <point x="697" y="546"/>
      <point x="644" y="492"/>
      <point x="621" y="453" type="curve"/>
      <point x="616" y="453" type="line"/>
      <point x="595" y="499"/>
      <point x="553" y="546"/>
      <point x="444" y="546" type="curve" smooth="yes"/>
      <point x="349" y="546"/>
      <point x="285" y="509"/>
      <point x="256" y="452" type="curve"/>
      <point x="249" y="452" type="line"/>
      <point x="241" y="536" type="line"/>
      <point x="48" y="536" type="line"/>
      <point x="48" y="500" type="line"/>
      <point x="70" y="500" type="line" smooth="yes"/>
      <point x="127" y="500"/>
      <point x="144" y="496"/>
      <point x="144" y="437" type="curve" smooth="yes"/>
      <point x="144" y="107" type="line" smooth="yes"/>
      <point x="144" y="43"/>
      <point x="131" y="38"/>
      <point x="60" y="38" type="curve" smooth="yes"/>
      <point x="36" y="38" type="line"/>
    </contour>
  </outline>
</glyph>
<glyph name="u" format="2">
  <advance width="763"/>
  <unicode hex="0075"/>
  <anchor x="383" y="0" name="bottom"/>
  <anchor x="383" y="536" name="top"/>
  <anchor x="679" y="536" name="topright"/>
  <outline>
    <contour>
      <point x="328" y="-10" type="curve" smooth="yes"/>
      <point x="432" y="-10"/>
      <point x="490" y="40"/>
      <point x="521" y="87" type="curve"/>
      <point x="526" y="87" type="line"/>
      <point x="541" y="0" type="line"/>
      <point x="737" y="0" type="line"/>
      <point x="737" y="38" type="line"/>
      <point x="694" y="38" type="line"/>
      <point x="645" y="38"/>
      <point x="630" y="43"/>
      <point x="630" y="102" type="curve" smooth="yes"/>
      <point x="630" y="536" type="line"/>
      <point x="426" y="536" type="line"/>
      <point x="426" y="498" type="line"/>
      <point x="448" y="498" type="line" smooth="yes"/>
      <point x="509" y="498"/>
      <point x="523" y="495"/>
      <point x="523" y="441" type="curve" smooth="yes"/>
      <point x="523" y="217" type="line" smooth="yes"/>
      <point x="523" y="123"/>
      <point x="468" y="49"/>
      <point x="363" y="49" type="curve" smooth="yes"/>
      <point x="256" y="49"/>
      <point x="237" y="131"/>
      <point x="237" y="206" type="curve" smooth="yes"/>
      <point x="237" y="536" type="line"/>
      <point x="24" y="536" type="line"/>
      <point x="24" y="498" type="line"/>
      <point x="54" y="498" type="line" smooth="yes"/>
      <point x="127" y="498"/>
      <point x="130" y="489"/>
      <point x="130" y="423" type="curve" smooth="yes"/>
      <point x="130" y="186" type="line" smooth="yes"/>
      <point x="130" y="59"/>
      <point x="187" y="-10"/>
    </contour>
  </outline>
</glyph>
<glyph name="v" format="2">
  <advance width="695"/>
  <unicode hex="0076"/>
  <anchor x="352" y="0" name="bottom"/>
  <anchor x="352" y="536" name="top"/>
  <anchor x="699" y="536" name="topright"/>
  <outline>
    <contour>
      <point x="309" y="0" type="line"/>
      <point x="408" y="0" type="line"/>
      <point x="598" y="442" type="line" smooth="yes"/>
      <point x="618" y="490"/>
      <point x="625" y="498"/>
      <point x="677" y="498" type="curve" smooth="yes"/>
      <point x="690" y="498" type="line"/>
      <point x="690" y="536" type="line"/>
      <point x="464" y="536" type="line"/>
      <point x="464" y="498" type="line"/>
      <point x="500" y="498" type="line" smooth="yes"/>
      <point x="539" y="498"/>
      <point x="545" y="486"/>
      <point x="545" y="476" type="curve" smooth="yes"/>
      <point x="545" y="449"/>
      <point x="532" y="425"/>
      <point x="513" y="381" type="curve" smooth="yes"/>
      <point x="437" y="193" type="line" smooth="yes"/>
      <point x="409" y="134"/>
      <point x="392" y="94"/>
      <point x="383" y="72" type="curve"/>
      <point x="372" y="104"/>
      <point x="347" y="149"/>
      <point x="324" y="199" type="curve" smooth="yes"/>
      <point x="235" y="407" type="line" smooth="yes"/>
      <point x="226" y="428"/>
      <point x="210" y="455"/>
      <point x="210" y="473" type="curve" smooth="yes"/>
      <point x="210" y="488"/>
      <point x="215" y="498"/>
      <point x="256" y="498" type="curve" smooth="yes"/>
      <point x="293" y="498" type="line"/>
      <point x="293" y="536" type="line"/>
      <point x="11" y="536" type="line"/>
      <point x="11" y="498" type="line"/>
      <point x="78" y="498"/>
      <point x="86" y="496"/>
      <point x="106" y="452" type="curve" smooth="yes"/>
    </contour>
  </outline>
</glyph>
<glyph name="twosuperior" format="2">
  <advance width="485"/>
  <unicode hex="00B2"/>
  <outline>
    <contour>
      <point x="47" y="388" type="line"/>
      <point x="408" y="388" type="line"/>
      <point x="414" y="509" type="line"/>
      <point x="385" y="509" type="line"/>
      <point x="381" y="473" type="line" smooth="yes"/>
      <point x="378" y="445"/>
      <point x="374" y="445"/>
      <point x="318" y="445" type="curve" smooth="yes"/>
      <point x="112" y="445" type="line"/>
      <point x="260" y="555" type="line" smooth="yes"/>
      <point x="375" y="606"/>
      <point x="405" y="643"/>
      <point x="405" y="710" type="curve" smooth="yes"/>
      <point x="405" y="766"/>
      <point x="359" y="826"/>
      <point x="234" y="826" type="curve" smooth="yes"/>
      <point x="104" y="826"/>
      <point x="65" y="767"/>
      <point x="65" y="740" type="curve" smooth="yes"/>
      <point x="65" y="714"/>
      <point x="80" y="704"/>
      <point x="124" y="704" type="curve"/>
      <point x="124" y="732"/>
      <point x="140" y="786"/>
      <point x="225" y="786" type="curve" smooth="yes"/>
      <point x="303" y="786"/>
      <point x="323" y="745"/>
      <point x="323" y="712" type="curve" smooth="yes"/>
      <point x="323" y="645"/>
      <point x="293" y="629"/>
      <point x="210" y="566" type="curve" smooth="yes"/>
      <point x="47" y="440" type="line"/>
    </contour>
  </outline>
</glyph>
<glyph name="paragraph" format="2">
  <advance width="751"/>
  <unicode hex="00B6"/>
  <outline>
    <contour>
      <point x="210" y="-111" type="line"/>
      <point x="379" y="-111" type="line"/>
      <point x="379" y="721" type="line"/>
      <point x="531" y="721" type="line"/>
      <point x="531" y="-111" type="line"/>
      <point x="700" y="-111" type="line"/>
      <point x="700" y="-73" type="line"/>
      <point x="669" y="-73" type="line" smooth="yes"/>
      <point x="621" y="-73"/>
      <point x="585" y="-60"/>
      <point x="585" y="-12" type="curve" smooth="yes"/>
      <point x="585" y="652" type="line" smooth="yes"/>
      <point x="585" y="711"/>
      <point x="643" y="722"/>
      <point x="682" y="722" type="curve" smooth="yes"/>
      <point x="700" y="722" type="line"/>
      <point x="700" y="760" type="line"/>
      <point x="228" y="760" type="line" smooth="yes"/>
      <point x="105" y="760"/>
      <point x="54" y="689"/>
      <point x="54" y="582" type="curve" smooth="yes"/>
      <point x="54" y="478"/>
      <point x="97" y="386"/>
      <point x="226" y="386" type="curve" smooth="yes"/>
      <point x="325" y="386" type="line"/>
      <point x="325" y="-22" type="line" smooth="yes"/>
      <point x="325" y="-60"/>
      <point x="282" y="-73"/>
      <point x="247" y="-73" type="curve" smooth="yes"/>
      <point x="210" y="-73" type="line"/>
    </contour>
  </outline>
</glyph>
<glyph name="Aring" format="2">
  <advance width="842"/>
  <unicode hex="00C5"/>
  <anchor x="421" y="0" name="bottom"/>
  <anchor x="421" y="883" name="top"/>
  <outline>
    <contour>
      <point x="0" y="0" type="line"/>
      <point x="295" y="0" type="line"/>
      <point x="295" y="38" type="line"/>
      <point x="231" y="38" type="line" smooth="yes"/>
      <point x="195" y="38"/>
      <point x="171" y="41"/>
      <point x="171" y="67" type="curve" smooth="yes"/>
      <point x="171" y="93"/>
      <point x="195" y="153"/>
      <point x="199" y="165" type="curve" smooth="yes"/>
      <point x="233" y="243" type="line"/>
      <point x="556" y="243" type="line"/>
      <point x="591" y="167" type="line" smooth="yes"/>
      <point x="603" y="139"/>
      <point x="619" y="93"/>
      <point x="619" y="68" type="curve" smooth="yes"/>
      <point x="619" y="46"/>
      <point x="606" y="38"/>
      <point x="568" y="38" type="curve" smooth="yes"/>
      <point x="518" y="38" type="line"/>
      <point x="518" y="0" type="line"/>
      <point x="842" y="0" type="line"/>
      <point x="842" y="38" type="line"/>
      <point x="804" y="38" type="line" smooth="yes"/>
      <point x="773" y="38"/>
      <point x="750" y="48"/>
      <point x="730" y="96" type="curve" smooth="yes"/>
      <point x="482" y="681" type="line"/>
      <point x="532" y="692"/>
      <point x="566" y="724"/>
      <point x="566" y="774" type="curve" smooth="yes"/>
      <point x="566" y="845"/>
      <point x="502" y="883"/>
      <point x="421" y="883" type="curve" smooth="yes"/>
      <point x="340" y="883"/>
      <point x="276" y="845"/>
      <point x="276" y="774" type="curve" smooth="yes"/>
      <point x="276" y="726"/>
      <point x="311" y="695"/>
      <point x="359" y="681" type="curve"/>
      <point x="97" y="63" type="line" smooth="yes"/>
      <point x="85" y="44"/>
      <point x="70" y="38"/>
      <point x="31" y="38" type="curve" smooth="yes"/>
      <point x="0" y="38" type="line"/>
    </contour>
    <contour>
      <point x="248" y="287" type="line"/>
      <point x="339" y="495" type="line" smooth="yes"/>
      <point x="354" y="526"/>
      <point x="387" y="620"/>
      <point x="399" y="652" type="curve"/>
      <point x="413" y="603"/>
      <point x="442" y="522"/>
      <point x="456" y="492" type="curve" smooth="yes"/>
      <point x="539" y="287" type="line"/>
    </contour>
    <contour>
      <point x="420" y="701" type="curve" smooth="yes"/>
      <point x="359" y="702"/>
      <point x="319" y="730"/>
      <point x="319" y="774" type="curve" smooth="yes"/>
      <point x="319" y="819"/>
      <point x="362" y="845"/>
      <point x="420" y="845" type="curve" smooth="yes"/>
      <point x="482" y="845"/>
      <point x="523" y="819"/>
      <point x="523" y="774" type="curve" smooth="yes"/>
      <point x="523" y="728"/>
      <point x="482" y="701"/>
    </contour>
  </outline>
</glyph>
<glyph name="oslash" format="2">
  <advance width="690"/>
  <unicode hex="00F8"/>
  <anchor x="345" y="0" name="bottom"/>
  <anchor x="345" y="536" name="top"/>
  <outline>
    <contour>
      <point x="91" y="-40" type="line"/>
      <point x="149" y="-40" type="line"/>
      <point x="197" y="24" type="line"/>
      <point x="236" y="2"/>
      <point x="286" y="-10"/>
      <point x="343" y="-10" type="curve" smooth="yes"/>
      <point x="525" y="-10"/>
      <point x="620" y="85"/>
      <point x="620" y="269" type="curve" smooth="yes"/>
      <point x="620" y="375"/>
      <point x="590" y="446"/>
      <point x="535" y="492" type="curve"/>
      <point x="599" y="576" type="line"/>
      <point x="544" y="576" type="line"/>
      <point x="496" y="515" type="line"/>
      <point x="456" y="536"/>
      <point x="406" y="546"/>
      <point x="349" y="546" type="curve" smooth="yes"/>
      <point x="168" y="546"/>
      <point x="68" y="458"/>
      <point x="68" y="269" type="curve" smooth="yes"/>
      <point x="68" y="168"/>
      <point x="100" y="93"/>
      <point x="156" y="48" type="curve"/>
    </contour>
    <contour>
      <point x="343" y="36" type="curve" smooth="yes"/>
      <point x="294" y="36"/>
      <point x="259" y="51"/>
      <point x="232" y="79" type="curve"/>
      <point x="478" y="404" type="line"/>
      <point x="502" y="372"/>
      <point x="513" y="327"/>
      <point x="513" y="267" type="curve" smooth="yes"/>
      <point x="513" y="130"/>
      <point x="469" y="36"/>
    </contour>
    <contour>
      <point x="211" y="132" type="line"/>
      <point x="188" y="166"/>
      <point x="176" y="213"/>
      <point x="176" y="269" type="curve" smooth="yes"/>
      <point x="174" y="423"/>
      <point x="227" y="500"/>
      <point x="350" y="500" type="curve" smooth="yes"/>
      <point x="398" y="500"/>
      <point x="432" y="487"/>
      <point x="459" y="459" type="curve"/>
    </contour>
  </outline>
</glyph>
<glyph name="Hbar" format="2">
  <advance width="954"/>
  <unicode hex="0126"/>
  <anchor x="477" y="0" name="bottom"/>
  <anchor x="477" y="714" name="top"/>
  <outline>
    <contour>
      <point x="47" y="0" type="line"/>
      <point x="382" y="0" type="line"/>
      <point x="382" y="38" type="line"/>
      <point x="323" y="38" type="line" smooth="yes"/>
      <point x="284" y="38"/>
      <point x="275" y="55"/>
      <point x="275" y="109" type="curve" smooth="yes"/>
      <point x="275" y="351" type="line"/>
      <point x="680" y="351" type="line"/>
      <point x="680" y="112" type="line" smooth="yes"/>
      <point x="680" y="55"/>
      <point x="669" y="38"/>
      <point x="628" y="38" type="curve" smooth="yes"/>
      <point x="573" y="38" type="line"/>
      <point x="573" y="0" type="line"/>
      <point x="906" y="0" type="line"/>
      <point x="906" y="38" type="line"/>
      <point x="840" y="38" type="line" smooth="yes"/>
      <point x="801" y="38"/>
      <point x="789" y="55"/>
      <point x="789" y="110" type="curve" smooth="yes"/>
      <point x="789" y="512" type="line"/>
      <point x="903" y="512" type="line"/>
      <point x="903" y="551" type="line"/>
      <point x="789" y="551" type="line"/>
      <point x="789" y="603" type="line" smooth="yes"/>
      <point x="789" y="662"/>
      <point x="800" y="676"/>
      <point x="840" y="676" type="curve" smooth="yes"/>
      <point x="906" y="676" type="line"/>
      <point x="906" y="714" type="line"/>
      <point x="573" y="714" type="line"/>
      <point x="573" y="676" type="line"/>
      <point x="625" y="676" type="line" smooth="yes"/>
      <point x="671" y="676"/>
      <point x="680" y="662"/>
      <point x="680" y="603" type="curve" smooth="yes"/>
      <point x="680" y="551" type="line"/>
      <point x="275" y="551" type="line"/>
      <point x="275" y="604" type="line" smooth="yes"/>
      <point x="275" y="662"/>
      <point x="284" y="676"/>
      <point x="324" y="676" type="curve" smooth="yes"/>
      <point x="382" y="676" type="line"/>
      <point x="382" y="714" type="line"/>
      <point x="47" y="714" type="line"/>
      <point x="47" y="676" type="line"/>
      <point x="106" y="676" type="line" smooth="yes"/>
      <point x="155" y="676"/>
      <point x="166" y="662"/>
      <point x="166" y="602" type="curve" smooth="yes"/>
      <point x="166" y="551" type="line"/>
      <point x="51" y="551" type="line"/>
      <point x="51" y="512" type="line"/>
      <point x="166" y="512" type="line"/>
      <point x="166" y="109" type="line" smooth="yes"/>
      <point x="166" y="55"/>
      <point x="153" y="38"/>
      <point x="117" y="38" type="curve" smooth="yes"/>
      <point x="47" y="38" type="line"/>
    </contour>
    <contour>
      <point x="275" y="395" type="line"/>
      <point x="275" y="512" type="line"/>
      <point x="680" y="512" type="line"/>
      <point x="680" y="395" type="line"/>
    </contour>
  </outline>
</glyph>
<glyph name="hbar" format="2">
  <advance width="762"/>
  <unicode hex="0127"/>
  <anchor x="382" y="0" name="bottom"/>
  <anchor x="382" y="760" name="top"/>
  <outline>
    <contour>
      <point x="22" y="0" type="line"/>
      <point x="344" y="0" type="line"/>
      <point x="344" y="38" type="line"/>
      <point x="318" y="38" type="line" smooth="yes"/>
      <point x="251" y="38"/>
      <point x="240" y="44"/>
      <point x="240" y="107" type="curve" smooth="yes"/>
      <point x="240" y="292" type="line" smooth="yes"/>
      <point x="240" y="394"/>
      <point x="300" y="460"/>
      <point x="401" y="460" type="curve" smooth="yes"/>
      <point x="486" y="460"/>
      <point x="524" y="415"/>
      <point x="524" y="310" type="curve" smooth="yes"/>
      <point x="524" y="0" type="line"/>
      <point x="732" y="0" type="line"/>
      <point x="732" y="38" type="line"/>
      <point x="712" y="38" type="line" smooth="yes"/>
      <point x="641" y="38"/>
      <point x="631" y="41"/>
      <point x="631" y="111" type="curve" smooth="yes"/>
      <point x="631" y="333" type="line" smooth="yes"/>
      <point x="631" y="468"/>
      <point x="568" y="518"/>
      <point x="439" y="518" type="curve" smooth="yes"/>
      <point x="313" y="518"/>
      <point x="263" y="465"/>
      <point x="241" y="417" type="curve"/>
      <point x="235" y="417" type="line"/>
      <point x="238" y="438"/>
      <point x="240" y="466"/>
      <point x="240" y="493" type="curve" smooth="yes"/>
      <point x="240" y="592" type="line"/>
      <point x="444" y="592" type="line"/>
      <point x="444" y="631" type="line"/>
      <point x="240" y="631" type="line"/>
      <point x="240" y="760" type="line"/>
      <point x="22" y="760" type="line"/>
      <point x="22" y="722" type="line"/>
      <point x="55" y="722" type="line" smooth="yes"/>
      <point x="111" y="722"/>
      <point x="132" y="720"/>
      <point x="132" y="652" type="curve" smooth="yes"/>
      <point x="132" y="631" type="line"/>
      <point x="23" y="631" type="line"/>
      <point x="23" y="592" type="line"/>
      <point x="132" y="592" type="line"/>
      <point x="132" y="108" type="line" smooth="yes"/>
      <point x="132" y="43"/>
      <point x="117" y="38"/>
      <point x="47" y="38" type="curve" smooth="yes"/>
      <point x="22" y="38" type="line"/>
    </contour>
  </outline>
</glyph>
<glyph name="kgreenlandic" format="2">
  <advance width="696"/>
  <unicode hex="0138"/>
  <anchor x="348" y="0" name="bottom"/>
  <anchor x="348" y="536" name="top"/>
  <outline>
    <contour>
      <point x="23" y="0" type="line"/>
      <point x="343" y="0" type="line"/>
      <point x="343" y="38" type="line"/>
      <point x="318" y="38" type="line" smooth="yes"/>
      <point x="263" y="38"/>
      <point x="240" y="43"/>
      <point x="240" y="107" type="curve" smooth="yes"/>
      <point x="240" y="185" type="line"/>
      <point x="333" y="260" type="line"/>
      <point x="452" y="103" type="line" smooth="yes"/>
      <point x="525" y="7"/>
      <point x="554" y="0"/>
      <point x="678" y="0" type="curve" smooth="yes"/>
      <point x="698" y="0" type="line"/>
      <point x="698" y="38" type="line"/>
      <point x="695" y="38" type="line" smooth="yes"/>
      <point x="658" y="38"/>
      <point x="614" y="56"/>
      <point x="559" y="126" type="curve" smooth="yes"/>
      <point x="406" y="323" type="line"/>
      <point x="525" y="435" type="line" smooth="yes"/>
      <point x="583" y="480"/>
      <point x="600" y="500"/>
      <point x="662" y="500" type="curve"/>
      <point x="662" y="536" type="line"/>
      <point x="413" y="536" type="line"/>
      <point x="413" y="500" type="line"/>
      <point x="475" y="500"/>
      <point x="491" y="493"/>
      <point x="491" y="477" type="curve" smooth="yes"/>
      <point x="491" y="456"/>
      <point x="442" y="416"/>
      <point x="393" y="378" type="curve" smooth="yes"/>
      <point x="237" y="243" type="line"/>
      <point x="235" y="285"/>
      <point x="240" y="320"/>
      <point x="240" y="375" type="curve" smooth="yes"/>
      <point x="240" y="536" type="line"/>
      <point x="23" y="536" type="line"/>
      <point x="23" y="498" type="line"/>
      <point x="66" y="498" type="line" smooth="yes"/>
      <point x="106" y="498"/>
      <point x="133" y="493"/>
      <point x="133" y="433" type="curve" smooth="yes"/>
      <point x="133" y="104" type="line" smooth="yes"/>
      <point x="133" y="42"/>
      <point x="110" y="38"/>
      <point x="52" y="38" type="curve" smooth="yes"/>
      <point x="23" y="38" type="line"/>
    </contour>
  </outline>
</glyph>
<glyph name="uni0180" format="2">
  <advance width="735"/>
  <unicode hex="0180"/>
  <anchor x="367" y="0" name="bottom"/>
  <anchor x="367" y="760" name="top"/>
  <outline>
    <contour>
      <point x="426" y="-10" type="curve" smooth="yes"/>
      <point x="577" y="-10"/>
      <point x="668" y="90"/>
      <point x="668" y="256" type="curve" smooth="yes"/>
      <point x="668" y="439"/>
      <point x="594" y="521"/>
      <point x="438" y="521" type="curve" smooth="yes"/>
      <point x="335" y="521"/>
      <point x="270" y="482"/>
      <point x="238" y="409" type="curve"/>
      <point x="230" y="409" type="line"/>
      <point x="238" y="463"/>
      <point x="240" y="507"/>
      <point x="240" y="545" type="curve" smooth="yes"/>
      <point x="240" y="595" type="line"/>
      <point x="444" y="595" type="line"/>
      <point x="444" y="634" type="line"/>
      <point x="240" y="634" type="line"/>
      <point x="240" y="760" type="line"/>
      <point x="23" y="760" type="line"/>
      <point x="23" y="722" type="line"/>
      <point x="57" y="722" type="line" smooth="yes"/>
      <point x="114" y="722"/>
      <point x="133" y="716"/>
      <point x="133" y="652" type="curve" smooth="yes"/>
      <point x="133" y="634" type="line"/>
      <point x="27" y="634" type="line"/>
      <point x="27" y="595" type="line"/>
      <point x="133" y="595" type="line"/>
      <point x="133" y="114" type="line" smooth="yes"/>
      <point x="133" y="42"/>
      <point x="114" y="38"/>
      <point x="45" y="38" type="curve" smooth="yes"/>
      <point x="23" y="38" type="line"/>
      <point x="23" y="0" type="line"/>
      <point x="209" y="0" type="line"/>
      <point x="228" y="95" type="line"/>
      <point x="233" y="95" type="line"/>
      <point x="266" y="25"/>
      <point x="341" y="-10"/>
    </contour>
    <contour>
      <point x="402" y="41" type="curve" smooth="yes"/>
      <point x="269" y="41"/>
      <point x="239" y="131"/>
      <point x="239" y="257" type="curve" smooth="yes"/>
      <point x="239" y="383"/>
      <point x="283" y="471"/>
      <point x="400" y="471" type="curve" smooth="yes"/>
      <point x="517" y="471"/>
      <point x="560" y="407"/>
      <point x="560" y="258" type="curve" smooth="yes"/>
      <point x="560" y="130"/>
      <point x="506" y="41"/>
    </contour>
  </outline>
</glyph>
<glyph name="uni018B" format="2">
  <advance width="719"/>
  <unicode hex="018B"/>
  <anchor x="360" y="0" name="bottom"/>
  <anchor x="360" y="714" name="top"/>
  <outline>
    <contour>
      <point x="350" y="0" type="curve" smooth="yes"/>
      <point x="666" y="0" type="line"/>
      <point x="666" y="38" type="line"/>
      <point x="605" y="38" type="line" smooth="yes"/>
      <point x="560" y="38"/>
      <point x="549" y="55"/>
      <point x="549" y="117" type="curve" smooth="yes"/>
      <point x="549" y="599" type="line" smooth="yes"/>
      <point x="549" y="664"/>
      <point x="559" y="676"/>
      <point x="604" y="676" type="curve" smooth="yes"/>
      <point x="666" y="676" type="line"/>
      <point x="666" y="714" type="line"/>
      <point x="99" y="715" type="line"/>
      <point x="93" y="532" type="line"/>
      <point x="141" y="532" type="line"/>
      <point x="146" y="588" type="line" smooth="yes"/>
      <point x="151" y="647"/>
      <point x="171" y="670"/>
      <point x="207" y="670" type="curve" smooth="yes"/>
      <point x="439" y="670" type="line"/>
      <point x="439" y="397" type="line"/>
      <point x="307" y="397" type="line" smooth="yes"/>
      <point x="119" y="397"/>
      <point x="32" y="329"/>
      <point x="32" y="195" type="curve" smooth="yes"/>
      <point x="32" y="58"/>
      <point x="141" y="0"/>
    </contour>
    <contour>
      <point x="357" y="44" type="line" smooth="yes"/>
      <point x="217" y="44"/>
      <point x="149" y="87"/>
      <point x="149" y="198" type="curve" smooth="yes"/>
      <point x="149" y="314"/>
      <point x="216" y="353"/>
      <point x="343" y="353" type="curve" smooth="yes"/>
      <point x="440" y="353" type="line"/>
      <point x="440" y="44" type="line"/>
    </contour>
  </outline>
</glyph>
<glyph name="uni0191" format="2">
  <advance width="706"/>
  <unicode hex="0191"/>
  <anchor x="353" y="-240" name="bottom"/>
  <anchor x="353" y="714" name="top"/>
  <outline>
    <contour>
      <point x="-25" y="-240" type="line"/>
      <point x="-6" y="-240" type="line" smooth="yes"/>
      <point x="185" y="-240"/>
      <point x="275" y="-188"/>
      <point x="275" y="25" type="curve" smooth="yes"/>
      <point x="275" y="329" type="line"/>
      <point x="566" y="329" type="line"/>
      <point x="566" y="372" type="line"/>
      <point x="275" y="372" type="line"/>
      <point x="275" y="670" type="line"/>
      <point x="536" y="670" type="line" smooth="yes"/>
      <point x="584" y="670"/>
      <point x="594" y="652"/>
      <point x="600" y="584" type="curve" smooth="yes"/>
      <point x="603" y="538" type="line"/>
      <point x="653" y="538" type="line"/>
      <point x="648" y="714" type="line"/>
      <point x="48" y="714" type="line"/>
      <point x="48" y="676" type="line"/>
      <point x="112" y="676" type="line" smooth="yes"/>
      <point x="154" y="676"/>
      <point x="166" y="663"/>
      <point x="166" y="604" type="curve" smooth="yes"/>
      <point x="166" y="15" type="line" smooth="yes"/>
      <point x="166" y="-134"/>
      <point x="122" y="-200"/>
      <point x="-12" y="-200" type="curve" smooth="yes"/>
      <point x="-25" y="-200" type="line"/>
    </contour>
  </outline>
</glyph>
<glyph name="uni0196" format="2">
  <advance width="437"/>
  <unicode hex="0196"/>
  <anchor x="219" y="0" name="bottom"/>
  <anchor x="219" y="714" name="top"/>
  <outline>
    <contour>
      <point x="286" y="-10" type="curve" smooth="yes"/>
      <point x="332" y="-10"/>
      <point x="359" y="-5"/>
      <point x="382" y="-2" type="curve"/>
      <point x="382" y="44" type="line"/>
      <point x="366" y="41"/>
      <point x="350" y="38"/>
      <point x="326" y="38" type="curve" smooth="yes"/>
      <point x="270" y="38"/>
      <point x="270" y="61"/>
      <point x="270" y="110" type="curve" smooth="yes"/>
      <point x="270" y="599" type="line" smooth="yes"/>
      <point x="270" y="666"/>
      <point x="283" y="676"/>
      <point x="328" y="676" type="curve" smooth="yes"/>
      <point x="383" y="676" type="line"/>
      <point x="383" y="714" type="line"/>
      <point x="45" y="714" type="line"/>
      <point x="45" y="676" type="line"/>
      <point x="108" y="676" type="line" smooth="yes"/>
      <point x="146" y="676"/>
      <point x="161" y="666"/>
      <point x="161" y="599" type="curve" smooth="yes"/>
      <point x="161" y="128" type="line" smooth="yes"/>
      <point x="161" y="33"/>
      <point x="185" y="-10"/>
    </contour>
  </outline>
</glyph>
<glyph name="uni0198" format="2">
  <advance width="840"/>
  <unicode hex="0198"/>
  <anchor x="420" y="0" name="bottom"/>
  <anchor x="420" y="714" name="top"/>
  <outline>
    <contour>
      <point x="48" y="0" type="line"/>
      <point x="382" y="0" type="line"/>
      <point x="382" y="38" type="line"/>
      <point x="333" y="38" type="line" smooth="yes"/>
      <point x="288" y="38"/>
      <point x="275" y="52"/>
      <point x="275" y="106" type="curve" smooth="yes"/>
      <point x="275" y="235" type="line"/>
      <point x="386" y="341" type="line"/>
      <point x="612" y="127" type="line" smooth="yes"/>
      <point x="705" y="26"/>
      <point x="735" y="0"/>
      <point x="827" y="0" type="curve" smooth="yes"/>
      <point x="875" y="0" type="line"/>
      <point x="875" y="44" type="line"/>
      <point x="873" y="44" type="line" smooth="yes"/>
      <point x="838" y="44"/>
      <point x="810" y="58"/>
      <point x="744" y="125" type="curve" smooth="yes"/>
      <point x="457" y="415" type="line"/>
      <point x="617" y="584" type="line" smooth="yes"/>
      <point x="670" y="641"/>
      <point x="693" y="654"/>
      <point x="724" y="654" type="curve" smooth="yes"/>
      <point x="752" y="654"/>
      <point x="772" y="640"/>
      <point x="783" y="608" type="curve"/>
      <point x="805" y="606"/>
      <point x="831" y="623"/>
      <point x="831" y="651" type="curve" smooth="yes"/>
      <point x="831" y="687"/>
      <point x="806" y="722"/>
      <point x="737" y="722" type="curve" smooth="yes"/>
      <point x="680" y="722"/>
      <point x="652" y="707"/>
      <point x="611" y="667" type="curve" smooth="yes"/>
      <point x="275" y="289" type="line"/>
      <point x="275" y="604" type="line" smooth="yes"/>
      <point x="275" y="662"/>
      <point x="284" y="676"/>
      <point x="330" y="676" type="curve" smooth="yes"/>
      <point x="380" y="676" type="line"/>
      <point x="380" y="714" type="line"/>
      <point x="48" y="714" type="line"/>
      <point x="48" y="676" type="line"/>
      <point x="111" y="676" type="line" smooth="yes"/>
      <point x="155" y="676"/>
      <point x="166" y="662"/>
      <point x="166" y="604" type="curve" smooth="yes"/>
      <point x="166" y="110" type="line" smooth="yes"/>
      <point x="166" y="52"/>
      <point x="152" y="38"/>
      <point x="107" y="38" type="curve" smooth="yes"/>
      <point x="48" y="38" type="line"/>
    </contour>
  </outline>
</glyph>
<glyph name="uni019B" format="2">
  <advance width="640"/>
  <unicode hex="019B"/>
  <anchor x="320" y="0" name="bottom"/>
  <anchor x="320" y="778" name="top"/>
  <outline>
    <contour>
      <point x="10" y="0" type="line"/>
      <point x="125" y="0" type="line"/>
      <point x="270" y="251" type="line" smooth="yes"/>
      <point x="300" y="306"/>
      <point x="337" y="380"/>
      <point x="355" y="411" type="curve"/>
      <point x="359" y="411" type="line"/>
      <point x="386" y="311"/>
      <point x="398" y="308"/>
      <point x="436" y="158" type="curve"/>
      <point x="465" y="36"/>
      <point x="501" y="0"/>
      <point x="603" y="0" type="curve" smooth="yes"/>
      <point x="635" y="0" type="line"/>
      <point x="635" y="44" type="line"/>
      <point x="629" y="44" type="line" smooth="yes"/>
      <point x="573" y="44"/>
      <point x="529" y="53"/>
      <point x="493" y="154" type="curve" smooth="yes"/>
      <point x="373" y="550" type="line" smooth="yes"/>
      <point x="363" y="581"/>
      <point x="352" y="610"/>
      <point x="340" y="635" type="curve"/>
      <point x="461" y="695" type="line"/>
      <point x="461" y="747" type="line"/>
      <point x="320" y="675" type="line"/>
      <point x="273" y="760"/>
      <point x="220" y="770"/>
      <point x="154" y="770" type="curve" smooth="yes"/>
      <point x="101" y="770"/>
      <point x="52" y="746"/>
      <point x="52" y="713" type="curve" smooth="yes"/>
      <point x="52" y="689"/>
      <point x="66" y="683"/>
      <point x="76" y="675" type="curve"/>
      <point x="94" y="704"/>
      <point x="127" y="722"/>
      <point x="171" y="719" type="curve" smooth="yes"/>
      <point x="213" y="717"/>
      <point x="242" y="691"/>
      <point x="268" y="648" type="curve"/>
      <point x="159" y="594" type="line"/>
      <point x="159" y="543" type="line"/>
      <point x="291" y="609" type="line"/>
      <point x="302" y="587"/>
      <point x="312" y="560"/>
      <point x="324" y="529" type="curve"/>
    </contour>
  </outline>
</glyph>
<glyph name="uni019E" format="2">
  <advance width="776"/>
  <unicode hex="019E"/>
  <anchor x="389" y="-240" name="bottom"/>
  <anchor x="389" y="536" name="top"/>
  <outline>
    <contour>
      <point x="433" y="-240" type="line"/>
      <point x="746" y="-240" type="line"/>
      <point x="746" y="-202" type="line"/>
      <point x="710" y="-202" type="line" smooth="yes"/>
      <point x="655" y="-202"/>
      <point x="647" y="-195"/>
      <point x="647" y="-125" type="curve" smooth="yes"/>
      <point x="647" y="356" type="line" smooth="yes"/>
      <point x="647" y="487"/>
      <point x="579" y="546"/>
      <point x="451" y="546" type="curve" smooth="yes"/>
      <point x="362" y="546"/>
      <point x="300" y="526"/>
      <point x="255" y="454" type="curve"/>
      <point x="249" y="454" type="line"/>
      <point x="242" y="536" type="line"/>
      <point x="42" y="536" type="line"/>
      <point x="42" y="498" type="line"/>
      <point x="74" y="498" type="line" smooth="yes"/>
      <point x="123" y="498"/>
      <point x="145" y="494"/>
      <point x="145" y="439" type="curve" smooth="yes"/>
      <point x="145" y="108" type="line" smooth="yes"/>
      <point x="145" y="46"/>
      <point x="133" y="38"/>
      <point x="69" y="38" type="curve" smooth="yes"/>
      <point x="36" y="38" type="line"/>
      <point x="36" y="0" type="line"/>
      <point x="352" y="0" type="line"/>
      <point x="352" y="38" type="line"/>
      <point x="328" y="38" type="line" smooth="yes"/>
      <point x="262" y="38"/>
      <point x="252" y="44"/>
      <point x="252" y="107" type="curve" smooth="yes"/>
      <point x="252" y="319" type="line" smooth="yes"/>
      <point x="252" y="379"/>
      <point x="270" y="487"/>
      <point x="409" y="487" type="curve" smooth="yes"/>
      <point x="507" y="487"/>
      <point x="540" y="428"/>
      <point x="540" y="343" type="curve" smooth="yes"/>
      <point x="540" y="-126" type="line" smooth="yes"/>
      <point x="540" y="-195"/>
      <point x="531" y="-202"/>
      <point x="475" y="-202" type="curve" smooth="yes"/>
      <point x="433" y="-202" type="line"/>
    </contour>
  </outline>
</glyph>
<glyph name="Ohorn" format="2">
  <advance width="947"/>
  <unicode hex="01A0"/>
  <anchor x="474" y="0" name="bottom"/>
  <anchor x="474" y="714" name="top"/>
  <outline>
    <contour>
      <point x="445" y="-10" type="curve" smooth="yes"/>
      <point x="709" y="-10"/>
      <point x="818" y="142"/>
      <point x="818" y="358" type="curve" smooth="yes"/>
      <point x="818" y="419"/>
      <point x="809" y="476"/>
      <point x="787" y="524" type="curve"/>
      <point x="865" y="533"/>
      <point x="939" y="588"/>
      <point x="939" y="683" type="curve" smooth="yes"/>
      <point x="939" y="740"/>
      <point x="913" y="770"/>
      <point x="877" y="770" type="curve" smooth="yes"/>
      <point x="852" y="770"/>
      <point x="827" y="756"/>
      <point x="827" y="730" type="curve" smooth="yes"/>
      <point x="827" y="680"/>
      <point x="876" y="685"/>
      <point x="876" y="645" type="curve" smooth="yes"/>
      <point x="876" y="598"/>
      <point x="821" y="554"/>
      <point x="774" y="556" type="curve"/>
      <point x="720" y="661"/>
      <point x="613" y="725"/>
      <point x="446" y="725" type="curve" smooth="yes"/>
      <point x="198" y="725"/>
      <point x="68" y="585"/>
      <point x="68" y="359" type="curve" smooth="yes"/>
      <point x="68" y="123"/>
      <point x="194" y="-10"/>
    </contour>
    <contour>
      <point x="445" y="36" type="curve" smooth="yes"/>
      <point x="265" y="36"/>
      <point x="182" y="150"/>
      <point x="182" y="358" type="curve" smooth="yes"/>
      <point x="182" y="560"/>
      <point x="269" y="679"/>
      <point x="446" y="679" type="curve" smooth="yes"/>
      <point x="634" y="679"/>
      <point x="704" y="560"/>
      <point x="704" y="358" type="curve" smooth="yes"/>
      <point x="704" y="156"/>
      <point x="635" y="36"/>
    </contour>
  </outline>
</glyph>
<glyph name="uni01A3" format="2">
  <advance width="1022"/>
  <unicode hex="01A3"/>
  <anchor x="511" y="-240" name="bottom"/>
  <anchor x="511" y="536" name="top"/>
  <outline>
    <contour>
      <point x="783" y="-240" type="line"/>
      <point x="991" y="-240" type="line"/>
      <point x="991" y="-201" type="line"/>
      <point x="938" y="-201" type="line" smooth="yes"/>
      <point x="904" y="-201"/>
      <point x="890" y="-196"/>
      <point x="890" y="-125" type="curve" smooth="yes"/>
      <point x="890" y="357" type="line" smooth="yes"/>
      <point x="890" y="503"/>
      <point x="849" y="546"/>
      <point x="730" y="546" type="curve" smooth="yes"/>
      <point x="652" y="546"/>
      <point x="589" y="518"/>
      <point x="573" y="422" type="curve"/>
      <point x="569" y="422" type="line"/>
      <point x="529" y="507"/>
      <point x="453" y="546"/>
      <point x="340" y="546" type="curve" smooth="yes"/>
      <point x="159" y="546"/>
      <point x="68" y="451"/>
      <point x="68" y="269" type="curve" smooth="yes"/>
      <point x="68" y="85"/>
      <point x="171" y="-10"/>
      <point x="333" y="-10" type="curve" smooth="yes"/>
      <point x="511" y="-10"/>
      <point x="601" y="86"/>
      <point x="601" y="272" type="curve" smooth="yes"/>
      <point x="601" y="335" type="line" smooth="yes"/>
      <point x="602" y="482"/>
      <point x="653" y="487"/>
      <point x="695" y="487" type="curve" smooth="yes"/>
      <point x="770" y="487"/>
      <point x="783" y="454"/>
      <point x="783" y="337" type="curve" smooth="yes"/>
    </contour>
    <contour>
      <point x="333" y="35" type="curve" smooth="yes"/>
      <point x="221" y="35"/>
      <point x="178" y="127"/>
      <point x="177" y="269" type="curve" smooth="yes"/>
      <point x="176" y="419"/>
      <point x="221" y="500"/>
      <point x="339" y="500" type="curve" smooth="yes"/>
      <point x="445" y="500"/>
      <point x="492" y="424"/>
      <point x="492" y="269" type="curve" smooth="yes"/>
      <point x="492" y="141"/>
      <point x="455" y="35"/>
    </contour>
  </outline>
</glyph>
<glyph name="uni01B2" format="2">
  <advance width="852"/>
  <unicode hex="01B2"/>
  <anchor x="427" y="0" name="bottom"/>
  <anchor x="427" y="714" name="top"/>
  <outline>
    <contour>
      <point x="364" y="-10" type="curve" smooth="yes"/>
      <point x="640" y="-10"/>
      <point x="775" y="208"/>
      <point x="775" y="509" type="curve" smooth="yes"/>
      <point x="775" y="633"/>
      <point x="734" y="726"/>
      <point x="627" y="726" type="curve" smooth="yes"/>
      <point x="580" y="726"/>
      <point x="551" y="711"/>
      <point x="549" y="673" type="curve"/>
      <point x="667" y="673"/>
      <point x="716" y="624"/>
      <point x="716" y="496" type="curve" smooth="yes"/>
      <point x="716" y="197"/>
      <point x="582" y="38"/>
      <point x="388" y="38" type="curve" smooth="yes"/>
      <point x="303" y="38"/>
      <point x="243" y="82"/>
      <point x="243" y="158" type="curve" smooth="yes"/>
      <point x="243" y="599" type="line" smooth="yes"/>
      <point x="243" y="666"/>
      <point x="257" y="676"/>
      <point x="309" y="676" type="curve" smooth="yes"/>
      <point x="356" y="676" type="line"/>
      <point x="356" y="714" type="line"/>
      <point x="18" y="714" type="line"/>
      <point x="18" y="676" type="line"/>
      <point x="71" y="676" type="line" smooth="yes"/>
      <point x="116" y="676"/>
      <point x="133" y="666"/>
      <point x="133" y="599" type="curve" smooth="yes"/>
      <point x="133" y="214" type="line" smooth="yes"/>
      <point x="133" y="57"/>
      <point x="222" y="-10"/>
    </contour>
  </outline>
</glyph>
<glyph name="uni01BA" format="2">
  <advance width="600"/>
  <unicode hex="01BA"/>
  <anchor x="301" y="-240" name="bottom"/>
  <anchor x="301" y="536" name="top"/>
  <outline>
    <contour>
      <point x="271" y="-240" type="curve" smooth="yes"/>
      <point x="396" y="-240"/>
      <point x="516" y="-206"/>
      <point x="516" y="-137" type="curve" smooth="yes"/>
      <point x="516" y="-119"/>
      <point x="506" y="-111"/>
      <point x="498" y="-105" type="curve"/>
      <point x="478" y="-137"/>
      <point x="404" y="-194"/>
      <point x="275" y="-194" type="curve" smooth="yes"/>
      <point x="153" y="-194"/>
      <point x="127" y="-164"/>
      <point x="127" y="-103" type="curve" smooth="yes"/>
      <point x="127" y="-42"/>
      <point x="211" y="-38"/>
      <point x="291" y="-26" type="curve" smooth="yes"/>
      <point x="396" y="-12"/>
      <point x="547" y="-5"/>
      <point x="547" y="154" type="curve" smooth="yes"/>
      <point x="547" y="245"/>
      <point x="488" y="293"/>
      <point x="284" y="295" type="curve"/>
      <point x="516" y="482" type="line"/>
      <point x="516" y="536" type="line"/>
      <point x="88" y="536" type="line"/>
      <point x="75" y="372" type="line"/>
      <point x="112" y="372" type="line"/>
      <point x="121" y="413" type="line" smooth="yes"/>
      <point x="130" y="456"/>
      <point x="139" y="466"/>
      <point x="189" y="466" type="curve" smooth="yes"/>
      <point x="421" y="466" type="line"/>
      <point x="207" y="285" type="line"/>
      <point x="207" y="247" type="line"/>
      <point x="248" y="247" type="line" smooth="yes"/>
      <point x="367" y="247"/>
      <point x="443" y="217"/>
      <point x="443" y="145" type="curve" smooth="yes"/>
      <point x="443" y="30"/>
      <point x="333" y="30"/>
      <point x="244" y="14" type="curve" smooth="yes"/>
      <point x="131" y="-7"/>
      <point x="54" y="-24"/>
      <point x="54" y="-109" type="curve" smooth="yes"/>
      <point x="54" y="-189"/>
      <point x="102" y="-240"/>
    </contour>
  </outline>
</glyph>
<glyph name="uni01BC" format="2">
  <advance width="694"/>
  <unicode hex="01BC"/>
  <anchor x="347" y="0" name="bottom"/>
  <anchor x="347" y="714" name="top"/>
  <outline>
    <contour>
      <point x="299" y="-10" type="curve" smooth="yes"/>
      <point x="484" y="-10"/>
      <point x="615" y="71"/>
      <point x="615" y="227" type="curve" smooth="yes"/>
      <point x="615" y="365"/>
      <point x="518" y="430"/>
      <point x="370" y="430" type="curve" smooth="yes"/>
      <point x="266" y="430" type="line"/>
      <point x="266" y="670" type="line"/>
      <point x="461" y="670" type="line" smooth="yes"/>
      <point x="518" y="670"/>
      <point x="528" y="667"/>
      <point x="535" y="615" type="curve" smooth="yes"/>
      <point x="543" y="563" type="line"/>
      <point x="585" y="563" type="line"/>
      <point x="582" y="714" type="line"/>
      <point x="45" y="714" type="line"/>
      <point x="45" y="676" type="line"/>
      <point x="71" y="676" type="line" smooth="yes"/>
      <point x="144" y="676"/>
      <point x="159" y="669"/>
      <point x="159" y="620" type="curve" smooth="yes"/>
      <point x="159" y="388" type="line"/>
      <point x="312" y="388" type="line" smooth="yes"/>
      <point x="429" y="388"/>
      <point x="513" y="353"/>
      <point x="513" y="224" type="curve" smooth="yes"/>
      <point x="513" y="126"/>
      <point x="460" y="38"/>
      <point x="301" y="38" type="curve" smooth="yes"/>
      <point x="175" y="38"/>
      <point x="131" y="88"/>
      <point x="132" y="184" type="curve"/>
      <point x="97" y="184"/>
      <point x="66" y="172"/>
      <point x="66" y="119" type="curve" smooth="yes"/>
      <point x="66" y="33"/>
      <point x="168" y="-10"/>
    </contour>
  </outline>
</glyph>
<glyph name="uni01BD" format="2">
  <advance width="583"/>
  <unicode hex="01BD"/>
  <anchor x="292" y="0" name="bottom"/>
  <anchor x="292" y="536" name="top"/>
  <outline>
    <contour>
      <point x="254" y="-10" type="curve" smooth="yes"/>
      <point x="442" y="-10"/>
      <point x="514" y="64"/>
      <point x="514" y="168" type="curve" smooth="yes"/>
      <point x="514" y="286"/>
      <point x="439" y="321"/>
      <point x="296" y="321" type="curve" smooth="yes"/>
      <point x="234" y="321" type="line"/>
      <point x="234" y="495" type="line"/>
      <point x="368" y="495" type="line" smooth="yes"/>
      <point x="413" y="495"/>
      <point x="416" y="488"/>
      <point x="420" y="478" type="curve" smooth="yes"/>
      <point x="427" y="405" type="line"/>
      <point x="466" y="405" type="line"/>
      <point x="466" y="536" type="line"/>
      <point x="49" y="536" type="line"/>
      <point x="49" y="495" type="line"/>
      <point x="117" y="495"/>
      <point x="127" y="488"/>
      <point x="127" y="469" type="curve" smooth="yes"/>
      <point x="127" y="279" type="line"/>
      <point x="249" y="279" type="line" smooth="yes"/>
      <point x="348" y="279"/>
      <point x="409" y="255"/>
      <point x="409" y="162" type="curve" smooth="yes"/>
      <point x="409" y="77"/>
      <point x="363" y="33"/>
      <point x="245" y="33" type="curve" smooth="yes"/>
      <point x="142" y="33"/>
      <point x="111" y="88"/>
      <point x="111" y="143" type="curve"/>
      <point x="86" y="143"/>
      <point x="57" y="132"/>
      <point x="57" y="98" type="curve" smooth="yes"/>
      <point x="57" y="34"/>
      <point x="119" y="-10"/>
    </contour>
  </outline>
</glyph>
<glyph name="uni01C0" format="2">
  <advance width="450"/>
  <unicode hex="01C0"/>
  <anchor x="225" y="0" name="bottom"/>
  <anchor x="225" y="760" name="top"/>
  <outline>
    <contour>
      <point x="191" y="0" type="line"/>
      <point x="258" y="0" type="line"/>
      <point x="258" y="760" type="line"/>
      <point x="191" y="760" type="line"/>
    </contour>
  </outline>
</glyph>
<glyph name="Aringacute" format="2">
  <advance width="842"/>
  <unicode hex="01FA"/>
  <anchor x="421" y="0" name="bottom"/>
  <anchor x="421" y="963" name="top"/>
  <outline>
    <contour>
      <point x="0" y="0" type="line"/>
      <point x="295" y="0" type="line"/>
      <point x="295" y="38" type="line"/>
      <point x="233" y="38" type="line" smooth="yes"/>
      <point x="193" y="38"/>
      <point x="167" y="43"/>
      <point x="167" y="67" type="curve" smooth="yes"/>
      <point x="167" y="94"/>
      <point x="188" y="135"/>
      <point x="193" y="147" type="curve" smooth="yes"/>
      <point x="242" y="249" type="line"/>
      <point x="551" y="249" type="line"/>
      <point x="600" y="149" type="line" smooth="yes"/>
      <point x="608" y="131"/>
      <point x="622" y="92"/>
      <point x="622" y="71" type="curve" smooth="yes"/>
      <point x="622" y="50"/>
      <point x="608" y="38"/>
      <point x="574" y="38" type="curve" smooth="yes"/>
      <point x="518" y="38" type="line"/>
      <point x="518" y="0" type="line"/>
      <point x="842" y="0" type="line"/>
      <point x="842" y="38" type="line"/>
      <point x="794" y="38" type="line" smooth="yes"/>
      <point x="766" y="38"/>
      <point x="747" y="62"/>
      <point x="724" y="113" type="curve" smooth="yes"/>
      <point x="482" y="608" type="line"/>
      <point x="532" y="619"/>
      <point x="567" y="651"/>
      <point x="567" y="700" type="curve" smooth="yes"/>
      <point x="567" y="771"/>
      <point x="503" y="809"/>
      <point x="421" y="809" type="curve" smooth="yes"/>
      <point x="340" y="809"/>
      <point x="276" y="771"/>
      <point x="276" y="700" type="curve" smooth="yes"/>
      <point x="276" y="653"/>
      <point x="311" y="622"/>
      <point x="359" y="608" type="curve"/>
      <point x="115" y="102" type="line" smooth="yes"/>
      <point x="85" y="46"/>
      <point x="82" y="38"/>
      <point x="28" y="38" type="curve" smooth="yes"/>
      <point x="0" y="38" type="line"/>
    </contour>
    <contour>
      <point x="259" y="294" type="line"/>
      <point x="343" y="462" type="line" smooth="yes"/>
      <point x="355" y="481"/>
      <point x="388" y="563"/>
      <point x="399" y="588" type="curve"/>
      <point x="412" y="550"/>
      <point x="442" y="478"/>
      <point x="453" y="460" type="curve" smooth="yes"/>
      <point x="530" y="294" type="line"/>
    </contour>
    <contour>
      <point x="421" y="629" type="curve" smooth="yes"/>
      <point x="358" y="629"/>
      <point x="320" y="655"/>
      <point x="320" y="700" type="curve" smooth="yes"/>
      <point x="320" y="745"/>
      <point x="362" y="771"/>
      <point x="421" y="771" type="curve" smooth="yes"/>
      <point x="482" y="771"/>
      <point x="523" y="745"/>
      <point x="523" y="700" type="curve" smooth="yes"/>
      <point x="523" y="656"/>
      <point x="484" y="629"/>
    </contour>
    <contour>
      <point x="369" y="831" type="line"/>
      <point x="410" y="831" type="line"/>
      <point x="472" y="860"/>
      <point x="557" y="916"/>
      <point x="595" y="954" type="curve"/>
      <point x="595" y="963" type="line"/>
      <point x="480" y="963" type="line"/>
      <point x="452" y="916"/>
      <point x="403" y="873"/>
      <point x="369" y="843" type="curve"/>
    </contour>
  </outline>
</glyph>
<glyph name="uni021D" format="2">
  <advance width="591"/>
  <unicode hex="021D"/>
  <anchor x="305" y="-192" name="bottom"/>
  <anchor x="295" y="536" name="top"/>
  <outline>
    <contour>
      <point x="52" y="-240" type="line"/>
      <point x="366" y="-198"/>
      <point x="545" y="-122"/>
      <point x="545" y="46" type="curve" smooth="yes"/>
      <point x="545" y="143"/>
      <point x="477" y="199"/>
      <point x="381" y="224" type="curve"/>
      <point x="467" y="256"/>
      <point x="525" y="307"/>
      <point x="525" y="392" type="curve" smooth="yes"/>
      <point x="525" y="478"/>
      <point x="455" y="549"/>
      <point x="285" y="549" type="curve" smooth="yes"/>
      <point x="150" y="549"/>
      <point x="68" y="511"/>
      <point x="68" y="448" type="curve" smooth="yes"/>
      <point x="68" y="409"/>
      <point x="95" y="394"/>
      <point x="144" y="394" type="curve"/>
      <point x="144" y="482"/>
      <point x="202" y="508"/>
      <point x="277" y="508" type="curve" smooth="yes"/>
      <point x="363" y="508"/>
      <point x="423" y="469"/>
      <point x="423" y="388" type="curve" smooth="yes"/>
      <point x="423" y="290"/>
      <point x="360" y="255"/>
      <point x="183" y="209" type="curve"/>
      <point x="192" y="167" type="line"/>
      <point x="323" y="205" type="line"/>
      <point x="384" y="177"/>
      <point x="439" y="133"/>
      <point x="439" y="45" type="curve" smooth="yes"/>
      <point x="439" y="-99"/>
      <point x="289" y="-159"/>
      <point x="52" y="-196" type="curve"/>
    </contour>
  </outline>
</glyph>
<glyph name="uni0220" format="2">
  <advance width="937"/>
  <unicode hex="0220"/>
  <anchor x="469" y="-240" name="bottom"/>
  <anchor x="469" y="714" name="top"/>
  <outline>
    <contour>
      <point x="565" y="-240" type="line"/>
      <point x="910" y="-240" type="line"/>
      <point x="910" y="-202" type="line"/>
      <point x="846" y="-202" type="line" smooth="yes"/>
      <point x="806" y="-202"/>
      <point x="792" y="-193"/>
      <point x="792" y="-140" type="curve" smooth="yes"/>
      <point x="792" y="516" type="line" smooth="yes"/>
      <point x="792" y="640"/>
      <point x="710" y="727"/>
      <point x="539" y="727" type="curve" smooth="yes"/>
      <point x="420" y="727"/>
      <point x="343" y="707"/>
      <point x="282" y="636" type="curve"/>
      <point x="274" y="636" type="line"/>
      <point x="262" y="714" type="line"/>
      <point x="42" y="714" type="line"/>
      <point x="42" y="676" type="line"/>
      <point x="99" y="676" type="line" smooth="yes"/>
      <point x="151" y="676"/>
      <point x="166" y="664"/>
      <point x="166" y="600" type="curve" smooth="yes"/>
      <point x="166" y="116" type="line" smooth="yes"/>
      <point x="166" y="50"/>
      <point x="152" y="38"/>
      <point x="104" y="38" type="curve" smooth="yes"/>
      <point x="48" y="38" type="line"/>
      <point x="48" y="0" type="line"/>
      <point x="393" y="0" type="line"/>
      <point x="393" y="38" type="line"/>
      <point x="337" y="38" type="line" smooth="yes"/>
      <point x="289" y="38"/>
      <point x="275" y="50"/>
      <point x="275" y="116" type="curve" smooth="yes"/>
      <point x="275" y="514" type="line" smooth="yes"/>
      <point x="275" y="553"/>
      <point x="311" y="670"/>
      <point x="494" y="670" type="curve" smooth="yes"/>
      <point x="640" y="670"/>
      <point x="682" y="590"/>
      <point x="682" y="481" type="curve" smooth="yes"/>
      <point x="682" y="-136" type="line" smooth="yes"/>
      <point x="682" y="-192"/>
      <point x="670" y="-202"/>
      <point x="627" y="-202" type="curve" smooth="yes"/>
      <point x="565" y="-202" type="line"/>
    </contour>
  </outline>
</glyph>
<glyph name="uni0221" format="2">
  <advance width="876"/>
  <unicode hex="0221"/>
  <anchor x="439" y="0" name="bottom"/>
  <anchor x="439" y="760" name="top"/>
  <outline>
    <contour>
      <point x="543" y="-78" type="line"/>
      <point x="554" y="-33"/>
      <point x="565" y="19"/>
      <point x="577" y="31" type="curve"/>
      <point x="599" y="13"/>
      <point x="635" y="-14"/>
      <point x="719" y="-14" type="curve" smooth="yes"/>
      <point x="840" y="-14"/>
      <point x="896" y="32"/>
      <point x="896" y="91" type="curve" smooth="yes"/>
      <point x="896" y="163"/>
      <point x="845" y="190"/>
      <point x="755" y="190" type="curve" smooth="yes"/>
      <point x="698" y="190"/>
      <point x="648" y="175"/>
      <point x="611" y="149" type="curve"/>
      <point x="611" y="760" type="line"/>
      <point x="392" y="760" type="line"/>
      <point x="392" y="722" type="line"/>
      <point x="430" y="722" type="line" smooth="yes"/>
      <point x="479" y="722"/>
      <point x="503" y="718"/>
      <point x="503" y="656" type="curve" smooth="yes"/>
      <point x="503" y="567" type="line" smooth="yes"/>
      <point x="503" y="538"/>
      <point x="504" y="497"/>
      <point x="504" y="457" type="curve"/>
      <point x="499" y="457" type="line"/>
      <point x="467" y="513"/>
      <point x="401" y="545"/>
      <point x="298" y="545" type="curve" smooth="yes"/>
      <point x="137" y="545"/>
      <point x="68" y="430"/>
      <point x="68" y="267" type="curve" smooth="yes"/>
      <point x="68" y="100"/>
      <point x="155" y="-10"/>
      <point x="308" y="-10" type="curve" smooth="yes"/>
      <point x="414" y="-10"/>
      <point x="478" y="47"/>
      <point x="509" y="114" type="curve"/>
      <point x="511" y="114" type="line"/>
      <point x="515" y="85"/>
      <point x="524" y="58"/>
      <point x="532" y="52" type="curve"/>
      <point x="512" y="23"/>
      <point x="500" y="-2"/>
      <point x="489" y="-66" type="curve"/>
    </contour>
    <contour>
      <point x="333" y="40" type="curve" smooth="yes"/>
      <point x="241" y="37"/>
      <point x="176" y="129"/>
      <point x="176" y="266" type="curve" smooth="yes"/>
      <point x="176" y="397"/>
      <point x="212" y="495"/>
      <point x="331" y="495" type="curve" smooth="yes"/>
      <point x="465" y="495"/>
      <point x="504" y="418"/>
      <point x="504" y="267" type="curve" smooth="yes"/>
      <point x="504" y="136"/>
      <point x="454" y="42"/>
    </contour>
    <contour>
      <point x="743" y="38" type="curve" smooth="yes"/>
      <point x="672" y="38"/>
      <point x="651" y="55"/>
      <point x="614" y="97" type="curve"/>
      <point x="643" y="123"/>
      <point x="697" y="144"/>
      <point x="747" y="144" type="curve" smooth="yes"/>
      <point x="807" y="144"/>
      <point x="840" y="126"/>
      <point x="840" y="95" type="curve" smooth="yes"/>
      <point x="840" y="59"/>
      <point x="799" y="38"/>
    </contour>
  </outline>
</glyph>
<glyph name="uni0234" format="2">
  <advance width="458"/>
  <unicode hex="0234"/>
  <anchor x="229" y="0" name="bottom"/>
  <anchor x="229" y="760" name="top"/>
  <outline>
    <contour>
      <point x="59" y="1" type="line"/>
      <point x="78" y="33"/>
      <point x="108" y="82"/>
      <point x="152" y="120" type="curve"/>
      <point x="167" y="44"/>
      <point x="214" y="-10"/>
      <point x="294" y="-10" type="curve" smooth="yes"/>
      <point x="402" y="-10"/>
      <point x="446" y="49"/>
      <point x="446" y="114" type="curve" smooth="yes"/>
      <point x="446" y="198"/>
      <point x="390" y="232"/>
      <point x="305" y="232" type="curve" smooth="yes"/>
      <point x="280" y="232"/>
      <point x="250" y="226"/>
      <point x="236" y="222" type="curve"/>
      <point x="236" y="760" type="line"/>
      <point x="12" y="760" type="line"/>
      <point x="12" y="722" type="line"/>
      <point x="55" y="722" type="line" smooth="yes"/>
      <point x="104" y="722"/>
      <point x="129" y="717"/>
      <point x="129" y="654" type="curve" smooth="yes"/>
      <point x="129" y="247" type="line" smooth="yes"/>
      <point x="129" y="218"/>
      <point x="130" y="193"/>
      <point x="133" y="171" type="curve"/>
      <point x="82" y="122"/>
      <point x="38" y="70"/>
      <point x="12" y="14" type="curve"/>
    </contour>
    <contour>
      <point x="312" y="38" type="curve" smooth="yes"/>
      <point x="273" y="38"/>
      <point x="236" y="62"/>
      <point x="236" y="178" type="curve"/>
      <point x="250" y="183"/>
      <point x="270" y="187"/>
      <point x="298" y="187" type="curve" smooth="yes"/>
      <point x="349" y="187"/>
      <point x="392" y="164"/>
      <point x="392" y="112" type="curve" smooth="yes"/>
      <point x="392" y="48"/>
      <point x="353" y="38"/>
    </contour>
  </outline>
</glyph>
<glyph name="uni023B" format="2">
  <advance width="733"/>
  <unicode hex="023B"/>
  <anchor x="414" y="0" name="bottom"/>
  <anchor x="414" y="714" name="top"/>
  <anchor x="713" y="714" name="topright"/>
  <outline>
    <contour>
      <point x="202" y="-108" type="line"/>
      <point x="259" y="-108" type="line"/>
      <point x="587" y="760" type="line"/>
      <point x="532" y="760" type="line"/>
    </contour>
    <component base="C"/>
  </outline>
</glyph>
<glyph name="uni023E" format="2">
  <advance width="732"/>
  <unicode hex="023E"/>
  <anchor x="366" y="0" name="bottom"/>
  <anchor x="366" y="714" name="top"/>
  <anchor x="712" y="714" name="topright"/>
  <anchor x="366" y="357" name="center"/>
  <outline>
    <contour>
      <point x="21" y="-82" type="line"/>
      <point x="78" y="-82" type="line"/>
      <point x="681" y="760" type="line"/>
      <point x="626" y="760" type="line"/>
    </contour>
    <component base="T"/>
  </outline>
</glyph>
<glyph name="uni0242" format="2">
  <advance width="628"/>
  <unicode hex="0242"/>
  <anchor x="315" y="0" name="bottom"/>
  <anchor x="315" y="536" name="top"/>
  <outline>
    <contour>
      <point x="136" y="0" type="line"/>
      <point x="460" y="0" type="line"/>
      <point x="460" y="38" type="line"/>
      <point x="410" y="38" type="line" smooth="yes"/>
      <point x="375" y="38"/>
      <point x="353" y="43"/>
      <point x="353" y="107" type="curve" smooth="yes"/>
      <point x="353" y="171" type="line"/>
      <point x="389" y="178" type="line" smooth="yes"/>
      <point x="504" y="214"/>
      <point x="558" y="270"/>
      <point x="558" y="363" type="curve" smooth="yes"/>
      <point x="558" y="492"/>
      <point x="462" y="548"/>
      <point x="313" y="548" type="curve" smooth="yes"/>
      <point x="176" y="548"/>
      <point x="72" y="504"/>
      <point x="72" y="421" type="curve" smooth="yes"/>
      <point x="72" y="379"/>
      <point x="99" y="362"/>
      <point x="177" y="362" type="curve"/>
      <point x="177" y="475"/>
      <point x="232" y="506"/>
      <point x="317" y="506" type="curve" smooth="yes"/>
      <point x="392" y="506"/>
      <point x="444" y="470"/>
      <point x="444" y="375" type="curve" smooth="yes"/>
      <point x="444" y="300"/>
      <point x="390" y="256"/>
      <point x="274" y="216" type="curve" smooth="yes"/>
      <point x="246" y="216" type="line"/>
      <point x="246" y="107" type="line" smooth="yes"/>
      <point x="246" y="44"/>
      <point x="223" y="38"/>
      <point x="190" y="38" type="curve" smooth="yes"/>
      <point x="136" y="38" type="line"/>
    </contour>
  </outline>
</glyph>
<glyph name="uni024B" format="2">
  <advance width="737"/>
  <unicode hex="024B"/>
  <anchor x="368" y="-240" name="bottom"/>
  <anchor x="368" y="536" name="top"/>
  <outline>
    <contour>
      <point x="643" y="-240" type="curve" smooth="yes"/>
      <point x="693" y="-240"/>
      <point x="738" y="-236"/>
      <point x="767" y="-228" type="curve"/>
      <point x="767" y="-189" type="line"/>
      <point x="744" y="-193"/>
      <point x="711" y="-198"/>
      <point x="687" y="-198" type="curve" smooth="yes"/>
      <point x="615" y="-198"/>
      <point x="610" y="-138"/>
      <point x="610" y="-70" type="curve" smooth="yes"/>
      <point x="610" y="427" type="line" smooth="yes"/>
      <point x="610" y="492"/>
      <point x="629" y="498"/>
      <point x="694" y="498" type="curve" smooth="yes"/>
      <point x="713" y="498" type="line"/>
      <point x="713" y="536" type="line"/>
      <point x="527" y="536" type="line"/>
      <point x="515" y="444" type="line"/>
      <point x="510" y="444" type="line"/>
      <point x="472" y="519"/>
      <point x="415" y="546"/>
      <point x="322" y="546" type="curve" smooth="yes"/>
      <point x="148" y="546"/>
      <point x="67" y="447"/>
      <point x="67" y="267" type="curve" smooth="yes"/>
      <point x="67" y="77"/>
      <point x="155" y="-10"/>
      <point x="305" y="-10" type="curve" smooth="yes"/>
      <point x="416" y="-10"/>
      <point x="473" y="31"/>
      <point x="502" y="88" type="curve"/>
      <point x="507" y="88" type="line"/>
      <point x="503" y="64"/>
      <point x="503" y="19"/>
      <point x="503" y="-46" type="curve" smooth="yes"/>
      <point x="503" y="-107" type="line" smooth="yes"/>
      <point x="503" y="-208"/>
      <point x="562" y="-240"/>
    </contour>
    <contour>
      <point x="337" y="40" type="curve" smooth="yes"/>
      <point x="226" y="40"/>
      <point x="175" y="116"/>
      <point x="175" y="266" type="curve" smooth="yes"/>
      <point x="175" y="410"/>
      <point x="223" y="495"/>
      <point x="349" y="495" type="curve" smooth="yes"/>
      <point x="469" y="495"/>
      <point x="503" y="417"/>
      <point x="503" y="267" type="curve" smooth="yes"/>
      <point x="503" y="85"/>
      <point x="423" y="40"/>
    </contour>
  </outline>
</glyph>
<glyph name="uni0251" format="2">
  <advance width="736"/>
  <unicode hex="0251"/>
  <anchor x="368" y="0" name="bottom"/>
  <anchor x="368" y="536" name="top"/>
  <outline>
    <contour>
      <point x="302" y="-10" type="curve" smooth="yes"/>
      <point x="392" y="-10"/>
      <point x="470" y="31"/>
      <point x="509" y="110" type="curve"/>
      <point x="516" y="110" type="line"/>
      <point x="521" y="34"/>
      <point x="554" y="-8"/>
      <point x="622" y="-8" type="curve" smooth="yes"/>
      <point x="673" y="-8"/>
      <point x="703" y="-1"/>
      <point x="722" y="3" type="curve"/>
      <point x="722" y="47" type="line"/>
      <point x="702" y="41"/>
      <point x="684" y="40"/>
      <point x="670" y="40" type="curve" smooth="yes"/>
      <point x="617" y="40"/>
      <point x="610" y="73"/>
      <point x="610" y="145" type="curve" smooth="yes"/>
      <point x="610" y="536" type="line"/>
      <point x="534" y="536" type="line"/>
      <point x="507" y="462" type="line"/>
      <point x="500" y="462" type="line"/>
      <point x="468" y="512"/>
      <point x="412" y="544"/>
      <point x="303" y="544" type="curve" smooth="yes"/>
      <point x="152" y="544"/>
      <point x="68" y="441"/>
      <point x="68" y="272" type="curve" smooth="yes"/>
      <point x="68" y="91"/>
      <point x="151" y="-10"/>
    </contour>
    <contour>
      <point x="327" y="40" type="curve" smooth="yes"/>
      <point x="240" y="37"/>
      <point x="176" y="125"/>
      <point x="176" y="266" type="curve" smooth="yes"/>
      <point x="176" y="403"/>
      <point x="225" y="494"/>
      <point x="338" y="494" type="curve" smooth="yes"/>
      <point x="472" y="494"/>
      <point x="504" y="407"/>
      <point x="504" y="267" type="curve" smooth="yes"/>
      <point x="504" y="145"/>
      <point x="450" y="42"/>
    </contour>
  </outline>
</glyph>
<glyph name="uni0253" format="2">
  <advance width="735"/>
  <unicode hex="0253"/>
  <anchor x="367" y="0" name="bottom"/>
  <anchor x="367" y="767" name="top"/>
  <outline>
    <contour>
      <point x="426" y="-10" type="curve" smooth="yes"/>
      <point x="577" y="-10"/>
      <point x="668" y="96"/>
      <point x="668" y="269" type="curve" smooth="yes"/>
      <point x="668" y="458"/>
      <point x="594" y="546"/>
      <point x="438" y="546" type="curve" smooth="yes"/>
      <point x="335" y="546"/>
      <point x="270" y="507"/>
      <point x="238" y="435" type="curve"/>
      <point x="231" y="435" type="line"/>
      <point x="237" y="479"/>
      <point x="240" y="539"/>
      <point x="240" y="574" type="curve" smooth="yes"/>
      <point x="240" y="668" type="line" smooth="yes"/>
      <point x="240" y="718"/>
      <point x="284" y="722"/>
      <point x="312" y="722" type="curve" smooth="yes"/>
      <point x="338" y="722"/>
      <point x="360" y="715"/>
      <point x="389" y="667" type="curve"/>
      <point x="437" y="670"/>
      <point x="448" y="682"/>
      <point x="448" y="700" type="curve" smooth="yes"/>
      <point x="448" y="730"/>
      <point x="415" y="767"/>
      <point x="309" y="767" type="curve" smooth="yes"/>
      <point x="184" y="767"/>
      <point x="133" y="708"/>
      <point x="133" y="653" type="curve" smooth="yes"/>
      <point x="133" y="114" type="line" smooth="yes"/>
      <point x="133" y="42"/>
      <point x="114" y="38"/>
      <point x="45" y="38" type="curve" smooth="yes"/>
      <point x="23" y="38" type="line"/>
      <point x="23" y="0" type="line"/>
      <point x="209" y="0" type="line"/>
      <point x="228" y="95" type="line"/>
      <point x="233" y="95" type="line"/>
      <point x="266" y="25"/>
      <point x="341" y="-10"/>
    </contour>
    <contour>
      <point x="402" y="41" type="curve" smooth="yes"/>
      <point x="269" y="41"/>
      <point x="239" y="137"/>
      <point x="239" y="270" type="curve" smooth="yes"/>
      <point x="239" y="402"/>
      <point x="283" y="496"/>
      <point x="400" y="496" type="curve" smooth="yes"/>
      <point x="517" y="496"/>
      <point x="560" y="426"/>
      <point x="560" y="271" type="curve" smooth="yes"/>
      <point x="560" y="138"/>
      <point x="506" y="41"/>
    </contour>
  </outline>
</glyph>
<glyph name="uni0256" format="2">
  <advance width="735"/>
  <unicode hex="0256"/>
  <anchor x="367" y="-240" name="bottom"/>
  <anchor x="367" y="760" name="top"/>
  <outline>
    <contour>
      <point x="651" y="-240" type="curve" smooth="yes"/>
      <point x="709" y="-240"/>
      <point x="740" y="-236"/>
      <point x="772" y="-232" type="curve"/>
      <point x="772" y="-190" type="line"/>
      <point x="744" y="-195"/>
      <point x="721" y="-196"/>
      <point x="694" y="-196" type="curve" smooth="yes"/>
      <point x="628" y="-196"/>
      <point x="611" y="-170"/>
      <point x="611" y="-98" type="curve" smooth="yes"/>
      <point x="611" y="760" type="line"/>
      <point x="392" y="760" type="line"/>
      <point x="392" y="722" type="line"/>
      <point x="426" y="722" type="line" smooth="yes"/>
      <point x="481" y="722"/>
      <point x="503" y="718"/>
      <point x="503" y="656" type="curve" smooth="yes"/>
      <point x="503" y="567" type="line" smooth="yes"/>
      <point x="503" y="538"/>
      <point x="503" y="507"/>
      <point x="504" y="457" type="curve"/>
      <point x="499" y="457" type="line"/>
      <point x="467" y="513"/>
      <point x="401" y="545"/>
      <point x="298" y="545" type="curve" smooth="yes"/>
      <point x="137" y="545"/>
      <point x="68" y="430"/>
      <point x="68" y="267" type="curve" smooth="yes"/>
      <point x="68" y="100"/>
      <point x="155" y="-10"/>
      <point x="308" y="-10" type="curve" smooth="yes"/>
      <point x="413" y="-10"/>
      <point x="474" y="40"/>
      <point x="507" y="95" type="curve"/>
      <point x="511" y="95" type="line"/>
      <point x="507" y="69"/>
      <point x="503" y="40"/>
      <point x="503" y="-3" type="curve" smooth="yes"/>
      <point x="503" y="-82" type="line" smooth="yes"/>
      <point x="503" y="-186"/>
      <point x="534" y="-240"/>
    </contour>
    <contour>
      <point x="333" y="40" type="curve" smooth="yes"/>
      <point x="241" y="37"/>
      <point x="176" y="129"/>
      <point x="176" y="266" type="curve" smooth="yes"/>
      <point x="176" y="397"/>
      <point x="212" y="495"/>
      <point x="331" y="495" type="curve" smooth="yes"/>
      <point x="465" y="495"/>
      <point x="504" y="418"/>
      <point x="504" y="267" type="curve" smooth="yes"/>
      <point x="504" y="136"/>
      <point x="454" y="42"/>
    </contour>
  </outline>
</glyph>
<glyph name="uni0257" format="2">
  <advance width="735"/>
  <unicode hex="0257"/>
  <anchor x="367" y="0" name="bottom"/>
  <anchor x="367" y="767" name="top"/>
  <outline>
    <contour>
      <point x="308" y="-10" type="curve" smooth="yes"/>
      <point x="414" y="-10"/>
      <point x="468" y="31"/>
      <point x="509" y="102" type="curve"/>
      <point x="513" y="102" type="line"/>
      <point x="531" y="0" type="line"/>
      <point x="716" y="0" type="line"/>
      <point x="716" y="38" type="line"/>
      <point x="694" y="38" type="line" smooth="yes"/>
      <point x="623" y="38"/>
      <point x="611" y="47"/>
      <point x="611" y="121" type="curve" smooth="yes"/>
      <point x="611" y="668" type="line" smooth="yes"/>
      <point x="611" y="718"/>
      <point x="654" y="722"/>
      <point x="683" y="722" type="curve" smooth="yes"/>
      <point x="708" y="722"/>
      <point x="730" y="715"/>
      <point x="759" y="667" type="curve"/>
      <point x="806" y="670"/>
      <point x="819" y="681"/>
      <point x="819" y="700" type="curve" smooth="yes"/>
      <point x="819" y="733"/>
      <point x="784" y="767"/>
      <point x="680" y="767" type="curve" smooth="yes"/>
      <point x="555" y="767"/>
      <point x="503" y="708"/>
      <point x="503" y="653" type="curve" smooth="yes"/>
      <point x="503" y="546" type="line" smooth="yes"/>
      <point x="503" y="529"/>
      <point x="503" y="507"/>
      <point x="504" y="457" type="curve"/>
      <point x="499" y="457" type="line"/>
      <point x="467" y="513"/>
      <point x="401" y="545"/>
      <point x="298" y="545" type="curve" smooth="yes"/>
      <point x="137" y="545"/>
      <point x="68" y="430"/>
      <point x="68" y="267" type="curve" smooth="yes"/>
      <point x="68" y="100"/>
      <point x="155" y="-10"/>
    </contour>
    <contour>
      <point x="333" y="40" type="curve" smooth="yes"/>
      <point x="241" y="37"/>
      <point x="176" y="129"/>
      <point x="176" y="266" type="curve" smooth="yes"/>
      <point x="176" y="397"/>
      <point x="212" y="495"/>
      <point x="331" y="495" type="curve" smooth="yes"/>
      <point x="465" y="495"/>
      <point x="504" y="418"/>
      <point x="504" y="267" type="curve" smooth="yes"/>
      <point x="504" y="127"/>
      <point x="454" y="42"/>
    </contour>
  </outline>
</glyph>
<glyph name="eopenreversedhook" format="2">
  <advance width="794"/>
  <unicode hex="025D"/>
  <anchor x="379" y="0" name="bottom"/>
  <anchor x="379" y="536" name="top"/>
  <outline>
    <contour>
      <point x="703" y="279" type="curve" smooth="yes"/>
      <point x="745" y="279"/>
      <point x="786" y="299"/>
      <point x="786" y="341" type="curve" smooth="yes"/>
      <point x="786" y="360"/>
      <point x="774" y="371"/>
      <point x="762" y="375" type="curve"/>
      <point x="750" y="355"/>
      <point x="735" y="343"/>
      <point x="706" y="343" type="curve" smooth="yes"/>
      <point x="662" y="343"/>
      <point x="646" y="374"/>
      <point x="623" y="439" type="curve" smooth="yes"/>
      <point x="609" y="479" type="line"/>
      <point x="437" y="427" type="line"/>
      <point x="442" y="379" type="line"/>
      <point x="569" y="417" type="line"/>
      <point x="574" y="404" type="line" smooth="yes"/>
      <point x="596" y="343"/>
      <point x="617" y="279"/>
    </contour>
    <component base="afii10073"/>
  </outline>
</glyph>
<glyph name="uni0261" format="2">
  <advance width="735"/>
  <unicode hex="0261"/>
  <anchor x="368" y="-234" name="bottom"/>
  <anchor x="368" y="536" name="top"/>
  <outline>
    <contour>
      <point x="313" y="-234" type="curve" smooth="yes"/>
      <point x="465" y="-234"/>
      <point x="611" y="-176"/>
      <point x="611" y="-33" type="curve" smooth="yes"/>
      <point x="611" y="427" type="line" smooth="yes"/>
      <point x="611" y="492"/>
      <point x="631" y="498"/>
      <point x="691" y="498" type="curve" smooth="yes"/>
      <point x="714" y="498" type="line"/>
      <point x="714" y="536" type="line"/>
      <point x="527" y="536" type="line"/>
      <point x="516" y="444" type="line"/>
      <point x="510" y="444" type="line"/>
      <point x="471" y="524"/>
      <point x="411" y="546"/>
      <point x="323" y="546" type="curve" smooth="yes"/>
      <point x="158" y="546"/>
      <point x="67" y="466"/>
      <point x="67" y="268" type="curve" smooth="yes"/>
      <point x="67" y="78"/>
      <point x="156" y="-6"/>
      <point x="305" y="-6" type="curve" smooth="yes"/>
      <point x="410" y="-6"/>
      <point x="469" y="26"/>
      <point x="502" y="92" type="curve"/>
      <point x="507" y="92" type="line"/>
      <point x="504" y="86"/>
      <point x="503" y="63"/>
      <point x="503" y="37" type="curve" smooth="yes"/>
      <point x="503" y="-49" type="line" smooth="yes"/>
      <point x="501" y="-79"/>
      <point x="492" y="-189"/>
      <point x="315" y="-189" type="curve" smooth="yes"/>
      <point x="204" y="-189"/>
      <point x="173" y="-142"/>
      <point x="173" y="-76" type="curve"/>
      <point x="126" y="-77"/>
      <point x="98" y="-87"/>
      <point x="98" y="-119" type="curve" smooth="yes"/>
      <point x="98" y="-198"/>
      <point x="183" y="-234"/>
    </contour>
    <contour>
      <point x="337" y="44" type="curve" smooth="yes"/>
      <point x="226" y="44"/>
      <point x="175" y="122"/>
      <point x="175" y="267" type="curve" smooth="yes"/>
      <point x="175" y="431"/>
      <point x="233" y="495"/>
      <point x="349" y="495" type="curve" smooth="yes"/>
      <point x="469" y="495"/>
      <point x="503" y="415"/>
      <point x="503" y="269" type="curve" smooth="yes"/>
      <point x="503" y="68"/>
      <point x="411" y="44"/>
    </contour>
  </outline>
</glyph>
<glyph name="uni0266" format="2">
  <advance width="762"/>
  <unicode hex="0266"/>
  <anchor x="382" y="0" name="bottom"/>
  <anchor x="382" y="767" name="top"/>
  <outline>
    <contour>
      <point x="22" y="0" type="line"/>
      <point x="344" y="0" type="line"/>
      <point x="344" y="38" type="line"/>
      <point x="319" y="38" type="line" smooth="yes"/>
      <point x="251" y="38"/>
      <point x="240" y="44"/>
      <point x="240" y="107" type="curve" smooth="yes"/>
      <point x="240" y="319" type="line" smooth="yes"/>
      <point x="240" y="421"/>
      <point x="300" y="488"/>
      <point x="401" y="488" type="curve" smooth="yes"/>
      <point x="486" y="488"/>
      <point x="524" y="442"/>
      <point x="524" y="337" type="curve" smooth="yes"/>
      <point x="524" y="0" type="line"/>
      <point x="732" y="0" type="line"/>
      <point x="732" y="38" type="line"/>
      <point x="712" y="38" type="line" smooth="yes"/>
      <point x="641" y="38"/>
      <point x="631" y="41"/>
      <point x="631" y="111" type="curve" smooth="yes"/>
      <point x="631" y="361" type="line" smooth="yes"/>
      <point x="631" y="496"/>
      <point x="568" y="546"/>
      <point x="439" y="546" type="curve" smooth="yes"/>
      <point x="313" y="546"/>
      <point x="263" y="493"/>
      <point x="241" y="445" type="curve"/>
      <point x="236" y="445" type="line"/>
      <point x="239" y="463"/>
      <point x="240" y="495"/>
      <point x="240" y="522" type="curve" smooth="yes"/>
      <point x="240" y="670" type="line" smooth="yes"/>
      <point x="240" y="720"/>
      <point x="283" y="722"/>
      <point x="311" y="722" type="curve" smooth="yes"/>
      <point x="336" y="722"/>
      <point x="360" y="723"/>
      <point x="389" y="667" type="curve"/>
      <point x="437" y="670"/>
      <point x="448" y="681"/>
      <point x="448" y="701" type="curve" smooth="yes"/>
      <point x="448" y="728"/>
      <point x="418" y="767"/>
      <point x="310" y="767" type="curve" smooth="yes"/>
      <point x="186" y="767"/>
      <point x="133" y="708"/>
      <point x="133" y="653" type="curve" smooth="yes"/>
      <point x="133" y="108" type="line" smooth="yes"/>
      <point x="133" y="43"/>
      <point x="117" y="38"/>
      <point x="53" y="38" type="curve" smooth="yes"/>
      <point x="22" y="38" type="line"/>
    </contour>
  </outline>
</glyph>
<glyph name="uni026B" format="2">
  <advance width="455"/>
  <unicode hex="026B"/>
  <anchor x="227" y="0" name="bottom"/>
  <anchor x="227" y="760" name="top"/>
  <anchor x="322" y="760" name="topright"/>
  <anchor x="230" y="268" name="center"/>
  <outline>
    <contour>
      <point x="6" y="297" type="curve"/>
      <point x="56" y="297" type="line"/>
      <point x="58" y="329"/>
      <point x="64" y="357"/>
      <point x="120" y="357" type="curve" smooth="yes"/>
      <point x="191" y="357"/>
      <point x="247" y="306"/>
      <point x="327" y="306" type="curve" smooth="yes"/>
      <point x="426" y="306"/>
      <point x="444" y="376"/>
      <point x="447" y="439" type="curve"/>
      <point x="395" y="439" type="line"/>
      <point x="393" y="406"/>
      <point x="390" y="371"/>
      <point x="331" y="371" type="curve" smooth="yes"/>
      <point x="264" y="371"/>
      <point x="206" y="422"/>
      <point x="125" y="422" type="curve" smooth="yes"/>
      <point x="27" y="422"/>
      <point x="9" y="359"/>
    </contour>
    <component base="l" xOffset="48"/>
  </outline>
</glyph>
<glyph name="uni026D" format="2">
  <advance width="364"/>
  <unicode hex="026D"/>
  <anchor x="182" y="-240" name="bottom"/>
  <anchor x="182" y="760" name="top"/>
  <outline>
    <contour>
      <point x="290" y="-240" type="curve" smooth="yes"/>
      <point x="345" y="-240"/>
      <point x="381" y="-234"/>
      <point x="409" y="-228" type="curve"/>
      <point x="409" y="-188" type="line"/>
      <point x="387" y="-192"/>
      <point x="363" y="-196"/>
      <point x="333" y="-196" type="curve" smooth="yes"/>
      <point x="282" y="-196"/>
      <point x="250" y="-180"/>
      <point x="250" y="-84" type="curve" smooth="yes"/>
      <point x="250" y="760" type="line"/>
      <point x="28" y="760" type="line"/>
      <point x="28" y="722" type="line"/>
      <point x="75" y="722" type="line" smooth="yes"/>
      <point x="125" y="722"/>
      <point x="143" y="711"/>
      <point x="143" y="653" type="curve" smooth="yes"/>
      <point x="143" y="-87" type="line" smooth="yes"/>
      <point x="143" y="-198"/>
      <point x="181" y="-240"/>
    </contour>
  </outline>
</glyph>
<glyph name="uni0271" format="2">
  <advance width="1106"/>
  <unicode hex="0271"/>
  <anchor x="553" y="-234" name="bottom"/>
  <anchor x="553" y="536" name="top"/>
  <outline>
    <contour>
      <point x="816" y="-234" type="curve" smooth="yes"/>
      <point x="938" y="-234"/>
      <point x="1007" y="-157"/>
      <point x="1007" y="-91" type="curve" smooth="yes"/>
      <point x="1007" y="360" type="line" smooth="yes"/>
      <point x="1007" y="482"/>
      <point x="946" y="546"/>
      <point x="812" y="546" type="curve" smooth="yes"/>
      <point x="697" y="546"/>
      <point x="644" y="492"/>
      <point x="621" y="453" type="curve"/>
      <point x="616" y="453" type="line"/>
      <point x="595" y="499"/>
      <point x="553" y="546"/>
      <point x="444" y="546" type="curve" smooth="yes"/>
      <point x="349" y="546"/>
      <point x="285" y="509"/>
      <point x="256" y="452" type="curve"/>
      <point x="249" y="452" type="line"/>
      <point x="241" y="536" type="line"/>
      <point x="48" y="536" type="line"/>
      <point x="48" y="500" type="line"/>
      <point x="76" y="500" type="line" smooth="yes"/>
      <point x="125" y="500"/>
      <point x="144" y="496"/>
      <point x="144" y="437" type="curve" smooth="yes"/>
      <point x="144" y="107" type="line" smooth="yes"/>
      <point x="144" y="43"/>
      <point x="129" y="38"/>
      <point x="67" y="38" type="curve" smooth="yes"/>
      <point x="36" y="38" type="line"/>
      <point x="36" y="0" type="line"/>
      <point x="356" y="0" type="line"/>
      <point x="356" y="38" type="line"/>
      <point x="330" y="38" type="line" smooth="yes"/>
      <point x="263" y="38"/>
      <point x="251" y="44"/>
      <point x="251" y="106" type="curve" smooth="yes"/>
      <point x="251" y="319" type="line" smooth="yes"/>
      <point x="251" y="409"/>
      <point x="299" y="488"/>
      <point x="393" y="488" type="curve" smooth="yes"/>
      <point x="490" y="488"/>
      <point x="522" y="429"/>
      <point x="522" y="343" type="curve" smooth="yes"/>
      <point x="522" y="0" type="line"/>
      <point x="728" y="0" type="line"/>
      <point x="728" y="38" type="line"/>
      <point x="706" y="38" type="line" smooth="yes"/>
      <point x="637" y="38"/>
      <point x="628" y="43"/>
      <point x="628" y="109" type="curve" smooth="yes"/>
      <point x="628" y="333" type="line" smooth="yes"/>
      <point x="628" y="420"/>
      <point x="676" y="489"/>
      <point x="775" y="489" type="curve" smooth="yes"/>
      <point x="864" y="489"/>
      <point x="900" y="436"/>
      <point x="900" y="343" type="curve" smooth="yes"/>
      <point x="900" y="-117" type="line" smooth="yes"/>
      <point x="900" y="-172"/>
      <point x="850" y="-187"/>
      <point x="816" y="-187" type="curve" smooth="yes"/>
      <point x="792" y="-187"/>
      <point x="766" y="-183"/>
      <point x="738" y="-130" type="curve"/>
      <point x="700" y="-133"/>
      <point x="680" y="-140"/>
      <point x="680" y="-166" type="curve" smooth="yes"/>
      <point x="680" y="-210"/>
      <point x="738" y="-234"/>
    </contour>
  </outline>
</glyph>
<glyph name="uni0274" format="2">
  <advance width="785"/>
  <unicode hex="0274"/>
  <anchor x="393" y="0" name="bottom"/>
  <anchor x="393" y="536" name="top"/>
  <outline>
    <contour>
      <point x="32" y="0" type="line"/>
      <point x="308" y="0" type="line"/>
      <point x="308" y="38" type="line"/>
      <point x="284" y="38" type="line" smooth="yes"/>
      <point x="213" y="38"/>
      <point x="200" y="43"/>
      <point x="200" y="108" type="curve" smooth="yes"/>
      <point x="200" y="441" type="line"/>
      <point x="591" y="0" type="line"/>
      <point x="644" y="0" type="line"/>
      <point x="644" y="428" type="line" smooth="yes"/>
      <point x="644" y="492"/>
      <point x="655" y="498"/>
      <point x="722" y="498" type="curve" smooth="yes"/>
      <point x="752" y="498" type="line"/>
      <point x="752" y="536" type="line"/>
      <point x="475" y="536" type="line"/>
      <point x="475" y="498" type="line"/>
      <point x="511" y="498" type="line" smooth="yes"/>
      <point x="582" y="498"/>
      <point x="592" y="492"/>
      <point x="592" y="428" type="curve" smooth="yes"/>
      <point x="592" y="150" type="line"/>
      <point x="248" y="536" type="line"/>
      <point x="32" y="536" type="line"/>
      <point x="32" y="498" type="line"/>
      <point x="66" y="498" type="line" smooth="yes"/>
      <point x="137" y="498"/>
      <point x="149" y="492"/>
      <point x="149" y="427" type="curve" smooth="yes"/>
      <point x="149" y="108" type="line" smooth="yes"/>
      <point x="149" y="43"/>
      <point x="134" y="38"/>
      <point x="67" y="38" type="curve" smooth="yes"/>
      <point x="32" y="38" type="line"/>
    </contour>
  </outline>
</glyph>
<glyph name="uni0276" format="2">
  <advance width="975"/>
  <unicode hex="0276"/>
  <anchor x="488" y="0" name="bottom"/>
  <anchor x="488" y="536" name="top"/>
  <outline>
    <contour>
      <point x="373" y="-8" type="curve" smooth="yes"/>
      <point x="395" y="-8"/>
      <point x="457" y="-3"/>
      <point x="481" y="0" type="curve"/>
      <point x="917" y="0" type="line"/>
      <point x="924" y="152" type="line"/>
      <point x="881" y="152" type="line"/>
      <point x="864" y="43" type="line" smooth="yes"/>
      <point x="858" y="43"/>
      <point x="846" y="39"/>
      <point x="831" y="39" type="curve" smooth="yes"/>
      <point x="587" y="39" type="line"/>
      <point x="587" y="256" type="line"/>
      <point x="834" y="256" type="line"/>
      <point x="834" y="298" type="line"/>
      <point x="587" y="298" type="line"/>
      <point x="587" y="496" type="line"/>
      <point x="790" y="496" type="line" smooth="yes"/>
      <point x="815" y="496"/>
      <point x="831" y="481"/>
      <point x="835" y="476" type="curve" smooth="yes"/>
      <point x="847" y="383" type="line"/>
      <point x="892" y="383" type="line"/>
      <point x="886" y="536" type="line"/>
      <point x="483" y="536" type="line"/>
      <point x="456" y="539"/>
      <point x="415" y="542"/>
      <point x="367" y="542" type="curve" smooth="yes"/>
      <point x="191" y="542"/>
      <point x="66" y="465"/>
      <point x="66" y="267" type="curve" smooth="yes"/>
      <point x="66" y="40"/>
      <point x="225" y="-8"/>
    </contour>
    <contour>
      <point x="387" y="31" type="curve" smooth="yes"/>
      <point x="248" y="31"/>
      <point x="173" y="101"/>
      <point x="173" y="267" type="curve" smooth="yes"/>
      <point x="173" y="424"/>
      <point x="229" y="503"/>
      <point x="384" y="503" type="curve" smooth="yes"/>
      <point x="414" y="503"/>
      <point x="453" y="498"/>
      <point x="485" y="489" type="curve"/>
      <point x="485" y="45" type="line"/>
      <point x="450" y="33"/>
      <point x="416" y="31"/>
    </contour>
  </outline>
</glyph>
<glyph name="uni027D" format="2">
  <advance width="556"/>
  <unicode hex="027D"/>
  <anchor x="279" y="-241" name="bottom"/>
  <anchor x="279" y="536" name="top"/>
  <outline>
    <contour>
      <point x="290" y="-241" type="curve" smooth="yes"/>
      <point x="346" y="-241"/>
      <point x="380" y="-235"/>
      <point x="409" y="-229" type="curve"/>
      <point x="409" y="-188" type="line"/>
      <point x="386" y="-193"/>
      <point x="364" y="-196"/>
      <point x="332" y="-196" type="curve" smooth="yes"/>
      <point x="279" y="-196"/>
      <point x="250" y="-173"/>
      <point x="250" y="-84" type="curve" smooth="yes"/>
      <point x="250" y="288" type="line" smooth="yes"/>
      <point x="250" y="400"/>
      <point x="309" y="480"/>
      <point x="383" y="480" type="curve" smooth="yes"/>
      <point x="427" y="480"/>
      <point x="456" y="468"/>
      <point x="456" y="398" type="curve"/>
      <point x="505" y="398"/>
      <point x="538" y="418"/>
      <point x="538" y="459" type="curve" smooth="yes"/>
      <point x="538" y="508"/>
      <point x="495" y="546"/>
      <point x="424" y="546" type="curve" smooth="yes"/>
      <point x="336" y="546"/>
      <point x="282" y="500"/>
      <point x="250" y="427" type="curve"/>
      <point x="246" y="427" type="line"/>
      <point x="235" y="536" type="line"/>
      <point x="42" y="536" type="line"/>
      <point x="42" y="498" type="line"/>
      <point x="72" y="498" type="line" smooth="yes"/>
      <point x="132" y="498"/>
      <point x="143" y="491"/>
      <point x="143" y="427" type="curve" smooth="yes"/>
      <point x="143" y="-89" type="line" smooth="yes"/>
      <point x="143" y="-198"/>
      <point x="183" y="-241"/>
    </contour>
  </outline>
</glyph>
<glyph name="uni0280" format="2">
  <advance width="750"/>
  <unicode hex="0280"/>
  <anchor x="375" y="0" name="bottom"/>
  <anchor x="375" y="536" name="top"/>
  <outline>
    <contour>
      <point x="53" y="0" type="line"/>
      <point x="340" y="0" type="line"/>
      <point x="340" y="36" type="line"/>
      <point x="316" y="36" type="line" smooth="yes"/>
      <point x="261" y="36"/>
      <point x="253" y="42"/>
      <point x="253" y="96" type="curve" smooth="yes"/>
      <point x="253" y="228" type="line"/>
      <point x="385" y="228" type="line"/>
      <point x="507" y="70" type="line" smooth="yes"/>
      <point x="558" y="0"/>
      <point x="589" y="0"/>
      <point x="683" y="0" type="curve" smooth="yes"/>
      <point x="716" y="0" type="line"/>
      <point x="716" y="42" type="line"/>
      <point x="700" y="42" type="line" smooth="yes"/>
      <point x="643" y="42"/>
      <point x="630" y="68"/>
      <point x="598" y="101" type="curve" smooth="yes"/>
      <point x="481" y="242" type="line"/>
      <point x="588" y="263"/>
      <point x="632" y="311"/>
      <point x="632" y="394" type="curve" smooth="yes"/>
      <point x="632" y="489"/>
      <point x="561" y="536"/>
      <point x="385" y="536" type="curve" smooth="yes"/>
      <point x="51" y="536" type="line"/>
      <point x="51" y="500" type="line"/>
      <point x="92" y="500" type="line" smooth="yes"/>
      <point x="138" y="500"/>
      <point x="150" y="492"/>
      <point x="150" y="440" type="curve" smooth="yes"/>
      <point x="150" y="96" type="line" smooth="yes"/>
      <point x="150" y="42"/>
      <point x="140" y="36"/>
      <point x="85" y="36" type="curve" smooth="yes"/>
      <point x="53" y="36" type="line"/>
    </contour>
    <contour>
      <point x="253" y="267" type="line"/>
      <point x="253" y="496" type="line"/>
      <point x="372" y="496" type="line" smooth="yes"/>
      <point x="465" y="496"/>
      <point x="524" y="464"/>
      <point x="524" y="385" type="curve" smooth="yes"/>
      <point x="524" y="298"/>
      <point x="469" y="267"/>
      <point x="371" y="267" type="curve" smooth="yes"/>
    </contour>
  </outline>
</glyph>
<glyph name="eshsquatreversed" format="2">
  <advance width="495"/>
  <unicode hex="0285"/>
  <anchor x="247" y="-236" name="bottom"/>
  <anchor x="247" y="536" name="top"/>
  <outline>
    <contour>
      <point x="391" y="-236" type="curve" smooth="yes"/>
      <point x="511" y="-236"/>
      <point x="546" y="-180"/>
      <point x="546" y="-133" type="curve" smooth="yes"/>
      <point x="546" y="-98"/>
      <point x="515" y="-76"/>
      <point x="463" y="-76" type="curve"/>
      <point x="463" y="-158"/>
      <point x="438" y="-186"/>
      <point x="388" y="-186" type="curve" smooth="yes"/>
      <point x="312" y="-186"/>
      <point x="299" y="-133"/>
      <point x="299" y="-51" type="curve" smooth="yes"/>
      <point x="299" y="363" type="line" smooth="yes"/>
      <point x="299" y="519"/>
      <point x="221" y="549"/>
      <point x="102" y="549" type="curve" smooth="yes"/>
      <point x="-19" y="549"/>
      <point x="-53" y="489"/>
      <point x="-53" y="445" type="curve" smooth="yes"/>
      <point x="-53" y="409"/>
      <point x="-22" y="387"/>
      <point x="30" y="387" type="curve"/>
      <point x="30" y="472"/>
      <point x="54" y="500"/>
      <point x="105" y="500" type="curve" smooth="yes"/>
      <point x="182" y="500"/>
      <point x="192" y="441"/>
      <point x="192" y="355" type="curve" smooth="yes"/>
      <point x="192" y="-55" type="line" smooth="yes"/>
      <point x="192" y="-205"/>
      <point x="271" y="-236"/>
    </contour>
  </outline>
</glyph>
<glyph name="eshcurl" format="2">
  <advance width="466"/>
  <unicode hex="0286"/>
  <anchor x="233" y="-240" name="bottom"/>
  <anchor x="233" y="765" name="top"/>
  <outline>
    <contour>
      <point x="108" y="-240" type="curve" smooth="yes"/>
      <point x="224" y="-240"/>
      <point x="246" y="-152"/>
      <point x="259" y="-113" type="curve"/>
      <point x="286" y="-135"/>
      <point x="313" y="-172"/>
      <point x="330" y="-225" type="curve"/>
      <point x="379" y="-204" type="line"/>
      <point x="355" y="-135"/>
      <point x="322" y="-92"/>
      <point x="271" y="-56" type="curve"/>
      <point x="272" y="-47"/>
      <point x="274" y="-28"/>
      <point x="274" y="-14" type="curve" smooth="yes"/>
      <point x="274" y="571" type="line" smooth="yes"/>
      <point x="274" y="657"/>
      <point x="284" y="716"/>
      <point x="359" y="716" type="curve" smooth="yes"/>
      <point x="412" y="716"/>
      <point x="435" y="689"/>
      <point x="435" y="603" type="curve"/>
      <point x="488" y="603"/>
      <point x="518" y="625"/>
      <point x="518" y="661" type="curve" smooth="yes"/>
      <point x="518" y="706"/>
      <point x="488" y="765"/>
      <point x="367" y="765" type="curve" smooth="yes"/>
      <point x="249" y="765"/>
      <point x="167" y="730"/>
      <point x="167" y="574" type="curve" smooth="yes"/>
      <point x="167" y="-22" type="line"/>
      <point x="150" y="-17"/>
      <point x="129" y="-13"/>
      <point x="108" y="-13" type="curve" smooth="yes"/>
      <point x="43" y="-13"/>
      <point x="-25" y="-45"/>
      <point x="-25" y="-125" type="curve" smooth="yes"/>
      <point x="-25" y="-178"/>
      <point x="5" y="-240"/>
    </contour>
    <contour>
      <point x="95" y="-189" type="curve" smooth="yes"/>
      <point x="57" y="-189"/>
      <point x="29" y="-172"/>
      <point x="29" y="-122" type="curve" smooth="yes"/>
      <point x="29" y="-73"/>
      <point x="75" y="-62"/>
      <point x="108" y="-61" type="curve" smooth="yes"/>
      <point x="130" y="-60"/>
      <point x="152" y="-64"/>
      <point x="167" y="-71" type="curve"/>
      <point x="167" y="-112" type="line" smooth="yes"/>
      <point x="168" y="-149"/>
      <point x="146" y="-189"/>
    </contour>
  </outline>
</glyph>
<glyph name="uni028F" format="2">
  <advance width="667"/>
  <unicode hex="028F"/>
  <anchor x="334" y="0" name="bottom"/>
  <anchor x="334" y="536" name="top"/>
  <outline>
    <contour>
      <point x="170" y="0" type="line"/>
      <point x="505" y="0" type="line"/>
      <point x="505" y="36" type="line"/>
      <point x="483" y="36" type="line" smooth="yes"/>
      <point x="431" y="36"/>
      <point x="393" y="40"/>
      <point x="393" y="77" type="curve" smooth="yes"/>
      <point x="393" y="200" type="line"/>
      <point x="566" y="465" type="line" smooth="yes"/>
      <point x="587" y="491"/>
      <point x="603" y="500"/>
      <point x="646" y="500" type="curve" smooth="yes"/>
      <point x="661" y="500" type="line"/>
      <point x="661" y="536" type="line"/>
      <point x="413" y="536" type="line"/>
      <point x="413" y="500" type="line"/>
      <point x="445" y="500" type="line" smooth="yes"/>
      <point x="482" y="500"/>
      <point x="495" y="494"/>
      <point x="495" y="469" type="curve" smooth="yes"/>
      <point x="495" y="445"/>
      <point x="474" y="408"/>
      <point x="461" y="386" type="curve" smooth="yes"/>
      <point x="365" y="237" type="line"/>
      <point x="271" y="369" type="line" smooth="yes"/>
      <point x="252" y="397"/>
      <point x="226" y="438"/>
      <point x="226" y="465" type="curve" smooth="yes"/>
      <point x="226" y="494"/>
      <point x="251" y="500"/>
      <point x="286" y="500" type="curve" smooth="yes"/>
      <point x="311" y="500" type="line"/>
      <point x="311" y="536" type="line"/>
      <point x="4" y="536" type="line"/>
      <point x="4" y="500" type="line"/>
      <point x="26" y="500" type="line" smooth="yes"/>
      <point x="59" y="500"/>
      <point x="72" y="493"/>
      <point x="83" y="480" type="curve" smooth="yes"/>
      <point x="280" y="203" type="line"/>
      <point x="280" y="73" type="line" smooth="yes"/>
      <point x="280" y="39"/>
      <point x="234" y="36"/>
      <point x="189" y="36" type="curve" smooth="yes"/>
      <point x="170" y="36" type="line"/>
    </contour>
  </outline>
</glyph>
<glyph name="uni0291" format="2">
  <advance width="651"/>
  <unicode hex="0291"/>
  <anchor x="326" y="0" name="bottom"/>
  <anchor x="326" y="536" name="top"/>
  <outline>
    <contour>
      <point x="347" y="-75" type="line"/>
      <point x="353" y="-44"/>
      <point x="360" y="-23"/>
      <point x="367" y="0" type="curve"/>
      <point x="426" y="0" type="line" smooth="yes"/>
      <point x="587" y="0"/>
      <point x="613" y="68"/>
      <point x="613" y="107" type="curve" smooth="yes"/>
      <point x="613" y="155"/>
      <point x="579" y="200"/>
      <point x="495" y="200" type="curve" smooth="yes"/>
      <point x="416" y="200"/>
      <point x="359" y="162"/>
      <point x="322" y="48" type="curve"/>
      <point x="175" y="48" type="line"/>
      <point x="547" y="505" type="line"/>
      <point x="547" y="536" type="line"/>
      <point x="81" y="536" type="line"/>
      <point x="70" y="392" type="line"/>
      <point x="116" y="392" type="line"/>
      <point x="123" y="433" type="line" smooth="yes"/>
      <point x="133" y="484"/>
      <point x="146" y="488"/>
      <point x="204" y="488" type="curve" smooth="yes"/>
      <point x="424" y="488" type="line"/>
      <point x="53" y="30" type="line"/>
      <point x="53" y="0" type="line"/>
      <point x="305" y="0" type="line"/>
      <point x="299" y="-21"/>
      <point x="293" y="-44"/>
      <point x="290" y="-68" type="curve"/>
    </contour>
    <contour>
      <point x="381" y="47" type="line"/>
      <point x="407" y="131"/>
      <point x="443" y="152"/>
      <point x="497" y="152" type="curve" smooth="yes"/>
      <point x="534" y="152"/>
      <point x="558" y="134"/>
      <point x="558" y="106" type="curve" smooth="yes"/>
      <point x="558" y="73"/>
      <point x="527" y="47"/>
      <point x="422" y="47" type="curve" smooth="yes"/>
    </contour>
  </outline>
</glyph>
<glyph name="eopenclosed" format="2">
  <advance width="661"/>
  <unicode hex="029A"/>
  <anchor x="331" y="0" name="bottom"/>
  <anchor x="331" y="536" name="top"/>
  <outline>
    <contour>
      <point x="324" y="-10" type="curve" smooth="yes"/>
      <point x="503" y="-10"/>
      <point x="594" y="87"/>
      <point x="594" y="275" type="curve" smooth="yes"/>
      <point x="594" y="462"/>
      <point x="502" y="546"/>
      <point x="315" y="546" type="curve" smooth="yes"/>
      <point x="170" y="546"/>
      <point x="81" y="496"/>
      <point x="81" y="406" type="curve" smooth="yes"/>
      <point x="81" y="327"/>
      <point x="134" y="299"/>
      <point x="202" y="289" type="curve"/>
      <point x="202" y="283" type="line"/>
      <point x="127" y="265"/>
      <point x="66" y="236"/>
      <point x="66" y="151" type="curve" smooth="yes"/>
      <point x="66" y="71"/>
      <point x="141" y="-10"/>
    </contour>
    <contour>
      <point x="329" y="34" type="curve" smooth="yes"/>
      <point x="222" y="34"/>
      <point x="174" y="79"/>
      <point x="174" y="150" type="curve" smooth="yes"/>
      <point x="174" y="230"/>
      <point x="225" y="264"/>
      <point x="304" y="264" type="curve" smooth="yes"/>
      <point x="368" y="264" type="line"/>
      <point x="368" y="309" type="line"/>
      <point x="302" y="309" type="line" smooth="yes"/>
      <point x="234" y="309"/>
      <point x="188" y="334"/>
      <point x="188" y="412" type="curve" smooth="yes"/>
      <point x="188" y="449"/>
      <point x="228" y="502"/>
      <point x="314" y="502" type="curve" smooth="yes"/>
      <point x="446" y="502"/>
      <point x="487" y="420"/>
      <point x="486" y="269" type="curve" smooth="yes"/>
      <point x="485" y="99"/>
      <point x="437" y="34"/>
    </contour>
  </outline>
</glyph>
<glyph name="uni029B" format="2">
  <advance width="742"/>
  <unicode hex="029B"/>
  <anchor x="372" y="0" name="bottom"/>
  <anchor x="372" y="760" name="top"/>
  <outline>
    <contour>
      <point x="372" y="-9" type="curve" smooth="yes"/>
      <point x="443" y="-9"/>
      <point x="548" y="8"/>
      <point x="611" y="34" type="curve"/>
      <point x="611" y="184" type="line" smooth="yes"/>
      <point x="611" y="210"/>
      <point x="624" y="224"/>
      <point x="649" y="224" type="curve" smooth="yes"/>
      <point x="703" y="224" type="line"/>
      <point x="703" y="263" type="line"/>
      <point x="399" y="263" type="line"/>
      <point x="399" y="224" type="line"/>
      <point x="456" y="224" type="line" smooth="yes"/>
      <point x="488" y="224"/>
      <point x="507" y="215"/>
      <point x="507" y="188" type="curve" smooth="yes"/>
      <point x="507" y="58" type="line"/>
      <point x="474" y="50"/>
      <point x="450" y="37"/>
      <point x="377" y="37" type="curve" smooth="yes"/>
      <point x="228" y="37"/>
      <point x="171" y="130"/>
      <point x="171" y="276" type="curve" smooth="yes"/>
      <point x="171" y="421"/>
      <point x="243" y="502"/>
      <point x="381" y="502" type="curve" smooth="yes"/>
      <point x="490" y="502"/>
      <point x="520" y="443"/>
      <point x="521" y="387" type="curve"/>
      <point x="598" y="387"/>
      <point x="611" y="408"/>
      <point x="611" y="428" type="curve" smooth="yes"/>
      <point x="611" y="601" type="line" smooth="yes"/>
      <point x="611" y="671"/>
      <point x="630" y="696"/>
      <point x="677" y="696" type="curve" smooth="yes"/>
      <point x="705" y="696"/>
      <point x="718" y="685"/>
      <point x="741" y="680" type="curve"/>
      <point x="748" y="685"/>
      <point x="756" y="695"/>
      <point x="756" y="707" type="curve" smooth="yes"/>
      <point x="756" y="731"/>
      <point x="727" y="760"/>
      <point x="675" y="760" type="curve" smooth="yes"/>
      <point x="577" y="760"/>
      <point x="556" y="694"/>
      <point x="556" y="636" type="curve" smooth="yes"/>
      <point x="556" y="499" type="line"/>
      <point x="515" y="528"/>
      <point x="455" y="546"/>
      <point x="379" y="546" type="curve" smooth="yes"/>
      <point x="174" y="546"/>
      <point x="64" y="437"/>
      <point x="64" y="271" type="curve" smooth="yes"/>
      <point x="64" y="86"/>
      <point x="170" y="-9"/>
    </contour>
  </outline>
</glyph>
<glyph name="uni029D" format="2">
  <advance width="389"/>
  <unicode hex="029D"/>
  <anchor x="195" y="-240" name="bottom"/>
  <anchor x="195" y="756" name="top"/>
  <outline>
    <contour>
      <point x="82" y="-240" type="curve" smooth="yes"/>
      <point x="182" y="-240"/>
      <point x="253" y="-203"/>
      <point x="263" y="-78" type="curve"/>
      <point x="371" y="-78" type="line"/>
      <point x="371" y="-31" type="line"/>
      <point x="264" y="-31" type="line"/>
      <point x="264" y="536" type="line"/>
      <point x="58" y="536" type="line"/>
      <point x="58" y="498" type="line"/>
      <point x="87" y="498" type="line" smooth="yes"/>
      <point x="134" y="498"/>
      <point x="158" y="492"/>
      <point x="158" y="436" type="curve" smooth="yes"/>
      <point x="158" y="-31" type="line"/>
      <point x="131" y="-31" type="line" smooth="yes"/>
      <point x="20" y="-31"/>
      <point x="-41" y="-73"/>
      <point x="-41" y="-143" type="curve" smooth="yes"/>
      <point x="-41" y="-201"/>
      <point x="1" y="-240"/>
    </contour>
    <contour>
      <point x="80" y="-192" type="curve" smooth="yes"/>
      <point x="40" y="-192"/>
      <point x="15" y="-176"/>
      <point x="15" y="-145" type="curve" smooth="yes"/>
      <point x="15" y="-103"/>
      <point x="48" y="-78"/>
      <point x="127" y="-78" type="curve" smooth="yes"/>
      <point x="157" y="-78" type="line"/>
      <point x="157" y="-89" type="line" smooth="yes"/>
      <point x="157" y="-165"/>
      <point x="120" y="-192"/>
    </contour>
    <contour>
      <point x="206" y="640" type="curve" smooth="yes"/>
      <point x="243" y="640"/>
      <point x="270" y="658"/>
      <point x="270" y="698" type="curve" smooth="yes"/>
      <point x="270" y="739"/>
      <point x="243" y="756"/>
      <point x="206" y="756" type="curve" smooth="yes"/>
      <point x="169" y="756"/>
      <point x="143" y="739"/>
      <point x="143" y="698" type="curve" smooth="yes"/>
      <point x="143" y="658"/>
      <point x="169" y="640"/>
    </contour>
  </outline>
</glyph>
<glyph name="uni02AA" format="2">
  <advance width="897"/>
  <unicode hex="02AA"/>
  <anchor x="449" y="0" name="bottom"/>
  <anchor x="449" y="760" name="top"/>
  <outline>
    <contour>
      <point x="624" y="-10" type="curve" smooth="yes"/>
      <point x="756" y="-10"/>
      <point x="838" y="59"/>
      <point x="838" y="157" type="curve" smooth="yes"/>
      <point x="838" y="228"/>
      <point x="790" y="265"/>
      <point x="679" y="308" type="curve" smooth="yes"/>
      <point x="561" y="346"/>
      <point x="515" y="373"/>
      <point x="515" y="429" type="curve" smooth="yes"/>
      <point x="515" y="477"/>
      <point x="563" y="503"/>
      <point x="628" y="503" type="curve" smooth="yes"/>
      <point x="701" y="503"/>
      <point x="748" y="478"/>
      <point x="748" y="393" type="curve"/>
      <point x="785" y="393"/>
      <point x="814" y="415"/>
      <point x="814" y="452" type="curve" smooth="yes"/>
      <point x="814" y="480"/>
      <point x="774" y="546"/>
      <point x="639" y="546" type="curve" smooth="yes"/>
      <point x="512" y="546"/>
      <point x="430" y="495"/>
      <point x="430" y="402" type="curve" smooth="yes"/>
      <point x="430" y="317"/>
      <point x="489" y="276"/>
      <point x="632" y="224" type="curve"/>
      <point x="731" y="193"/>
      <point x="754" y="169"/>
      <point x="754" y="123" type="curve" smooth="yes"/>
      <point x="754" y="87"/>
      <point x="715" y="34"/>
      <point x="625" y="34" type="curve" smooth="yes"/>
      <point x="542" y="34"/>
      <point x="484" y="69"/>
      <point x="484" y="154" type="curve"/>
      <point x="447" y="154"/>
      <point x="420" y="137"/>
      <point x="420" y="105" type="curve" smooth="yes"/>
      <point x="420" y="80"/>
      <point x="433" y="57"/>
      <point x="458" y="38" type="curve"/>
      <point x="304" y="38" type="line" smooth="yes"/>
      <point x="253" y="38"/>
      <point x="236" y="48"/>
      <point x="236" y="110" type="curve" smooth="yes"/>
      <point x="236" y="760" type="line"/>
      <point x="14" y="760" type="line"/>
      <point x="14" y="722" type="line"/>
      <point x="56" y="722" type="line" smooth="yes"/>
      <point x="104" y="722"/>
      <point x="129" y="717"/>
      <point x="129" y="654" type="curve" smooth="yes"/>
      <point x="129" y="110" type="line" smooth="yes"/>
      <point x="129" y="48"/>
      <point x="113" y="38"/>
      <point x="55" y="38" type="curve" smooth="yes"/>
      <point x="14" y="38" type="line"/>
      <point x="14" y="0" type="line"/>
      <point x="532" y="0" type="line"/>
      <point x="557" y="-6"/>
      <point x="589" y="-10"/>
    </contour>
  </outline>
</glyph>
<glyph name="uni02AB" format="2">
  <advance width="782"/>
  <unicode hex="02AB"/>
  <anchor x="391" y="0" name="bottom"/>
  <anchor x="391" y="760" name="top"/>
  <outline>
    <contour>
      <point x="14" y="0" type="line"/>
      <point x="722" y="0" type="line"/>
      <point x="727" y="164" type="line"/>
      <point x="682" y="164" type="line"/>
      <point x="678" y="140" type="line" smooth="yes"/>
      <point x="666" y="59"/>
      <point x="645" y="48"/>
      <point x="584" y="48" type="curve" smooth="yes"/>
      <point x="369" y="48" type="line"/>
      <point x="713" y="505" type="line"/>
      <point x="713" y="536" type="line"/>
      <point x="236" y="536" type="line"/>
      <point x="236" y="760" type="line"/>
      <point x="14" y="760" type="line"/>
      <point x="14" y="722" type="line"/>
      <point x="56" y="722" type="line" smooth="yes"/>
      <point x="104" y="722"/>
      <point x="129" y="717"/>
      <point x="129" y="654" type="curve" smooth="yes"/>
      <point x="129" y="110" type="line" smooth="yes"/>
      <point x="129" y="48"/>
      <point x="114" y="38"/>
      <point x="53" y="38" type="curve" smooth="yes"/>
      <point x="14" y="38" type="line"/>
    </contour>
    <contour>
      <point x="236" y="14" type="line"/>
      <point x="236" y="488" type="line"/>
      <point x="590" y="488" type="line"/>
    </contour>
  </outline>
</glyph>
<glyph name="uni02BA" format="2">
  <advance width="386"/>
  <unicode hex="02BA"/>
  <outline>
    <contour>
      <point x="231" y="468" type="curve"/>
      <point x="281" y="468" type="line"/>
      <point x="308" y="529"/>
      <point x="342" y="631"/>
      <point x="358" y="703" type="curve"/>
      <point x="349" y="714" type="line"/>
      <point x="265" y="714" type="line"/>
      <point x="259" y="644"/>
      <point x="244" y="534"/>
    </contour>
    <contour>
      <point x="28" y="468" type="curve"/>
      <point x="77" y="468" type="line"/>
      <point x="105" y="529"/>
      <point x="138" y="631"/>
      <point x="154" y="703" type="curve"/>
      <point x="145" y="714" type="line"/>
      <point x="62" y="714" type="line"/>
      <point x="55" y="644"/>
      <point x="41" y="534"/>
    </contour>
  </outline>
</glyph>
<glyph name="uni02C5" format="2">
  <advance width="329"/>
  <unicode hex="02C5"/>
  <outline>
    <contour>
      <point x="149" y="570" type="curve"/>
      <point x="183" y="570" type="line"/>
      <point x="213" y="627"/>
      <point x="263" y="701"/>
      <point x="311" y="772" type="curve"/>
      <point x="311" y="782" type="line"/>
      <point x="265" y="782" type="line"/>
      <point x="245" y="758"/>
      <point x="184" y="648"/>
      <point x="165" y="620" type="curve"/>
      <point x="145" y="648"/>
      <point x="84" y="759"/>
      <point x="65" y="782" type="curve"/>
      <point x="18" y="782" type="line"/>
      <point x="18" y="772" type="line"/>
      <point x="60" y="717"/>
      <point x="110" y="647"/>
    </contour>
  </outline>
</glyph>
<glyph name="tilde" format="2">
  <advance width="500"/>
  <unicode hex="02DC"/>
  <outline>
    <contour>
      <point x="346" y="622" type="curve" smooth="yes"/>
      <point x="414" y="622"/>
      <point x="456" y="674"/>
      <point x="460" y="739" type="curve"/>
      <point x="412" y="739" type="line"/>
      <point x="407" y="714"/>
      <point x="390" y="688"/>
      <point x="352" y="688" type="curve" smooth="yes"/>
      <point x="296" y="688"/>
      <point x="244" y="740"/>
      <point x="161" y="740" type="curve" smooth="yes"/>
      <point x="90" y="740"/>
      <point x="44" y="678"/>
      <point x="40" y="616" type="curve"/>
      <point x="88" y="616" type="line"/>
      <point x="94" y="641"/>
      <point x="110" y="673"/>
      <point x="152" y="673" type="curve" smooth="yes"/>
      <point x="213" y="673"/>
      <point x="271" y="622"/>
    </contour>
  </outline>
</glyph>
<glyph name="uni02EC" format="2">
  <advance width="430"/>
  <unicode hex="02EC"/>
  <outline>
    <contour>
      <point x="174" y="-230" type="curve"/>
      <point x="257" y="-230" type="line"/>
      <point x="293" y="-158"/>
      <point x="347" y="-114"/>
      <point x="390" y="-80" type="curve"/>
      <point x="390" y="-64" type="line"/>
      <point x="349" y="-64" type="line"/>
      <point x="297" y="-86"/>
      <point x="237" y="-156"/>
      <point x="216" y="-200" type="curve"/>
      <point x="195" y="-156"/>
      <point x="133" y="-86"/>
      <point x="82" y="-64" type="curve"/>
      <point x="40" y="-64" type="line"/>
      <point x="40" y="-80" type="line"/>
      <point x="83" y="-111"/>
      <point x="138" y="-156"/>
    </contour>
  </outline>
</glyph>
<glyph name="uni02EF" format="2">
  <advance width="368"/>
  <unicode hex="02EF"/>
  <outline>
    <contour>
      <point x="167" y="-240" type="curve"/>
      <point x="202" y="-240" type="line"/>
      <point x="237" y="-174"/>
      <point x="284" y="-103"/>
      <point x="328" y="-38" type="curve"/>
      <point x="328" y="-28" type="line"/>
      <point x="290" y="-28" type="line"/>
      <point x="265" y="-61"/>
      <point x="205" y="-166"/>
      <point x="184" y="-201" type="curve"/>
      <point x="160" y="-166"/>
      <point x="103" y="-61"/>
      <point x="78" y="-28" type="curve"/>
      <point x="40" y="-28" type="line"/>
      <point x="40" y="-38" type="line"/>
      <point x="85" y="-99"/>
      <point x="133" y="-174"/>
    </contour>
  </outline>
</glyph>
<glyph name="uni02F0" format="2">
  <advance width="368"/>
  <unicode hex="02F0"/>
  <outline>
    <contour>
      <point x="40" y="-240" type="line"/>
      <point x="78" y="-240" type="line"/>
      <point x="103" y="-207"/>
      <point x="160" y="-102"/>
      <point x="184" y="-67" type="curve"/>
      <point x="205" y="-102"/>
      <point x="265" y="-207"/>
      <point x="290" y="-240" type="curve"/>
      <point x="328" y="-240" type="line"/>
      <point x="328" y="-230" type="line"/>
      <point x="284" y="-165"/>
      <point x="237" y="-94"/>
      <point x="202" y="-28" type="curve"/>
      <point x="167" y="-28" type="line"/>
      <point x="133" y="-94"/>
      <point x="85" y="-169"/>
      <point x="40" y="-230" type="curve"/>
    </contour>
  </outline>
</glyph>
<glyph name="uni02F7" format="2">
  <advance width="500"/>
  <unicode hex="02F7"/>
  <outline>
    <contour>
      <point x="346" y="-183" type="curve" smooth="yes"/>
      <point x="418" y="-183"/>
      <point x="456" y="-134"/>
      <point x="460" y="-68" type="curve"/>
      <point x="409" y="-68" type="line"/>
      <point x="404" y="-97"/>
      <point x="383" y="-122"/>
      <point x="349" y="-122" type="curve" smooth="yes"/>
      <point x="294" y="-122"/>
      <point x="246" y="-61"/>
      <point x="161" y="-61" type="curve" smooth="yes"/>
      <point x="86" y="-61"/>
      <point x="44" y="-120"/>
      <point x="40" y="-182" type="curve"/>
      <point x="91" y="-182" type="line"/>
      <point x="97" y="-154"/>
      <point x="115" y="-122"/>
      <point x="155" y="-122" type="curve" smooth="yes"/>
      <point x="215" y="-122"/>
      <point x="269" y="-183"/>
    </contour>
  </outline>
</glyph>
<glyph name="uni02F8" format="2">
  <advance width="305"/>
  <unicode hex="02F8"/>
  <outline>
    <contour>
      <point x="149" y="655" type="curve" smooth="yes"/>
      <point x="184" y="655"/>
      <point x="212" y="669"/>
      <point x="212" y="718" type="curve" smooth="yes"/>
      <point x="212" y="765"/>
      <point x="184" y="777"/>
      <point x="149" y="777" type="curve" smooth="yes"/>
      <point x="117" y="777"/>
      <point x="88" y="765"/>
      <point x="88" y="718" type="curve" smooth="yes"/>
      <point x="88" y="669"/>
      <point x="117" y="655"/>
    </contour>
    <contour>
      <point x="149" y="210" type="curve" smooth="yes"/>
      <point x="184" y="210"/>
      <point x="212" y="224"/>
      <point x="212" y="273" type="curve" smooth="yes"/>
      <point x="212" y="320"/>
      <point x="184" y="332"/>
      <point x="149" y="332" type="curve" smooth="yes"/>
      <point x="117" y="332"/>
      <point x="88" y="320"/>
      <point x="88" y="273" type="curve" smooth="yes"/>
      <point x="88" y="224"/>
      <point x="117" y="210"/>
    </contour>
  </outline>
</glyph>
<glyph name="breveinvertedcomb" format="2">
  <unicode hex="0311"/>
  <anchor x="2" y="536" name="_top"/>
  <anchor x="2" y="744" name="top"/>
  <outline>
    <contour>
      <point x="-163" y="606" type="curve"/>
      <point x="-117" y="606" type="line"/>
      <point x="-104" y="653"/>
      <point x="-56" y="678"/>
      <point x="-1" y="678" type="curve" smooth="yes"/>
      <point x="56" y="678"/>
      <point x="108" y="652"/>
      <point x="120" y="606" type="curve"/>
      <point x="166" y="606" type="line"/>
      <point x="163" y="670"/>
      <point x="99" y="744"/>
      <point x="-1" y="744" type="curve" smooth="yes"/>
      <point x="-97" y="744"/>
      <point x="-160" y="670"/>
    </contour>
  </outline>
</glyph>
<glyph name="ringbelowcomb" format="2">
  <unicode hex="0325"/>
  <anchor x="-1" y="0" name="_bottom"/>
  <anchor x="-1" y="-237" name="bottom"/>
  <outline>
    <contour>
      <point x="-1" y="-237" type="curve" smooth="yes"/>
      <point x="69" y="-237"/>
      <point x="122" y="-201"/>
      <point x="122" y="-134" type="curve" smooth="yes"/>
      <point x="122" y="-66"/>
      <point x="69" y="-29"/>
      <point x="-1" y="-29" type="curve" smooth="yes"/>
      <point x="-70" y="-29"/>
      <point x="-126" y="-66"/>
      <point x="-126" y="-134" type="curve" smooth="yes"/>
      <point x="-126" y="-201"/>
      <point x="-70" y="-237"/>
    </contour>
    <contour>
      <point x="-1" y="-193" type="curve" smooth="yes"/>
      <point x="-46" y="-193"/>
      <point x="-85" y="-170"/>
      <point x="-85" y="-134" type="curve" smooth="yes"/>
      <point x="-85" y="-97"/>
      <point x="-46" y="-75"/>
      <point x="-1" y="-75" type="curve" smooth="yes"/>
      <point x="45" y="-75"/>
      <point x="80" y="-97"/>
      <point x="80" y="-134" type="curve" smooth="yes"/>
      <point x="80" y="-170"/>
      <point x="45" y="-193"/>
    </contour>
  </outline>
</glyph>
<glyph name="cedillacomb" format="2">
  <unicode hex="0327"/>
  <anchor x="-1" y="0" name="_bottom"/>
  <anchor x="-1" y="-227" name="bottom"/>
  <outline>
    <contour>
      <point x="-23" y="-227" type="curve" smooth="yes"/>
      <point x="51" y="-227"/>
      <point x="114" y="-202"/>
      <point x="114" y="-128" type="curve" smooth="yes"/>
      <point x="114" y="-72"/>
      <point x="60" y="-56"/>
      <point x="2" y="-50" type="curve"/>
      <point x="20" y="9" type="line"/>
      <point x="-25" y="9" type="line"/>
      <point x="-51" y="-84" type="line"/>
      <point x="14" y="-87"/>
      <point x="48" y="-93"/>
      <point x="48" y="-134" type="curve" smooth="yes"/>
      <point x="48" y="-177"/>
      <point x="14" y="-186"/>
      <point x="-37" y="-186" type="curve" smooth="yes"/>
      <point x="-66" y="-186"/>
      <point x="-85" y="-182"/>
      <point x="-115" y="-176" type="curve"/>
      <point x="-115" y="-218" type="line"/>
      <point x="-85" y="-225"/>
      <point x="-47" y="-227"/>
    </contour>
  </outline>
</glyph>
<glyph name="bridgebelowcomb" format="2">
  <unicode hex="032A"/>
  <anchor x="0" y="0" name="_bottom"/>
  <anchor x="0" y="-226" name="bottom"/>
  <outline>
    <contour>
      <point x="-218" y="-226" type="line"/>
      <point x="-161" y="-226" type="line"/>
      <point x="-161" y="-214" type="line" smooth="yes"/>
      <point x="-161" y="-163"/>
      <point x="-137" y="-132"/>
      <point x="-53" y="-132" type="curve" smooth="yes"/>
      <point x="53" y="-132" type="line" smooth="yes"/>
      <point x="136" y="-132"/>
      <point x="160" y="-160"/>
      <point x="160" y="-214" type="curve" smooth="yes"/>
      <point x="160" y="-226" type="line"/>
      <point x="218" y="-226" type="line"/>
      <point x="218" y="-72" type="line"/>
      <point x="-218" y="-72" type="line"/>
    </contour>
  </outline>
</glyph>
<glyph name="brevebelowcomb" format="2">
  <unicode hex="032E"/>
  <anchor x="0" y="0" name="_bottom"/>
  <anchor x="0" y="-206" name="bottom"/>
  <outline>
    <contour>
      <point x="-2" y="-206" type="curve" smooth="yes"/>
      <point x="97" y="-206"/>
      <point x="162" y="-133"/>
      <point x="164" y="-69" type="curve"/>
      <point x="118" y="-69" type="line"/>
      <point x="107" y="-114"/>
      <point x="55" y="-141"/>
      <point x="-2" y="-141" type="curve" smooth="yes"/>
      <point x="-58" y="-141"/>
      <point x="-106" y="-115"/>
      <point x="-118" y="-69" type="curve"/>
      <point x="-165" y="-69" type="line"/>
      <point x="-162" y="-132"/>
      <point x="-99" y="-206"/>
    </contour>
  </outline>
</glyph>
<glyph name="tildebelowcomb" format="2">
  <unicode hex="0330"/>
  <anchor x="6" y="0" name="_bottom"/>
  <anchor x="6" y="-192" name="bottom"/>
  <outline>
    <contour>
      <point x="101" y="-192" type="curve" smooth="yes"/>
      <point x="168" y="-192"/>
      <point x="211" y="-133"/>
      <point x="215" y="-60" type="curve"/>
      <point x="167" y="-60" type="line"/>
      <point x="162" y="-89"/>
      <point x="145" y="-120"/>
      <point x="107" y="-120" type="curve" smooth="yes"/>
      <point x="51" y="-120"/>
      <point x="-1" y="-47"/>
      <point x="-84" y="-47" type="curve" smooth="yes"/>
      <point x="-154" y="-47"/>
      <point x="-200" y="-117"/>
      <point x="-204" y="-187" type="curve"/>
      <point x="-156" y="-187" type="line"/>
      <point x="-151" y="-158"/>
      <point x="-135" y="-120"/>
      <point x="-93" y="-120" type="curve" smooth="yes"/>
      <point x="-31" y="-120"/>
      <point x="26" y="-192"/>
    </contour>
  </outline>
</glyph>
<glyph name="slashshortoverlaycomb" format="2">
  <unicode hex="0337"/>
  <anchor x="-6" y="287" name="_center"/>
  <outline>
    <contour>
      <point x="-170" y="176" type="line"/>
      <point x="183" y="354" type="line"/>
      <point x="157" y="399" type="line"/>
      <point x="-196" y="220" type="line"/>
    </contour>
  </outline>
</glyph>
<glyph name="slashlongoverlaycomb" format="2">
  <unicode hex="0338"/>
  <anchor x="0" y="350" name="_center"/>
  <outline>
    <contour>
      <point x="-174" y="-74" type="line"/>
      <point x="222" y="758" type="line"/>
      <point x="175" y="774" type="line"/>
      <point x="-221" y="-58" type="line"/>
    </contour>
  </outline>
</glyph>
<glyph name="seagullbelowcomb" format="2">
  <unicode hex="033C"/>
  <anchor x="-1" y="0" name="_bottom"/>
  <anchor x="-1" y="-183" name="bottom"/>
  <outline>
    <contour>
      <point x="-194" y="-183" type="curve"/>
      <point x="-156" y="-183" type="line"/>
      <point x="-156" y="-116"/>
      <point x="-129" y="-94"/>
      <point x="-85" y="-94" type="curve" smooth="yes"/>
      <point x="-39" y="-94"/>
      <point x="-13" y="-120"/>
      <point x="-16" y="-183" type="curve"/>
      <point x="20" y="-183" type="line"/>
      <point x="18" y="-119"/>
      <point x="43" y="-94"/>
      <point x="88" y="-94" type="curve" smooth="yes"/>
      <point x="130" y="-94"/>
      <point x="154" y="-117"/>
      <point x="154" y="-183" type="curve"/>
      <point x="193" y="-183" type="line"/>
      <point x="189" y="-95"/>
      <point x="163" y="-62"/>
      <point x="88" y="-62" type="curve" smooth="yes"/>
      <point x="40" y="-62"/>
      <point x="15" y="-87"/>
      <point x="2" y="-110" type="curve"/>
      <point x="-11" y="-87"/>
      <point x="-36" y="-62"/>
      <point x="-85" y="-62" type="curve" smooth="yes"/>
      <point x="-159" y="-62"/>
      <point x="-189" y="-96"/>
    </contour>
  </outline>
</glyph>
<glyph name="leftanglebelowcomb" format="2">
  <unicode hex="0349"/>
  <anchor x="-1" y="0" name="_bottom"/>
  <anchor x="-1" y="-230" name="bottom"/>
  <outline>
    <contour>
      <point x="32" y="-230" type="line"/>
      <point x="91" y="-230" type="line"/>
      <point x="91" y="-78" type="line"/>
      <point x="-93" y="-78" type="line"/>
      <point x="-93" y="-130" type="line"/>
      <point x="32" y="-130" type="line"/>
    </contour>
  </outline>
</glyph>
<glyph name="doublebrevecomb" format="2">
  <unicode hex="035D"/>
  <anchor x="0" y="536" name="_top"/>
  <anchor x="0" y="783" name="top"/>
  <outline>
    <contour>
      <point x="0" y="595" type="curve" smooth="yes"/>
      <point x="209" y="595"/>
      <point x="368" y="657"/>
      <point x="456" y="783" type="curve"/>
      <point x="405" y="783" type="line"/>
      <point x="337" y="698"/>
      <point x="191" y="639"/>
      <point x="0" y="639" type="curve" smooth="yes"/>
      <point x="-193" y="639"/>
      <point x="-337" y="698"/>
      <point x="-406" y="783" type="curve"/>
      <point x="-456" y="783" type="line"/>
      <point x="-369" y="656"/>
      <point x="-208" y="595"/>
    </contour>
  </outline>
</glyph>
<glyph name="tildedoublecomb" format="2">
  <unicode hex="0360"/>
  <anchor x="0" y="536" name="_top"/>
  <anchor x="0" y="771" name="top"/>
  <outline>
    <contour>
      <point x="-473" y="627" type="curve"/>
      <point x="-413" y="627" type="line"/>
      <point x="-387" y="672"/>
      <point x="-342" y="688"/>
      <point x="-237" y="688" type="curve" smooth="yes"/>
      <point x="-66" y="688"/>
      <point x="88" y="625"/>
      <point x="254" y="625" type="curve" smooth="yes"/>
      <point x="381" y="625"/>
      <point x="461" y="678"/>
      <point x="473" y="767" type="curve"/>
      <point x="415" y="767" type="line"/>
      <point x="401" y="726"/>
      <point x="359" y="705"/>
      <point x="224" y="705" type="curve" smooth="yes"/>
      <point x="81" y="705"/>
      <point x="-131" y="767"/>
      <point x="-269" y="767" type="curve" smooth="yes"/>
      <point x="-383" y="767"/>
      <point x="-454" y="702"/>
    </contour>
  </outline>
</glyph>
<glyph name="Heta" format="2">
  <advance width="715"/>
  <unicode hex="0370"/>
  <anchor x="358" y="0" name="bottom"/>
  <anchor x="358" y="714" name="top"/>
  <outline>
    <contour>
      <point x="47" y="0" type="line"/>
      <point x="382" y="0" type="line"/>
      <point x="382" y="38" type="line"/>
      <point x="326" y="38" type="line" smooth="yes"/>
      <point x="284" y="38"/>
      <point x="275" y="55"/>
      <point x="275" y="109" type="curve" smooth="yes"/>
      <point x="275" y="351" type="line"/>
      <point x="680" y="351" type="line"/>
      <point x="680" y="395" type="line"/>
      <point x="275" y="395" type="line"/>
      <point x="275" y="604" type="line" smooth="yes"/>
      <point x="275" y="662"/>
      <point x="284" y="676"/>
      <point x="324" y="676" type="curve" smooth="yes"/>
      <point x="382" y="676" type="line"/>
      <point x="382" y="714" type="line"/>
      <point x="47" y="714" type="line"/>
      <point x="47" y="676" type="line"/>
      <point x="109" y="676" type="line" smooth="yes"/>
      <point x="153" y="676"/>
      <point x="166" y="662"/>
      <point x="166" y="602" type="curve" smooth="yes"/>
      <point x="166" y="109" type="line" smooth="yes"/>
      <point x="166" y="55"/>
      <point x="155" y="38"/>
      <point x="113" y="38" type="curve" smooth="yes"/>
      <point x="47" y="38" type="line"/>
    </contour>
  </outline>
</glyph>
<glyph name="uni0374" format="2">
  <advance width="237"/>
  <unicode hex="0374"/>
  <outline>
    <contour>
      <point x="62" y="533" type="line"/>
      <point x="110" y="533" type="line"/>
      <point x="149" y="570"/>
      <point x="189" y="659"/>
      <point x="210" y="704" type="curve"/>
      <point x="210" y="714" type="line"/>
      <point x="114" y="714" type="line"/>
      <point x="110" y="677"/>
      <point x="86" y="601"/>
      <point x="62" y="548" type="curve"/>
    </contour>
  </outline>
</glyph>
<glyph name="uni0375" format="2">
  <advance width="237"/>
  <unicode hex="0375"/>
  <outline>
    <contour>
      <point x="176" y="-59" type="line"/>
      <point x="129" y="-59" type="line"/>
      <point x="90" y="-95"/>
      <point x="49" y="-185"/>
      <point x="28" y="-230" type="curve"/>
      <point x="28" y="-240" type="line"/>
      <point x="124" y="-240" type="line"/>
      <point x="128" y="-203"/>
      <point x="152" y="-127"/>
      <point x="176" y="-74" type="curve"/>
    </contour>
  </outline>
</glyph>
<glyph name="anoteleia" format="2">
  <advance width="269"/>
  <unicode hex="0387"/>
  <outline>
    <contour>
      <point x="134" y="408" type="curve" smooth="yes"/>
      <point x="168" y="408"/>
      <point x="197" y="420"/>
      <point x="197" y="470" type="curve" smooth="yes"/>
      <point x="197" y="518"/>
      <point x="168" y="529"/>
      <point x="134" y="529" type="curve" smooth="yes"/>
      <point x="101" y="529"/>
      <point x="72" y="518"/>
      <point x="72" y="470" type="curve" smooth="yes"/>
      <point x="72" y="420"/>
      <point x="101" y="408"/>
    </contour>
  </outline>
</glyph>
<glyph name="Omega" format="2">
  <advance width="895"/>
  <unicode hex="03A9"/>
  <anchor x="448" y="0" name="bottom"/>
  <anchor x="448" y="714" name="top"/>
  <anchor x="20" y="714" name="topleft"/>
  <outline>
    <contour>
      <point x="57" y="0" type="line"/>
      <point x="409" y="0" type="line"/>
      <point x="396" y="206" type="line"/>
      <point x="250" y="209"/>
      <point x="190" y="302"/>
      <point x="190" y="440" type="curve" smooth="yes"/>
      <point x="190" y="585"/>
      <point x="270" y="679"/>
      <point x="445" y="679" type="curve" smooth="yes"/>
      <point x="622" y="679"/>
      <point x="705" y="574"/>
      <point x="705" y="440" type="curve" smooth="yes"/>
      <point x="705" y="302"/>
      <point x="645" y="209"/>
      <point x="497" y="206" type="curve"/>
      <point x="485" y="0" type="line"/>
      <point x="836" y="0" type="line"/>
      <point x="844" y="163" type="line"/>
      <point x="803" y="163" type="line"/>
      <point x="797" y="133" type="line" smooth="yes"/>
      <point x="788" y="80"/>
      <point x="778" y="71"/>
      <point x="723" y="71" type="curve" smooth="yes"/>
      <point x="536" y="71" type="line"/>
      <point x="546" y="167" type="line"/>
      <point x="720" y="185"/>
      <point x="823" y="274"/>
      <point x="823" y="442" type="curve" smooth="yes"/>
      <point x="823" y="596"/>
      <point x="695" y="725"/>
      <point x="445" y="725" type="curve" smooth="yes"/>
      <point x="194" y="725"/>
      <point x="73" y="608"/>
      <point x="73" y="442" type="curve" smooth="yes"/>
      <point x="73" y="271"/>
      <point x="177" y="186"/>
      <point x="348" y="168" type="curve"/>
      <point x="359" y="68" type="line"/>
      <point x="158" y="68" type="line" smooth="yes"/>
      <point x="112" y="68"/>
      <point x="104" y="77"/>
      <point x="97" y="130" type="curve" smooth="yes"/>
      <point x="91" y="160" type="line"/>
      <point x="48" y="160" type="line"/>
    </contour>
  </outline>
</glyph>
<glyph name="delta" format="2">
  <advance width="689"/>
  <unicode hex="03B4"/>
  <anchor x="345" y="0" name="bottom"/>
  <anchor x="345" y="765" name="top"/>
  <outline>
    <contour>
      <point x="335" y="-10" type="curve" smooth="yes"/>
      <point x="502" y="-10"/>
      <point x="620" y="79"/>
      <point x="620" y="236" type="curve" smooth="yes"/>
      <point x="620" y="386"/>
      <point x="513" y="437"/>
      <point x="391" y="496" type="curve" smooth="yes"/>
      <point x="278" y="556"/>
      <point x="255" y="587"/>
      <point x="255" y="648" type="curve" smooth="yes"/>
      <point x="255" y="692"/>
      <point x="309" y="723"/>
      <point x="381" y="723" type="curve" smooth="yes"/>
      <point x="474" y="723"/>
      <point x="518" y="672"/>
      <point x="518" y="594" type="curve"/>
      <point x="554" y="594"/>
      <point x="584" y="609"/>
      <point x="584" y="637" type="curve" smooth="yes"/>
      <point x="584" y="702"/>
      <point x="527" y="765"/>
      <point x="387" y="765" type="curve" smooth="yes"/>
      <point x="267" y="765"/>
      <point x="167" y="721"/>
      <point x="167" y="628" type="curve" smooth="yes"/>
      <point x="167" y="540"/>
      <point x="230" y="500"/>
      <point x="299" y="460" type="curve"/>
      <point x="167" y="428"/>
      <point x="66" y="343"/>
      <point x="66" y="209" type="curve" smooth="yes"/>
      <point x="66" y="71"/>
      <point x="179" y="-10"/>
    </contour>
    <contour>
      <point x="337" y="35" type="curve" smooth="yes"/>
      <point x="243" y="35"/>
      <point x="175" y="96"/>
      <point x="175" y="219" type="curve" smooth="yes"/>
      <point x="175" y="349"/>
      <point x="274" y="420"/>
      <point x="343" y="431" type="curve"/>
      <point x="423" y="399"/>
      <point x="511" y="347"/>
      <point x="511" y="222" type="curve" smooth="yes"/>
      <point x="511" y="107"/>
      <point x="442" y="35"/>
    </contour>
  </outline>
</glyph>
<glyph name="pi" format="2">
  <advance width="770"/>
  <unicode hex="03C0"/>
  <anchor x="385" y="0" name="bottom"/>
  <anchor x="385" y="536" name="top"/>
  <outline>
    <contour>
      <point x="591" y="-8" type="curve" smooth="yes"/>
      <point x="628" y="-8"/>
      <point x="652" y="0"/>
      <point x="684" y="14" type="curve"/>
      <point x="684" y="63" type="line"/>
      <point x="671" y="55"/>
      <point x="645" y="48"/>
      <point x="613" y="48" type="curve" smooth="yes"/>
      <point x="564" y="48"/>
      <point x="555" y="91"/>
      <point x="555" y="121" type="curve" smooth="yes"/>
      <point x="555" y="170"/>
      <point x="573" y="349"/>
      <point x="585" y="449" type="curve"/>
      <point x="725" y="449" type="line"/>
      <point x="725" y="536" type="line"/>
      <point x="184" y="536" type="line" smooth="yes"/>
      <point x="85" y="536"/>
      <point x="40" y="474"/>
      <point x="40" y="381" type="curve"/>
      <point x="86" y="381" type="line"/>
      <point x="95" y="437"/>
      <point x="111" y="449"/>
      <point x="156" y="449" type="curve" smooth="yes"/>
      <point x="244" y="449" type="line"/>
      <point x="218" y="201" type="line" smooth="yes"/>
      <point x="207" y="74"/>
      <point x="189" y="40"/>
      <point x="111" y="39" type="curve"/>
      <point x="111" y="0" type="line"/>
      <point x="147" y="0" type="line"/>
      <point x="240" y="0"/>
      <point x="267" y="65"/>
      <point x="276" y="165" type="curve" smooth="yes"/>
      <point x="298" y="449" type="line"/>
      <point x="527" y="449" type="line"/>
      <point x="506" y="348"/>
      <point x="486" y="124"/>
      <point x="486" y="94" type="curve" smooth="yes"/>
      <point x="487" y="32"/>
      <point x="520" y="-8"/>
    </contour>
  </outline>
</glyph>
<glyph name="sigma" format="2">
  <advance width="718"/>
  <unicode hex="03C3"/>
  <anchor x="359" y="0" name="bottom"/>
  <anchor x="359" y="536" name="top"/>
  <outline>
    <contour>
      <point x="341" y="-10" type="curve" smooth="yes"/>
      <point x="513" y="-10"/>
      <point x="629" y="93"/>
      <point x="629" y="224" type="curve" smooth="yes"/>
      <point x="629" y="343"/>
      <point x="593" y="390"/>
      <point x="528" y="463" type="curve"/>
      <point x="700" y="463" type="line"/>
      <point x="700" y="536" type="line"/>
      <point x="421" y="536" type="line" smooth="yes"/>
      <point x="206" y="536"/>
      <point x="68" y="456"/>
      <point x="68" y="237" type="curve" smooth="yes"/>
      <point x="68" y="86"/>
      <point x="168" y="-10"/>
    </contour>
    <contour>
      <point x="344" y="34" type="curve" smooth="yes"/>
      <point x="238" y="34"/>
      <point x="177" y="112"/>
      <point x="177" y="237" type="curve" smooth="yes"/>
      <point x="177" y="392"/>
      <point x="266" y="463"/>
      <point x="397" y="463" type="curve" smooth="yes"/>
      <point x="451" y="463" type="line"/>
      <point x="501" y="381"/>
      <point x="520" y="341"/>
      <point x="520" y="239" type="curve" smooth="yes"/>
      <point x="520" y="96"/>
      <point x="438" y="34"/>
    </contour>
  </outline>
</glyph>
<glyph name="chi" format="2">
  <advance width="661"/>
  <unicode hex="03C7"/>
  <anchor x="330" y="-240" name="bottom"/>
  <anchor x="330" y="536" name="top"/>
  <anchor x="641" y="536" name="topright"/>
  <outline>
    <contour>
      <point x="26" y="-240" type="line"/>
      <point x="142" y="-240" type="line"/>
      <point x="332" y="88" type="line"/>
      <point x="412" y="-108" type="line" smooth="yes"/>
      <point x="439" y="-175"/>
      <point x="459" y="-237"/>
      <point x="541" y="-237" type="curve" smooth="yes"/>
      <point x="578" y="-237"/>
      <point x="608" y="-220"/>
      <point x="634" y="-190" type="curve"/>
      <point x="613" y="-163" type="line"/>
      <point x="605" y="-171"/>
      <point x="588" y="-182"/>
      <point x="562" y="-182" type="curve" smooth="yes"/>
      <point x="505" y="-182"/>
      <point x="488" y="-120"/>
      <point x="462" y="-61" type="curve" smooth="yes"/>
      <point x="374" y="134" type="line"/>
      <point x="630" y="536" type="line"/>
      <point x="520" y="536" type="line"/>
      <point x="329" y="221" type="line"/>
      <point x="248" y="434" type="line" smooth="yes"/>
      <point x="218" y="507"/>
      <point x="192" y="542"/>
      <point x="125" y="542" type="curve" smooth="yes"/>
      <point x="88" y="542"/>
      <point x="52" y="524"/>
      <point x="22" y="497" type="curve"/>
      <point x="42" y="468" type="line"/>
      <point x="52" y="477"/>
      <point x="72" y="488"/>
      <point x="98" y="488" type="curve" smooth="yes"/>
      <point x="154" y="488"/>
      <point x="174" y="442"/>
      <point x="201" y="378" type="curve" smooth="yes"/>
      <point x="286" y="180" type="line"/>
    </contour>
  </outline>
</glyph>
<glyph name="uni03D0" format="2">
  <advance width="689"/>
  <unicode hex="03D0"/>
  <anchor x="344" y="-10" name="bottom"/>
  <anchor x="344" y="760" name="top"/>
  <outline>
    <contour>
      <point x="345" y="-10" type="curve" smooth="yes"/>
      <point x="530" y="-10"/>
      <point x="620" y="90"/>
      <point x="620" y="243" type="curve" smooth="yes"/>
      <point x="620" y="388"/>
      <point x="537" y="469"/>
      <point x="365" y="469" type="curve" smooth="yes"/>
      <point x="243" y="469"/>
      <point x="164" y="406"/>
      <point x="133" y="330" type="curve"/>
      <point x="127" y="330" type="line"/>
      <point x="132" y="446"/>
      <point x="151" y="535"/>
      <point x="183" y="593" type="curve"/>
      <point x="260" y="534"/>
      <point x="320" y="529"/>
      <point x="379" y="529" type="curve" smooth="yes"/>
      <point x="469" y="529"/>
      <point x="554" y="565"/>
      <point x="554" y="651" type="curve" smooth="yes"/>
      <point x="554" y="722"/>
      <point x="483" y="760"/>
      <point x="382" y="760" type="curve" smooth="yes"/>
      <point x="167" y="760"/>
      <point x="68" y="570"/>
      <point x="68" y="318" type="curve" smooth="yes"/>
      <point x="68" y="90"/>
      <point x="166" y="-10"/>
    </contour>
    <contour>
      <point x="347" y="34" type="curve" smooth="yes"/>
      <point x="248" y="34"/>
      <point x="183" y="105"/>
      <point x="183" y="249" type="curve" smooth="yes"/>
      <point x="183" y="327"/>
      <point x="227" y="424"/>
      <point x="351" y="424" type="curve" smooth="yes"/>
      <point x="486" y="424"/>
      <point x="512" y="329"/>
      <point x="512" y="237" type="curve" smooth="yes"/>
      <point x="512" y="118"/>
      <point x="468" y="34"/>
    </contour>
    <contour>
      <point x="375" y="574" type="curve" smooth="yes"/>
      <point x="327" y="574"/>
      <point x="249" y="592"/>
      <point x="204" y="631" type="curve"/>
      <point x="244" y="684"/>
      <point x="307" y="712"/>
      <point x="378" y="712" type="curve" smooth="yes"/>
      <point x="454" y="712"/>
      <point x="497" y="694"/>
      <point x="497" y="644" type="curve" smooth="yes"/>
      <point x="497" y="612"/>
      <point x="453" y="574"/>
    </contour>
  </outline>
</glyph>
<glyph name="uni03D2" format="2">
  <advance width="765"/>
  <unicode hex="03D2"/>
  <anchor x="383" y="714" name="top"/>
  <outline>
    <contour>
      <point x="173" y="0" type="line"/>
      <point x="566" y="0" type="line"/>
      <point x="566" y="38" type="line"/>
      <point x="460" y="38" type="line" smooth="yes"/>
      <point x="447" y="38"/>
      <point x="424" y="51"/>
      <point x="424" y="124" type="curve" smooth="yes"/>
      <point x="424" y="205" type="line" smooth="yes"/>
      <point x="424" y="286"/>
      <point x="504" y="450"/>
      <point x="538" y="517" type="curve" smooth="yes"/>
      <point x="595" y="628"/>
      <point x="610" y="663"/>
      <point x="669" y="663" type="curve" smooth="yes"/>
      <point x="702" y="663"/>
      <point x="728" y="647"/>
      <point x="730" y="624" type="curve"/>
      <point x="757" y="631"/>
      <point x="771" y="643"/>
      <point x="771" y="662" type="curve" smooth="yes"/>
      <point x="771" y="698"/>
      <point x="737" y="721"/>
      <point x="681" y="721" type="curve" smooth="yes"/>
      <point x="605" y="721"/>
      <point x="565" y="704"/>
      <point x="508" y="581" type="curve" smooth="yes"/>
      <point x="476" y="514"/>
      <point x="419" y="389"/>
      <point x="397" y="318" type="curve"/>
      <point x="385" y="381"/>
      <point x="360" y="477"/>
      <point x="295" y="582" type="curve" smooth="yes"/>
      <point x="250" y="647"/>
      <point x="183" y="714"/>
      <point x="103" y="714" type="curve" smooth="yes"/>
      <point x="-1" y="714" type="line"/>
      <point x="-1" y="671" type="line"/>
      <point x="20" y="671" type="line" smooth="yes"/>
      <point x="79" y="671"/>
      <point x="131" y="618"/>
      <point x="176" y="562" type="curve" smooth="yes"/>
      <point x="242" y="477"/>
      <point x="314" y="260"/>
      <point x="314" y="197" type="curve" smooth="yes"/>
      <point x="314" y="125" type="line" smooth="yes"/>
      <point x="314" y="52"/>
      <point x="296" y="38"/>
      <point x="273" y="38" type="curve" smooth="yes"/>
      <point x="173" y="38" type="line"/>
    </contour>
  </outline>
</glyph>
<glyph name="uni03D9" format="2">
  <advance width="690"/>
  <unicode hex="03D9"/>
  <anchor x="345" y="-240" name="bottom"/>
  <anchor x="345" y="536" name="top"/>
  <outline>
    <contour>
      <point x="292" y="-240" type="line"/>
      <point x="397" y="-240" type="line"/>
      <point x="397" y="-6" type="line"/>
      <point x="543" y="10"/>
      <point x="620" y="103"/>
      <point x="620" y="269" type="curve" smooth="yes"/>
      <point x="620" y="465"/>
      <point x="517" y="546"/>
      <point x="349" y="546" type="curve" smooth="yes"/>
      <point x="168" y="546"/>
      <point x="68" y="458"/>
      <point x="68" y="269" type="curve" smooth="yes"/>
      <point x="68" y="103"/>
      <point x="153" y="12"/>
      <point x="292" y="-4" type="curve"/>
    </contour>
    <contour>
      <point x="343" y="35" type="curve" smooth="yes"/>
      <point x="226" y="35"/>
      <point x="178" y="124"/>
      <point x="177" y="269" type="curve" smooth="yes"/>
      <point x="176" y="423"/>
      <point x="227" y="500"/>
      <point x="350" y="500" type="curve" smooth="yes"/>
      <point x="459" y="500"/>
      <point x="513" y="428"/>
      <point x="513" y="269" type="curve" smooth="yes"/>
      <point x="513" y="131"/>
      <point x="468" y="35"/>
    </contour>
  </outline>
</glyph>
<glyph name="uni03DB" format="2">
  <advance width="595"/>
  <unicode hex="03DB"/>
  <anchor x="298" y="-203" name="bottom"/>
  <anchor x="298" y="536" name="top"/>
  <outline>
    <contour>
      <point x="362" y="-203" type="curve" smooth="yes"/>
      <point x="421" y="-203"/>
      <point x="524" y="-149"/>
      <point x="524" y="-34" type="curve" smooth="yes"/>
      <point x="524" y="39"/>
      <point x="470" y="60"/>
      <point x="346" y="97" type="curve" smooth="yes"/>
      <point x="244" y="128"/>
      <point x="175" y="137"/>
      <point x="175" y="286" type="curve" smooth="yes"/>
      <point x="175" y="450"/>
      <point x="253" y="487"/>
      <point x="321" y="487" type="curve" smooth="yes"/>
      <point x="383" y="487"/>
      <point x="402" y="454"/>
      <point x="465" y="454" type="curve" smooth="yes"/>
      <point x="530" y="454"/>
      <point x="563" y="501"/>
      <point x="569" y="579" type="curve"/>
      <point x="531" y="579" type="line"/>
      <point x="525" y="547"/>
      <point x="504" y="532"/>
      <point x="477" y="532" type="curve" smooth="yes"/>
      <point x="442" y="532"/>
      <point x="420" y="548"/>
      <point x="355" y="548" type="curve" smooth="yes"/>
      <point x="193" y="548"/>
      <point x="68" y="471"/>
      <point x="68" y="278" type="curve" smooth="yes"/>
      <point x="68" y="104"/>
      <point x="144" y="52"/>
      <point x="276" y="23" type="curve" smooth="yes"/>
      <point x="403" y="-10"/>
      <point x="441" y="-16"/>
      <point x="441" y="-69" type="curve" smooth="yes"/>
      <point x="441" y="-114"/>
      <point x="379" y="-142"/>
      <point x="322" y="-162" type="curve"/>
      <point x="322" y="-186"/>
      <point x="327" y="-203"/>
    </contour>
  </outline>
</glyph>
<glyph name="uni03DD" format="2">
  <advance width="626"/>
  <unicode hex="03DD"/>
  <anchor x="313" y="-240" name="bottom"/>
  <anchor x="313" y="536" name="top"/>
  <outline>
    <contour>
      <point x="125" y="-240" type="line"/>
      <point x="232" y="-240" type="line"/>
      <point x="232" y="175" type="line"/>
      <point x="353" y="175" type="line" smooth="yes"/>
      <point x="399" y="175"/>
      <point x="413" y="164"/>
      <point x="420" y="81" type="curve"/>
      <point x="467" y="81" type="line"/>
      <point x="463" y="218" type="line"/>
      <point x="232" y="218" type="line"/>
      <point x="232" y="491" type="line"/>
      <point x="417" y="491" type="line" smooth="yes"/>
      <point x="492" y="491"/>
      <point x="509" y="485"/>
      <point x="514" y="438" type="curve" smooth="yes"/>
      <point x="522" y="364" type="line"/>
      <point x="569" y="364" type="line"/>
      <point x="561" y="536" type="line"/>
      <point x="25" y="536" type="line"/>
      <point x="25" y="498" type="line"/>
      <point x="66" y="498" type="line" smooth="yes"/>
      <point x="112" y="498"/>
      <point x="125" y="492"/>
      <point x="125" y="438" type="curve" smooth="yes"/>
    </contour>
  </outline>
</glyph>
<glyph name="uni03DF" format="2">
  <advance width="621"/>
  <unicode hex="03DF"/>
  <anchor x="311" y="-223" name="bottom"/>
  <anchor x="311" y="760" name="top"/>
  <outline>
    <contour>
      <point x="420" y="-223" type="curve" smooth="yes"/>
      <point x="474" y="-223"/>
      <point x="497" y="-199"/>
      <point x="501" y="-173" type="curve"/>
      <point x="425" y="-176"/>
      <point x="387" y="-136"/>
      <point x="387" y="-69" type="curve" smooth="yes"/>
      <point x="387" y="122"/>
      <point x="518" y="286"/>
      <point x="556" y="328" type="curve"/>
      <point x="556" y="396" type="line"/>
      <point x="136" y="265" type="line"/>
      <point x="218" y="392"/>
      <point x="294" y="494"/>
      <point x="294" y="621" type="curve" smooth="yes"/>
      <point x="294" y="699"/>
      <point x="252" y="760"/>
      <point x="178" y="760" type="curve" smooth="yes"/>
      <point x="136" y="760"/>
      <point x="111" y="733"/>
      <point x="112" y="706" type="curve"/>
      <point x="164" y="696"/>
      <point x="209" y="690"/>
      <point x="209" y="601" type="curve" smooth="yes"/>
      <point x="209" y="504"/>
      <point x="169" y="404"/>
      <point x="65" y="224" type="curve"/>
      <point x="65" y="158" type="line"/>
      <point x="483" y="287" type="line"/>
      <point x="452" y="283"/>
      <point x="304" y="98"/>
      <point x="304" y="-84" type="curve" smooth="yes"/>
      <point x="304" y="-164"/>
      <point x="346" y="-223"/>
    </contour>
  </outline>
</glyph>
<glyph name="uni03E1" format="2">
  <advance width="512"/>
  <unicode hex="03E1"/>
  <anchor x="257" y="-240" name="bottom"/>
  <anchor x="257" y="547" name="top"/>
  <outline>
    <contour>
      <point x="267" y="-240" type="line"/>
      <point x="358" y="-151"/>
      <point x="447" y="-33"/>
      <point x="447" y="124" type="curve" smooth="yes"/>
      <point x="447" y="394"/>
      <point x="281" y="521"/>
      <point x="26" y="547" type="curve"/>
      <point x="26" y="499" type="line"/>
      <point x="156" y="468"/>
      <point x="242" y="407"/>
      <point x="292" y="322" type="curve"/>
      <point x="67" y="264" type="line"/>
      <point x="79" y="219" type="line"/>
      <point x="309" y="280" type="line"/>
      <point x="322" y="244"/>
      <point x="332" y="209"/>
      <point x="338" y="172" type="curve"/>
      <point x="117" y="120" type="line"/>
      <point x="130" y="75" type="line"/>
      <point x="341" y="127" type="line"/>
      <point x="343" y="110"/>
      <point x="344" y="93"/>
      <point x="344" y="75" type="curve" smooth="yes"/>
      <point x="344" y="-41"/>
      <point x="280" y="-132"/>
      <point x="222" y="-221" type="curve"/>
    </contour>
  </outline>
</glyph>
<glyph name="uni03FA" format="2">
  <advance width="1132"/>
  <unicode hex="03FA"/>
  <anchor x="566" y="0" name="bottom"/>
  <anchor x="566" y="714" name="top"/>
  <outline>
    <contour>
      <point x="48" y="0" type="line"/>
      <point x="329" y="0" type="line"/>
      <point x="329" y="38" type="line"/>
      <point x="288" y="38" type="line" smooth="yes"/>
      <point x="238" y="38"/>
      <point x="224" y="52"/>
      <point x="224" y="119" type="curve" smooth="yes"/>
      <point x="224" y="638" type="line"/>
      <point x="515" y="248" type="line"/>
      <point x="570" y="248" type="line"/>
      <point x="862" y="630" type="line"/>
      <point x="862" y="115" type="line" smooth="yes"/>
      <point x="862" y="52"/>
      <point x="849" y="38"/>
      <point x="796" y="38" type="curve" smooth="yes"/>
      <point x="734" y="38" type="line"/>
      <point x="734" y="0" type="line"/>
      <point x="1085" y="0" type="line"/>
      <point x="1085" y="38" type="line"/>
      <point x="1032" y="38" type="line" smooth="yes"/>
      <point x="980" y="38"/>
      <point x="970" y="52"/>
      <point x="970" y="119" type="curve" smooth="yes"/>
      <point x="970" y="596" type="line" smooth="yes"/>
      <point x="970" y="664"/>
      <point x="982" y="676"/>
      <point x="1031" y="676" type="curve" smooth="yes"/>
      <point x="1085" y="676" type="line"/>
      <point x="1085" y="714" type="line"/>
      <point x="847" y="714" type="line"/>
      <point x="570" y="363" type="line"/>
      <point x="303" y="714" type="line"/>
      <point x="48" y="714" type="line"/>
      <point x="48" y="676" type="line"/>
      <point x="105" y="676" type="line" smooth="yes"/>
      <point x="156" y="676"/>
      <point x="166" y="662"/>
      <point x="166" y="596" type="curve" smooth="yes"/>
      <point x="166" y="117" type="line" smooth="yes"/>
      <point x="166" y="52"/>
      <point x="152" y="38"/>
      <point x="103" y="38" type="curve" smooth="yes"/>
      <point x="48" y="38" type="line"/>
    </contour>
  </outline>
</glyph>
<glyph name="afii10058" format="2">
  <advance width="1060"/>
  <unicode hex="0409"/>
  <anchor x="530" y="0" name="bottom"/>
  <anchor x="530" y="714" name="top"/>
  <outline>
    <contour>
      <point x="104" y="-7" type="curve" smooth="yes"/>
      <point x="196" y="-7"/>
      <point x="238" y="49"/>
      <point x="273" y="159" type="curve" smooth="yes"/>
      <point x="323" y="317"/>
      <point x="353" y="549"/>
      <point x="366" y="677" type="curve"/>
      <point x="527" y="677" type="line"/>
      <point x="527" y="119" type="line" smooth="yes"/>
      <point x="527" y="53"/>
      <point x="514" y="38"/>
      <point x="483" y="38" type="curve" smooth="yes"/>
      <point x="414" y="38" type="line"/>
      <point x="414" y="0" type="line"/>
      <point x="715" y="0" type="line" smooth="yes"/>
      <point x="930" y="0"/>
      <point x="1021" y="87"/>
      <point x="1021" y="200" type="curve" smooth="yes"/>
      <point x="1021" y="328"/>
      <point x="933" y="397"/>
      <point x="744" y="397" type="curve" smooth="yes"/>
      <point x="636" y="397" type="line"/>
      <point x="636" y="599" type="line" smooth="yes"/>
      <point x="636" y="658"/>
      <point x="647" y="676"/>
      <point x="667" y="676" type="curve" smooth="yes"/>
      <point x="782" y="676" type="line"/>
      <point x="782" y="714" type="line"/>
      <point x="193" y="714" type="line"/>
      <point x="193" y="676" type="line"/>
      <point x="257" y="676" type="line" smooth="yes"/>
      <point x="291" y="676"/>
      <point x="304" y="669"/>
      <point x="304" y="607" type="curve" smooth="yes"/>
      <point x="304" y="553"/>
      <point x="265" y="307"/>
      <point x="226" y="181" type="curve" smooth="yes"/>
      <point x="201" y="109"/>
      <point x="179" y="49"/>
      <point x="109" y="49" type="curve" smooth="yes"/>
      <point x="73" y="49"/>
      <point x="50" y="64"/>
      <point x="40" y="112" type="curve"/>
      <point x="23" y="112"/>
      <point x="0" y="102"/>
      <point x="0" y="70" type="curve" smooth="yes"/>
      <point x="0" y="22"/>
      <point x="44" y="-7"/>
    </contour>
    <contour>
      <point x="636" y="44" type="line"/>
      <point x="636" y="353" type="line"/>
      <point x="715" y="353" type="line" smooth="yes"/>
      <point x="835" y="353"/>
      <point x="904" y="303"/>
      <point x="904" y="200" type="curve" smooth="yes"/>
      <point x="904" y="89"/>
      <point x="837" y="44"/>
      <point x="698" y="44" type="curve" smooth="yes"/>
    </contour>
  </outline>
</glyph>
<glyph name="afii10028" format="2">
  <advance width="853"/>
  <unicode hex="041A"/>
  <anchor x="426" y="0" name="bottom"/>
  <anchor x="426" y="714" name="top"/>
  <outline>
    <contour>
      <point x="49" y="0" type="line"/>
      <point x="386" y="0" type="line"/>
      <point x="386" y="38" type="line"/>
      <point x="334" y="38" type="line" smooth="yes"/>
      <point x="291" y="38"/>
      <point x="276" y="48"/>
      <point x="276" y="112" type="curve" smooth="yes"/>
      <point x="276" y="336" type="line"/>
      <point x="380" y="336"/>
      <point x="442" y="327"/>
      <point x="480" y="268" type="curve" smooth="yes"/>
      <point x="585" y="92" type="line" smooth="yes"/>
      <point x="633" y="19"/>
      <point x="695" y="0"/>
      <point x="756" y="0" type="curve" smooth="yes"/>
      <point x="822" y="0" type="line"/>
      <point x="822" y="44" type="line"/>
      <point x="815" y="44" type="line" smooth="yes"/>
      <point x="767" y="44"/>
      <point x="729" y="59"/>
      <point x="693" y="112" type="curve" smooth="yes"/>
      <point x="603" y="256" type="line" smooth="yes"/>
      <point x="564" y="316"/>
      <point x="508" y="371"/>
      <point x="405" y="373" type="curve"/>
      <point x="444" y="373"/>
      <point x="485" y="419"/>
      <point x="534" y="525" type="curve" smooth="yes"/>
      <point x="589" y="647"/>
      <point x="616" y="666"/>
      <point x="669" y="666" type="curve" smooth="yes"/>
      <point x="721" y="666"/>
      <point x="763" y="641"/>
      <point x="766" y="594" type="curve"/>
      <point x="793" y="598"/>
      <point x="799" y="624"/>
      <point x="799" y="641" type="curve" smooth="yes"/>
      <point x="799" y="677"/>
      <point x="765" y="720"/>
      <point x="680" y="720" type="curve" smooth="yes"/>
      <point x="593" y="720"/>
      <point x="555" y="704"/>
      <point x="492" y="561" type="curve" smooth="yes"/>
      <point x="460" y="489"/>
      <point x="422" y="442"/>
      <point x="400" y="416" type="curve" smooth="yes"/>
      <point x="373" y="385"/>
      <point x="354" y="379"/>
      <point x="276" y="379" type="curve"/>
      <point x="276" y="598" type="line" smooth="yes"/>
      <point x="276" y="666"/>
      <point x="284" y="676"/>
      <point x="341" y="676" type="curve" smooth="yes"/>
      <point x="386" y="676" type="line"/>
      <point x="386" y="714" type="line"/>
      <point x="49" y="714" type="line"/>
      <point x="49" y="676" type="line"/>
      <point x="104" y="676" type="line" smooth="yes"/>
      <point x="153" y="676"/>
      <point x="166" y="666"/>
      <point x="166" y="600" type="curve" smooth="yes"/>
      <point x="166" y="114" type="line" smooth="yes"/>
      <point x="166" y="50"/>
      <point x="153" y="38"/>
      <point x="103" y="38" type="curve" smooth="yes"/>
      <point x="49" y="38" type="line"/>
    </contour>
  </outline>
</glyph>
<glyph name="afii10037" format="2">
  <advance width="811"/>
  <unicode hex="0423"/>
  <anchor x="405" y="0" name="bottom"/>
  <anchor x="405" y="714" name="top"/>
  <outline>
    <contour>
      <point x="133" y="0" type="line"/>
      <point x="233" y="0" type="line" smooth="yes"/>
      <point x="374" y="0"/>
      <point x="422" y="66"/>
      <point x="489" y="198" type="curve" smooth="yes"/>
      <point x="690" y="571" type="line" smooth="yes"/>
      <point x="727" y="647"/>
      <point x="738" y="676"/>
      <point x="784" y="676" type="curve" smooth="yes"/>
      <point x="807" y="676" type="line"/>
      <point x="807" y="714" type="line"/>
      <point x="554" y="714" type="line"/>
      <point x="554" y="676" type="line"/>
      <point x="595" y="676" type="line" smooth="yes"/>
      <point x="630" y="676"/>
      <point x="652" y="667"/>
      <point x="652" y="639" type="curve" smooth="yes"/>
      <point x="652" y="621"/>
      <point x="646" y="600"/>
      <point x="625" y="554" type="curve" smooth="yes"/>
      <point x="523" y="367" type="line" smooth="yes"/>
      <point x="501" y="329"/>
      <point x="465" y="256"/>
      <point x="446" y="226" type="curve"/>
      <point x="424" y="259"/>
      <point x="405" y="292"/>
      <point x="377" y="339" type="curve" smooth="yes"/>
      <point x="227" y="568" type="line" smooth="yes"/>
      <point x="211" y="594"/>
      <point x="198" y="621"/>
      <point x="198" y="639" type="curve" smooth="yes"/>
      <point x="198" y="674"/>
      <point x="220" y="676"/>
      <point x="248" y="676" type="curve" smooth="yes"/>
      <point x="308" y="676" type="line"/>
      <point x="308" y="714" type="line"/>
      <point x="0" y="714" type="line"/>
      <point x="0" y="676" type="line"/>
      <point x="21" y="676" type="line" smooth="yes"/>
      <point x="42" y="676"/>
      <point x="65" y="660"/>
      <point x="93" y="611" type="curve" smooth="yes"/>
      <point x="389" y="144" type="line"/>
      <point x="344" y="68"/>
      <point x="288" y="43"/>
      <point x="190" y="43" type="curve" smooth="yes"/>
      <point x="133" y="43" type="line"/>
    </contour>
  </outline>
</glyph>
<glyph name="afii10042" format="2">
  <advance width="1268"/>
  <unicode hex="0428"/>
  <anchor x="635" y="0" name="bottom"/>
  <anchor x="635" y="714" name="top"/>
  <outline>
    <contour>
      <point x="48" y="0" type="line"/>
      <point x="1221" y="0" type="line"/>
      <point x="1221" y="38" type="line"/>
      <point x="1160" y="38" type="line" smooth="yes"/>
      <point x="1119" y="38"/>
      <point x="1103" y="48"/>
      <point x="1103" y="114" type="curve" smooth="yes"/>
      <point x="1103" y="597" type="line" smooth="yes"/>
      <point x="1103" y="665"/>
      <point x="1115" y="676"/>
      <point x="1157" y="676" type="curve" smooth="yes"/>
      <point x="1221" y="676" type="line"/>
      <point x="1221" y="714" type="line"/>
      <point x="899" y="714" type="line"/>
      <point x="899" y="676" type="line"/>
      <point x="946" y="676" type="line" smooth="yes"/>
      <point x="990" y="676"/>
      <point x="998" y="665"/>
      <point x="998" y="597" type="curve" smooth="yes"/>
      <point x="997" y="44" type="line"/>
      <point x="686" y="44" type="line"/>
      <point x="686" y="602" type="line" smooth="yes"/>
      <point x="686" y="668"/>
      <point x="697" y="676"/>
      <point x="740" y="676" type="curve" smooth="yes"/>
      <point x="779" y="676" type="line"/>
      <point x="779" y="714" type="line"/>
      <point x="490" y="714" type="line"/>
      <point x="490" y="676" type="line"/>
      <point x="520" y="676" type="line" smooth="yes"/>
      <point x="567" y="676"/>
      <point x="581" y="667"/>
      <point x="581" y="596" type="curve" smooth="yes"/>
      <point x="581" y="44" type="line"/>
      <point x="269" y="44" type="line"/>
      <point x="269" y="597" type="line" smooth="yes"/>
      <point x="269" y="665"/>
      <point x="278" y="676"/>
      <point x="332" y="676" type="curve" smooth="yes"/>
      <point x="368" y="676" type="line"/>
      <point x="368" y="714" type="line"/>
      <point x="47" y="714" type="line"/>
      <point x="47" y="676" type="line"/>
      <point x="107" y="676" type="line" smooth="yes"/>
      <point x="152" y="676"/>
      <point x="165" y="665"/>
      <point x="165" y="597" type="curve" smooth="yes"/>
      <point x="165" y="114" type="line" smooth="yes"/>
      <point x="165" y="49"/>
      <point x="154" y="38"/>
      <point x="104" y="38" type="curve" smooth="yes"/>
      <point x="48" y="38" type="line"/>
    </contour>
  </outline>
</glyph>
<glyph name="afii10048" format="2">
  <advance width="1233"/>
  <unicode hex="042E"/>
  <anchor x="617" y="0" name="bottom"/>
  <anchor x="617" y="714" name="top"/>
  <outline>
    <contour>
      <point x="800" y="-10" type="curve" smooth="yes"/>
      <point x="1056" y="-10"/>
      <point x="1163" y="141"/>
      <point x="1163" y="358" type="curve" smooth="yes"/>
      <point x="1163" y="575"/>
      <point x="1053" y="725"/>
      <point x="801" y="725" type="curve" smooth="yes"/>
      <point x="573" y="725"/>
      <point x="445" y="602"/>
      <point x="435" y="395" type="curve"/>
      <point x="275" y="395" type="line"/>
      <point x="275" y="604" type="line" smooth="yes"/>
      <point x="275" y="662"/>
      <point x="284" y="676"/>
      <point x="326" y="676" type="curve" smooth="yes"/>
      <point x="376" y="676" type="line"/>
      <point x="376" y="714" type="line"/>
      <point x="47" y="714" type="line"/>
      <point x="47" y="676" type="line"/>
      <point x="112" y="676" type="line" smooth="yes"/>
      <point x="151" y="676"/>
      <point x="166" y="662"/>
      <point x="166" y="602" type="curve" smooth="yes"/>
      <point x="166" y="109" type="line" smooth="yes"/>
      <point x="166" y="55"/>
      <point x="156" y="38"/>
      <point x="111" y="38" type="curve" smooth="yes"/>
      <point x="47" y="38" type="line"/>
      <point x="47" y="0" type="line"/>
      <point x="376" y="0" type="line"/>
      <point x="376" y="38" type="line"/>
      <point x="326" y="38" type="line" smooth="yes"/>
      <point x="284" y="38"/>
      <point x="275" y="55"/>
      <point x="275" y="109" type="curve" smooth="yes"/>
      <point x="275" y="351" type="line"/>
      <point x="433" y="351" type="line"/>
      <point x="437" y="128"/>
      <point x="556" y="-10"/>
    </contour>
    <contour>
      <point x="800" y="36" type="curve" smooth="yes"/>
      <point x="629" y="36"/>
      <point x="548" y="149"/>
      <point x="548" y="358" type="curve" smooth="yes"/>
      <point x="548" y="560"/>
      <point x="633" y="679"/>
      <point x="801" y="679" type="curve" smooth="yes"/>
      <point x="980" y="679"/>
      <point x="1049" y="560"/>
      <point x="1049" y="365" type="curve" smooth="yes"/>
      <point x="1049" y="156"/>
      <point x="982" y="36"/>
    </contour>
  </outline>
</glyph>
<glyph name="afii10073" format="2">
  <advance width="601"/>
  <unicode hex="0437"/>
  <anchor x="295" y="0" name="bottom"/>
  <anchor x="299" y="536" name="top"/>
  <outline>
    <contour>
      <point x="300" y="-10" type="curve" smooth="yes"/>
      <point x="470" y="-10"/>
      <point x="537" y="65"/>
      <point x="537" y="151" type="curve" smooth="yes"/>
      <point x="537" y="232"/>
      <point x="476" y="269"/>
      <point x="394" y="284" type="curve"/>
      <point x="394" y="289" type="line"/>
      <point x="462" y="302"/>
      <point x="519" y="337"/>
      <point x="519" y="418" type="curve" smooth="yes"/>
      <point x="519" y="492"/>
      <point x="440" y="546"/>
      <point x="292" y="546" type="curve" smooth="yes"/>
      <point x="162" y="546"/>
      <point x="82" y="500"/>
      <point x="82" y="440" type="curve" smooth="yes"/>
      <point x="82" y="412"/>
      <point x="98" y="392"/>
      <point x="159" y="392" type="curve"/>
      <point x="159" y="461"/>
      <point x="220" y="504"/>
      <point x="294" y="504" type="curve" smooth="yes"/>
      <point x="367" y="504"/>
      <point x="412" y="455"/>
      <point x="412" y="413" type="curve" smooth="yes"/>
      <point x="412" y="335"/>
      <point x="358" y="310"/>
      <point x="295" y="310" type="curve" smooth="yes"/>
      <point x="234" y="310" type="line"/>
      <point x="234" y="263" type="line"/>
      <point x="295" y="263" type="line" smooth="yes"/>
      <point x="375" y="263"/>
      <point x="430" y="234"/>
      <point x="430" y="156" type="curve" smooth="yes"/>
      <point x="430" y="92"/>
      <point x="383" y="42"/>
      <point x="275" y="42" type="curve" smooth="yes"/>
      <point x="176" y="42"/>
      <point x="95" y="85"/>
      <point x="70" y="131" type="curve"/>
      <point x="53" y="130"/>
      <point x="44" y="116"/>
      <point x="44" y="103" type="curve" smooth="yes"/>
      <point x="44" y="56"/>
      <point x="131" y="-10"/>
    </contour>
  </outline>
</glyph>
<glyph name="afii10078" format="2">
  <advance width="896"/>
  <unicode hex="043C"/>
  <anchor x="449" y="0" name="bottom"/>
  <anchor x="449" y="536" name="top"/>
  <outline>
    <contour>
      <point x="32" y="0" type="line"/>
      <point x="297" y="0" type="line"/>
      <point x="297" y="38" type="line"/>
      <point x="269" y="38" type="line" smooth="yes"/>
      <point x="207" y="38"/>
      <point x="197" y="45"/>
      <point x="197" y="111" type="curve" smooth="yes"/>
      <point x="197" y="430" type="line"/>
      <point x="202" y="430" type="line"/>
      <point x="391" y="0" type="line"/>
      <point x="436" y="0" type="line"/>
      <point x="636" y="418" type="line"/>
      <point x="641" y="418" type="line"/>
      <point x="641" y="112" type="line" smooth="yes"/>
      <point x="641" y="45"/>
      <point x="627" y="38"/>
      <point x="567" y="38" type="curve" smooth="yes"/>
      <point x="551" y="38" type="line"/>
      <point x="551" y="0" type="line"/>
      <point x="850" y="0" type="line"/>
      <point x="850" y="38" type="line"/>
      <point x="824" y="38" type="line" smooth="yes"/>
      <point x="753" y="38"/>
      <point x="742" y="45"/>
      <point x="742" y="112" type="curve" smooth="yes"/>
      <point x="742" y="433" type="line" smooth="yes"/>
      <point x="742" y="486"/>
      <point x="756" y="498"/>
      <point x="814" y="498" type="curve" smooth="yes"/>
      <point x="850" y="498" type="line"/>
      <point x="850" y="536" type="line"/>
      <point x="625" y="536" type="line"/>
      <point x="441" y="126" type="line"/>
      <point x="267" y="536" type="line"/>
      <point x="32" y="536" type="line"/>
      <point x="32" y="498" type="line"/>
      <point x="83" y="498" type="line" smooth="yes"/>
      <point x="132" y="498"/>
      <point x="148" y="490"/>
      <point x="148" y="427" type="curve" smooth="yes"/>
      <point x="148" y="109" type="line" smooth="yes"/>
      <point x="148" y="45"/>
      <point x="136" y="38"/>
      <point x="63" y="38" type="curve" smooth="yes"/>
      <point x="32" y="38" type="line"/>
    </contour>
  </outline>
</glyph>
<glyph name="afii10079" format="2">
  <advance width="844"/>
  <unicode hex="043D"/>
  <anchor x="422" y="0" name="bottom"/>
  <anchor x="422" y="536" name="top"/>
  <outline>
    <contour>
      <point x="32" y="0" type="line"/>
      <point x="352" y="0" type="line"/>
      <point x="352" y="38" type="line"/>
      <point x="320" y="38" type="line" smooth="yes"/>
      <point x="262" y="38"/>
      <point x="251" y="46"/>
      <point x="251" y="107" type="curve" smooth="yes"/>
      <point x="251" y="254" type="line"/>
      <point x="591" y="254" type="line"/>
      <point x="591" y="107" type="line" smooth="yes"/>
      <point x="591" y="45"/>
      <point x="583" y="38"/>
      <point x="518" y="38" type="curve" smooth="yes"/>
      <point x="491" y="38" type="line"/>
      <point x="491" y="0" type="line"/>
      <point x="813" y="0" type="line"/>
      <point x="813" y="38" type="line"/>
      <point x="773" y="38" type="line" smooth="yes"/>
      <point x="713" y="38"/>
      <point x="698" y="47"/>
      <point x="698" y="107" type="curve" smooth="yes"/>
      <point x="698" y="429" type="line" smooth="yes"/>
      <point x="698" y="489"/>
      <point x="711" y="498"/>
      <point x="776" y="498" type="curve" smooth="yes"/>
      <point x="813" y="498" type="line"/>
      <point x="813" y="536" type="line"/>
      <point x="491" y="536" type="line"/>
      <point x="491" y="498" type="line"/>
      <point x="523" y="498" type="line" smooth="yes"/>
      <point x="582" y="498"/>
      <point x="591" y="489"/>
      <point x="591" y="430" type="curve" smooth="yes"/>
      <point x="591" y="297" type="line"/>
      <point x="251" y="297" type="line"/>
      <point x="251" y="429" type="line" smooth="yes"/>
      <point x="251" y="489"/>
      <point x="260" y="498"/>
      <point x="321" y="498" type="curve" smooth="yes"/>
      <point x="352" y="498" type="line"/>
      <point x="352" y="536" type="line"/>
      <point x="32" y="536" type="line"/>
      <point x="32" y="498" type="line"/>
      <point x="75" y="498" type="line" smooth="yes"/>
      <point x="130" y="498"/>
      <point x="145" y="489"/>
      <point x="145" y="430" type="curve" smooth="yes"/>
      <point x="145" y="107" type="line" smooth="yes"/>
      <point x="145" y="46"/>
      <point x="133" y="38"/>
      <point x="65" y="38" type="curve" smooth="yes"/>
      <point x="32" y="38" type="line"/>
    </contour>
  </outline>
</glyph>
<glyph name="afii10084" format="2">
  <advance width="620"/>
  <unicode hex="0442"/>
  <anchor x="311" y="0" name="bottom"/>
  <anchor x="311" y="536" name="top"/>
  <outline>
    <contour>
      <point x="140" y="0" type="line"/>
      <point x="478" y="0" type="line"/>
      <point x="478" y="38" type="line"/>
      <point x="444" y="38" type="line" smooth="yes"/>
      <point x="376" y="38"/>
      <point x="363" y="48"/>
      <point x="363" y="108" type="curve" smooth="yes"/>
      <point x="363" y="489" type="line"/>
      <point x="482" y="489" type="line" smooth="yes"/>
      <point x="522" y="489"/>
      <point x="539" y="477"/>
      <point x="544" y="447" type="curve" smooth="yes"/>
      <point x="551" y="361" type="line"/>
      <point x="602" y="361" type="line"/>
      <point x="596" y="536" type="line"/>
      <point x="25" y="536" type="line"/>
      <point x="18" y="361" type="line"/>
      <point x="69" y="361" type="line"/>
      <point x="77" y="449" type="line" smooth="yes"/>
      <point x="83" y="475"/>
      <point x="99" y="489"/>
      <point x="140" y="489" type="curve" smooth="yes"/>
      <point x="256" y="489" type="line"/>
      <point x="256" y="108" type="line" smooth="yes"/>
      <point x="256" y="48"/>
      <point x="243" y="38"/>
      <point x="175" y="38" type="curve" smooth="yes"/>
      <point x="140" y="38" type="line"/>
    </contour>
  </outline>
</glyph>
<glyph name="afii10086" format="2">
  <advance width="839"/>
  <unicode hex="0444"/>
  <anchor x="420" y="-239" name="bottom"/>
  <anchor x="420" y="760" name="top"/>
  <outline>
    <contour>
      <point x="253" y="-239" type="line"/>
      <point x="587" y="-239" type="line"/>
      <point x="587" y="-201" type="line"/>
      <point x="530" y="-201" type="line" smooth="yes"/>
      <point x="488" y="-201"/>
      <point x="473" y="-193"/>
      <point x="473" y="-126" type="curve" smooth="yes"/>
      <point x="473" y="-9" type="line"/>
      <point x="643" y="-12"/>
      <point x="770" y="88"/>
      <point x="770" y="267" type="curve" smooth="yes"/>
      <point x="770" y="447"/>
      <point x="634" y="546"/>
      <point x="473" y="542" type="curve"/>
      <point x="473" y="760" type="line"/>
      <point x="253" y="760" type="line"/>
      <point x="253" y="722" type="line"/>
      <point x="296" y="722" type="line" smooth="yes"/>
      <point x="353" y="722"/>
      <point x="370" y="713"/>
      <point x="370" y="648" type="curve" smooth="yes"/>
      <point x="370" y="543" type="line"/>
      <point x="189" y="545"/>
      <point x="68" y="441"/>
      <point x="68" y="267" type="curve" smooth="yes"/>
      <point x="68" y="92"/>
      <point x="209" y="-10"/>
      <point x="370" y="-9" type="curve"/>
      <point x="370" y="-126" type="line" smooth="yes"/>
      <point x="370" y="-193"/>
      <point x="355" y="-201"/>
      <point x="313" y="-201" type="curve" smooth="yes"/>
      <point x="253" y="-201" type="line"/>
    </contour>
    <contour>
      <point x="369" y="36" type="line"/>
      <point x="259" y="37"/>
      <point x="173" y="128"/>
      <point x="172" y="267" type="curve" smooth="yes"/>
      <point x="171" y="418"/>
      <point x="247" y="499"/>
      <point x="369" y="496" type="curve"/>
    </contour>
    <contour>
      <point x="473" y="37" type="curve"/>
      <point x="473" y="496" type="line"/>
      <point x="579" y="497"/>
      <point x="667" y="420"/>
      <point x="667" y="267" type="curve" smooth="yes"/>
      <point x="667" y="136"/>
      <point x="595" y="34"/>
    </contour>
  </outline>
</glyph>
